<mxfile host="Electron" agent="Mozilla/5.0 (Windows NT 10.0; Win64; x64) AppleWebKit/537.36 (KHTML, like Gecko) draw.io/28.0.6 Chrome/138.0.7204.100 Electron/37.2.3 Safari/537.36" version="28.0.6" pages="6">
  <diagram name="[5] CDN+API Gateway+Cache+Replication+Sharding " id="fgjZoDFLxkDO7G3ehzUu">
    <mxGraphModel dx="3131" dy="1580" grid="1" gridSize="10" guides="1" tooltips="1" connect="1" arrows="1" fold="1" page="1" pageScale="1" pageWidth="827" pageHeight="1169" math="0" shadow="0">
      <root>
        <mxCell id="VRF_6Nl9EiTcEPiYy6B--0" />
        <mxCell id="VRF_6Nl9EiTcEPiYy6B--1" parent="VRF_6Nl9EiTcEPiYy6B--0" />
        <object placeholders="1" c4Name="Мобильный мир" c4Type="ContainerScopeBoundary" c4Application="Информационная система" label="&lt;font style=&quot;font-size: 16px&quot;&gt;&lt;b&gt;&lt;div style=&quot;text-align: left&quot;&gt;%c4Name%&lt;/div&gt;&lt;/b&gt;&lt;/font&gt;&lt;div style=&quot;text-align: left&quot;&gt;[%c4Application%]&lt;/div&gt;" id="VRF_6Nl9EiTcEPiYy6B--2">
          <mxCell style="rounded=1;fontSize=11;whiteSpace=wrap;html=1;dashed=1;arcSize=20;fillColor=none;strokeColor=#666666;fontColor=#333333;labelBackgroundColor=none;align=left;verticalAlign=bottom;labelBorderColor=none;spacingTop=0;spacing=10;dashPattern=8 4;metaEdit=1;rotatable=0;perimeter=rectanglePerimeter;noLabel=0;labelPadding=0;allowArrows=0;connectable=0;expand=0;recursiveResize=0;editable=1;pointerEvents=0;absoluteArcSize=1;points=[[0.25,0,0],[0.5,0,0],[0.75,0,0],[1,0.25,0],[1,0.5,0],[1,0.75,0],[0.75,1,0],[0.5,1,0],[0.25,1,0],[0,0.75,0],[0,0.5,0],[0,0.25,0]];" vertex="1" parent="VRF_6Nl9EiTcEPiYy6B--1">
            <mxGeometry x="-480" y="850" width="1630" height="1200" as="geometry" />
          </mxCell>
        </object>
        <object placeholders="1" c4Name="pymongo-api_2" c4Type="Service" c4Technology="Python" c4Description="Mobile World API" label="&lt;font style=&quot;font-size: 16px&quot;&gt;&lt;b&gt;%c4Name%&lt;/b&gt;&lt;/font&gt;&lt;div&gt;[%c4Type%:&amp;nbsp;%c4Technology%]&lt;/div&gt;&lt;br&gt;&lt;div&gt;&lt;font style=&quot;font-size: 11px&quot;&gt;&lt;font color=&quot;#E6E6E6&quot;&gt;%c4Description%&lt;/font&gt;&lt;/div&gt;" id="VRF_6Nl9EiTcEPiYy6B--3">
          <mxCell style="shape=hexagon;size=50;perimeter=hexagonPerimeter2;whiteSpace=wrap;html=1;fixedSize=1;rounded=1;labelBackgroundColor=none;fillColor=#23A2D9;fontSize=12;fontColor=#ffffff;align=center;strokeColor=#0E7DAD;metaEdit=1;points=[[0.5,0,0],[1,0.25,0],[1,0.5,0],[1,0.75,0],[0.5,1,0],[0,0.75,0],[0,0.5,0],[0,0.25,0]];resizable=1;" vertex="1" parent="VRF_6Nl9EiTcEPiYy6B--1">
            <mxGeometry x="540" y="800" width="200" height="170" as="geometry" />
          </mxCell>
        </object>
        <object placeholders="1" c4Name="mongos_router" c4Type="Component" c4Technology="MongoDB" c4Description="MongoDB Router" label="&lt;font style=&quot;font-size: 16px&quot;&gt;&lt;b&gt;%c4Name%&lt;/b&gt;&lt;/font&gt;&lt;div&gt;[%c4Type%: %c4Technology%]&lt;/div&gt;&lt;br&gt;&lt;div&gt;&lt;font style=&quot;font-size: 11px&quot;&gt;%c4Description%&lt;/font&gt;&lt;/div&gt;" id="VRF_6Nl9EiTcEPiYy6B--4">
          <mxCell style="rounded=1;whiteSpace=wrap;html=1;labelBackgroundColor=none;fillColor=#63BEF2;fontColor=#ffffff;align=center;arcSize=6;strokeColor=#2086C9;metaEdit=1;resizable=0;points=[[0.25,0,0],[0.5,0,0],[0.75,0,0],[1,0.25,0],[1,0.5,0],[1,0.75,0],[0.75,1,0],[0.5,1,0],[0.25,1,0],[0,0.75,0],[0,0.5,0],[0,0.25,0]];" vertex="1" parent="VRF_6Nl9EiTcEPiYy6B--1">
            <mxGeometry x="265" y="1435" width="240" height="120" as="geometry" />
          </mxCell>
        </object>
        <object placeholders="1" c4Type="Relationship" c4Technology="PyMongo" c4Description="CRUD operations" label="&lt;div style=&quot;text-align: left&quot;&gt;&lt;div style=&quot;text-align: center&quot;&gt;&lt;b&gt;%c4Description%&lt;/b&gt;&lt;/div&gt;&lt;div style=&quot;text-align: center&quot;&gt;[%c4Technology%]&lt;/div&gt;&lt;/div&gt;" id="VRF_6Nl9EiTcEPiYy6B--5">
          <mxCell style="endArrow=blockThin;html=1;fontSize=10;fontColor=#404040;strokeWidth=1;endFill=1;strokeColor=#828282;elbow=vertical;metaEdit=1;endSize=14;startSize=14;jumpStyle=arc;jumpSize=16;rounded=1;edgeStyle=orthogonalEdgeStyle;curved=0;" edge="1" parent="VRF_6Nl9EiTcEPiYy6B--1" source="VRF_6Nl9EiTcEPiYy6B--3" target="VRF_6Nl9EiTcEPiYy6B--7">
            <mxGeometry x="-0.0909" width="240" relative="1" as="geometry">
              <mxPoint x="380" y="1260" as="sourcePoint" />
              <mxPoint x="120" y="1450" as="targetPoint" />
              <Array as="points">
                <mxPoint x="640" y="1130" />
                <mxPoint x="400" y="1130" />
              </Array>
              <mxPoint as="offset" />
            </mxGeometry>
          </mxCell>
        </object>
        <mxCell id="VRF_6Nl9EiTcEPiYy6B--6" value="" style="edgeStyle=orthogonalEdgeStyle;rounded=1;orthogonalLoop=1;jettySize=auto;html=1;curved=0;strokeColor=#828282;endArrow=blockThin;endFill=1;startSize=14;endSize=14;jumpStyle=gap;" edge="1" parent="VRF_6Nl9EiTcEPiYy6B--1" source="VRF_6Nl9EiTcEPiYy6B--7" target="VRF_6Nl9EiTcEPiYy6B--4">
          <mxGeometry relative="1" as="geometry" />
        </mxCell>
        <object placeholders="1" c4Name="MongoDB Driver" c4Type="Component" c4Technology="MongoDB" c4Description="MongoDB Driver" label="&lt;font style=&quot;font-size: 16px&quot;&gt;&lt;b&gt;%c4Name%&lt;/b&gt;&lt;/font&gt;&lt;div&gt;[%c4Type%: %c4Technology%]&lt;/div&gt;&lt;br&gt;&lt;div&gt;&lt;font style=&quot;font-size: 11px&quot;&gt;%c4Description%&lt;/font&gt;&lt;/div&gt;" id="VRF_6Nl9EiTcEPiYy6B--7">
          <mxCell style="rounded=1;whiteSpace=wrap;html=1;labelBackgroundColor=none;fillColor=#63BEF2;fontColor=#ffffff;align=center;arcSize=6;strokeColor=#2086C9;metaEdit=1;resizable=0;points=[[0.25,0,0],[0.5,0,0],[0.75,0,0],[1,0.25,0],[1,0.5,0],[1,0.75,0],[0.75,1,0],[0.5,1,0],[0.25,1,0],[0,0.75,0],[0,0.5,0],[0,0.25,0]];" vertex="1" parent="VRF_6Nl9EiTcEPiYy6B--1">
            <mxGeometry x="265" y="1250" width="240" height="120" as="geometry" />
          </mxCell>
        </object>
        <mxCell id="VRF_6Nl9EiTcEPiYy6B--8" value="" style="edgeStyle=orthogonalEdgeStyle;rounded=1;orthogonalLoop=1;jettySize=auto;html=1;curved=0;strokeColor=#828282;endArrow=blockThin;endFill=1;startSize=14;endSize=14;jumpStyle=gap;" edge="1" parent="VRF_6Nl9EiTcEPiYy6B--1" source="VRF_6Nl9EiTcEPiYy6B--4" target="VRF_6Nl9EiTcEPiYy6B--16">
          <mxGeometry relative="1" as="geometry">
            <mxPoint x="380" y="1390" as="sourcePoint" />
            <mxPoint x="380" y="1455" as="targetPoint" />
            <Array as="points">
              <mxPoint x="385" y="1620" />
              <mxPoint x="130" y="1620" />
            </Array>
          </mxGeometry>
        </mxCell>
        <mxCell id="VRF_6Nl9EiTcEPiYy6B--9" value="" style="group" vertex="1" connectable="0" parent="VRF_6Nl9EiTcEPiYy6B--1">
          <mxGeometry x="420" y="1740" width="470" height="180" as="geometry" />
        </mxCell>
        <object placeholders="1" c4Name="shard1-2" c4Type="Database" c4Technology="MongoDB" c4Description="Slave" label="&lt;font style=&quot;font-size: 16px&quot;&gt;&lt;b&gt;%c4Name%&lt;/b&gt;&lt;/font&gt;&lt;div&gt;[%c4Type%:&amp;nbsp;%c4Technology%]&lt;/div&gt;&lt;br&gt;&lt;div&gt;&lt;font style=&quot;font-size: 11px&quot;&gt;&lt;font color=&quot;#E6E6E6&quot;&gt;%c4Description%&lt;/font&gt;&lt;/div&gt;" id="VRF_6Nl9EiTcEPiYy6B--10">
          <mxCell style="shape=cylinder3;size=15;whiteSpace=wrap;html=1;boundedLbl=1;rounded=0;labelBackgroundColor=none;fillColor=#23A2D9;fontSize=12;fontColor=#ffffff;align=center;strokeColor=#0E7DAD;metaEdit=1;points=[[0.5,0,0],[1,0.25,0],[1,0.5,0],[1,0.75,0],[0.5,1,0],[0,0.75,0],[0,0.5,0],[0,0.25,0]];resizable=1;" vertex="1" parent="VRF_6Nl9EiTcEPiYy6B--9">
            <mxGeometry x="230" y="70" width="240" height="110" as="geometry" />
          </mxCell>
        </object>
        <object placeholders="1" c4Name="shard1-2" c4Type="Database" c4Technology="MongoDB" c4Description="Slave" label="&lt;font style=&quot;font-size: 16px&quot;&gt;&lt;b&gt;%c4Name%&lt;/b&gt;&lt;/font&gt;&lt;div&gt;[%c4Type%:&amp;nbsp;%c4Technology%]&lt;/div&gt;&lt;br&gt;&lt;div&gt;&lt;font style=&quot;font-size: 11px&quot;&gt;&lt;font color=&quot;#E6E6E6&quot;&gt;%c4Description%&lt;/font&gt;&lt;/div&gt;" id="VRF_6Nl9EiTcEPiYy6B--11">
          <mxCell style="shape=cylinder3;size=15;whiteSpace=wrap;html=1;boundedLbl=1;rounded=0;labelBackgroundColor=none;fillColor=#23A2D9;fontSize=12;fontColor=#ffffff;align=center;strokeColor=#0E7DAD;metaEdit=1;points=[[0.5,0,0],[1,0.25,0],[1,0.5,0],[1,0.75,0],[0.5,1,0],[0,0.75,0],[0,0.5,0],[0,0.25,0]];resizable=1;" vertex="1" parent="VRF_6Nl9EiTcEPiYy6B--9">
            <mxGeometry y="70" width="240" height="110" as="geometry" />
          </mxCell>
        </object>
        <object placeholders="1" c4Name="shard1-2" c4Type="Database" c4Technology="MongoDB" c4Description="Master" label="&lt;font style=&quot;font-size: 16px&quot;&gt;&lt;b&gt;%c4Name%&lt;/b&gt;&lt;/font&gt;&lt;div&gt;[%c4Type%:&amp;nbsp;%c4Technology%]&lt;/div&gt;&lt;br&gt;&lt;div&gt;&lt;font style=&quot;font-size: 11px&quot;&gt;&lt;font color=&quot;#E6E6E6&quot;&gt;%c4Description%&lt;/font&gt;&lt;/div&gt;" id="VRF_6Nl9EiTcEPiYy6B--12">
          <mxCell style="shape=cylinder3;size=15;whiteSpace=wrap;html=1;boundedLbl=1;rounded=0;labelBackgroundColor=none;fillColor=#23A2D9;fontSize=12;fontColor=#ffffff;align=center;strokeColor=#0E7DAD;metaEdit=1;points=[[0.5,0,0],[1,0.25,0],[1,0.5,0],[1,0.75,0],[0.5,1,0],[0,0.75,0],[0,0.5,0],[0,0.25,0]];resizable=1;" vertex="1" parent="VRF_6Nl9EiTcEPiYy6B--9">
            <mxGeometry x="110" width="240" height="110" as="geometry" />
          </mxCell>
        </object>
        <mxCell id="VRF_6Nl9EiTcEPiYy6B--13" value="" style="group" vertex="1" connectable="0" parent="VRF_6Nl9EiTcEPiYy6B--1">
          <mxGeometry x="-110" y="1740" width="470" height="180" as="geometry" />
        </mxCell>
        <object placeholders="1" c4Name="shard1-1" c4Type="Database" c4Technology="MongoDB" c4Description="Slave" label="&lt;font style=&quot;font-size: 16px&quot;&gt;&lt;b&gt;%c4Name%&lt;/b&gt;&lt;/font&gt;&lt;div&gt;[%c4Type%:&amp;nbsp;%c4Technology%]&lt;/div&gt;&lt;br&gt;&lt;div&gt;&lt;font style=&quot;font-size: 11px&quot;&gt;&lt;font color=&quot;#E6E6E6&quot;&gt;%c4Description%&lt;/font&gt;&lt;/div&gt;" id="VRF_6Nl9EiTcEPiYy6B--14">
          <mxCell style="shape=cylinder3;size=15;whiteSpace=wrap;html=1;boundedLbl=1;rounded=0;labelBackgroundColor=none;fillColor=#23A2D9;fontSize=12;fontColor=#ffffff;align=center;strokeColor=#0E7DAD;metaEdit=1;points=[[0.5,0,0],[1,0.25,0],[1,0.5,0],[1,0.75,0],[0.5,1,0],[0,0.75,0],[0,0.5,0],[0,0.25,0]];resizable=1;" vertex="1" parent="VRF_6Nl9EiTcEPiYy6B--13">
            <mxGeometry x="230" y="70" width="240" height="110" as="geometry" />
          </mxCell>
        </object>
        <object placeholders="1" c4Name="shard1-1" c4Type="Database" c4Technology="MongoDB" c4Description="Slave" label="&lt;font style=&quot;font-size: 16px&quot;&gt;&lt;b&gt;%c4Name%&lt;/b&gt;&lt;/font&gt;&lt;div&gt;[%c4Type%:&amp;nbsp;%c4Technology%]&lt;/div&gt;&lt;br&gt;&lt;div&gt;&lt;font style=&quot;font-size: 11px&quot;&gt;&lt;font color=&quot;#E6E6E6&quot;&gt;%c4Description%&lt;/font&gt;&lt;/div&gt;" id="VRF_6Nl9EiTcEPiYy6B--15">
          <mxCell style="shape=cylinder3;size=15;whiteSpace=wrap;html=1;boundedLbl=1;rounded=0;labelBackgroundColor=none;fillColor=#23A2D9;fontSize=12;fontColor=#ffffff;align=center;strokeColor=#0E7DAD;metaEdit=1;points=[[0.5,0,0],[1,0.25,0],[1,0.5,0],[1,0.75,0],[0.5,1,0],[0,0.75,0],[0,0.5,0],[0,0.25,0]];resizable=1;" vertex="1" parent="VRF_6Nl9EiTcEPiYy6B--13">
            <mxGeometry y="70" width="240" height="110" as="geometry" />
          </mxCell>
        </object>
        <object placeholders="1" c4Name="shard1-1" c4Type="Database" c4Technology="MongoDB" c4Description="Master" label="&lt;font style=&quot;font-size: 16px&quot;&gt;&lt;b&gt;%c4Name%&lt;/b&gt;&lt;/font&gt;&lt;div&gt;[%c4Type%:&amp;nbsp;%c4Technology%]&lt;/div&gt;&lt;br&gt;&lt;div&gt;&lt;font style=&quot;font-size: 11px&quot;&gt;&lt;font color=&quot;#E6E6E6&quot;&gt;%c4Description%&lt;/font&gt;&lt;/div&gt;" id="VRF_6Nl9EiTcEPiYy6B--16">
          <mxCell style="shape=cylinder3;size=15;whiteSpace=wrap;html=1;boundedLbl=1;rounded=0;labelBackgroundColor=none;fillColor=#23A2D9;fontSize=12;fontColor=#ffffff;align=center;strokeColor=#0E7DAD;metaEdit=1;points=[[0.5,0,0],[1,0.25,0],[1,0.5,0],[1,0.75,0],[0.5,1,0],[0,0.75,0],[0,0.5,0],[0,0.25,0]];resizable=1;" vertex="1" parent="VRF_6Nl9EiTcEPiYy6B--13">
            <mxGeometry x="130" width="220" height="110" as="geometry" />
          </mxCell>
        </object>
        <mxCell id="VRF_6Nl9EiTcEPiYy6B--17" value="" style="edgeStyle=orthogonalEdgeStyle;rounded=1;orthogonalLoop=1;jettySize=auto;html=1;curved=0;strokeColor=#828282;endArrow=blockThin;endFill=1;startSize=14;endSize=14;jumpStyle=gap;" edge="1" parent="VRF_6Nl9EiTcEPiYy6B--1" source="VRF_6Nl9EiTcEPiYy6B--4" target="VRF_6Nl9EiTcEPiYy6B--20">
          <mxGeometry relative="1" as="geometry">
            <mxPoint x="630" y="1650" as="sourcePoint" />
            <mxPoint x="895" y="1835" as="targetPoint" />
            <Array as="points">
              <mxPoint x="780" y="1495" />
              <mxPoint x="780" y="1495" />
            </Array>
          </mxGeometry>
        </mxCell>
        <mxCell id="VRF_6Nl9EiTcEPiYy6B--18" value="" style="edgeStyle=orthogonalEdgeStyle;rounded=1;orthogonalLoop=1;jettySize=auto;html=1;curved=0;strokeColor=#828282;endArrow=blockThin;endFill=1;startSize=14;endSize=14;jumpStyle=gap;" edge="1" parent="VRF_6Nl9EiTcEPiYy6B--1" source="VRF_6Nl9EiTcEPiYy6B--15" target="VRF_6Nl9EiTcEPiYy6B--20">
          <mxGeometry relative="1" as="geometry">
            <mxPoint x="485" y="1620" as="sourcePoint" />
            <mxPoint x="440" y="2030" as="targetPoint" />
            <Array as="points">
              <mxPoint x="130" y="1990" />
              <mxPoint x="960" y="1990" />
            </Array>
          </mxGeometry>
        </mxCell>
        <mxCell id="VRF_6Nl9EiTcEPiYy6B--19" value="" style="edgeStyle=orthogonalEdgeStyle;rounded=1;orthogonalLoop=1;jettySize=auto;html=1;curved=0;strokeColor=#828282;endArrow=blockThin;endFill=1;startSize=14;endSize=14;jumpStyle=gap;" edge="1" parent="VRF_6Nl9EiTcEPiYy6B--1" source="VRF_6Nl9EiTcEPiYy6B--11" target="VRF_6Nl9EiTcEPiYy6B--20">
          <mxGeometry relative="1" as="geometry">
            <mxPoint x="530" y="2010" as="sourcePoint" />
            <mxPoint x="840" y="2120" as="targetPoint" />
            <Array as="points">
              <mxPoint x="660" y="1990" />
              <mxPoint x="960" y="1990" />
            </Array>
          </mxGeometry>
        </mxCell>
        <object placeholders="1" c4Name="configSrv" c4Type="Component" c4Technology="MongoDB" c4Description="MongoDB Configuration" label="&lt;font style=&quot;font-size: 16px&quot;&gt;&lt;b&gt;%c4Name%&lt;/b&gt;&lt;/font&gt;&lt;div&gt;[%c4Type%: %c4Technology%]&lt;/div&gt;&lt;br&gt;&lt;div&gt;&lt;font style=&quot;font-size: 11px&quot;&gt;%c4Description%&lt;/font&gt;&lt;/div&gt;" id="VRF_6Nl9EiTcEPiYy6B--20">
          <mxCell style="rounded=1;whiteSpace=wrap;html=1;labelBackgroundColor=none;fillColor=#63BEF2;fontColor=#ffffff;align=center;arcSize=6;strokeColor=#2086C9;metaEdit=1;resizable=0;points=[[0.25,0,0],[0.5,0,0],[0.75,0,0],[1,0.25,0],[1,0.5,0],[1,0.75,0],[0.75,1,0],[0.5,1,0],[0.25,1,0],[0,0.75,0],[0,0.5,0],[0,0.25,0]];" vertex="1" parent="VRF_6Nl9EiTcEPiYy6B--1">
            <mxGeometry x="840" y="1435" width="240" height="120" as="geometry" />
          </mxCell>
        </object>
        <object placeholders="1" c4Type="Relationship" c4Technology="{ &quot;name&quot; : &quot;hashed&quot; }" c4Description="ShardCollection" label="&lt;div style=&quot;text-align: left&quot;&gt;&lt;div style=&quot;text-align: center&quot;&gt;&lt;b&gt;%c4Description%&lt;/b&gt;&lt;/div&gt;&lt;div style=&quot;text-align: center&quot;&gt;[%c4Technology%]&lt;/div&gt;&lt;/div&gt;" id="VRF_6Nl9EiTcEPiYy6B--21">
          <mxCell style="endArrow=blockThin;html=1;fontSize=10;fontColor=#404040;strokeWidth=1;endFill=1;strokeColor=#828282;elbow=vertical;metaEdit=1;endSize=14;startSize=14;jumpStyle=gap;jumpSize=16;rounded=1;edgeStyle=orthogonalEdgeStyle;curved=0;" edge="1" parent="VRF_6Nl9EiTcEPiYy6B--1" source="VRF_6Nl9EiTcEPiYy6B--4" target="VRF_6Nl9EiTcEPiYy6B--12">
            <mxGeometry x="-0.8486" width="240" relative="1" as="geometry">
              <mxPoint x="520" y="1680" as="sourcePoint" />
              <mxPoint x="785" y="1865" as="targetPoint" />
              <Array as="points">
                <mxPoint x="385" y="1620" />
                <mxPoint x="650" y="1620" />
              </Array>
              <mxPoint as="offset" />
            </mxGeometry>
          </mxCell>
        </object>
        <object placeholders="1" c4Name="redis_1" c4Type="Cache" c4Technology="Redis" c4Description="Master&#xa;Mobile World Cache" label="&lt;font style=&quot;font-size: 16px&quot;&gt;&lt;b&gt;%c4Name%&lt;/b&gt;&lt;/font&gt;&lt;div&gt;[%c4Type%:&amp;nbsp;%c4Technology%]&lt;/div&gt;&lt;br&gt;&lt;div&gt;&lt;font style=&quot;font-size: 11px&quot;&gt;&lt;font color=&quot;#E6E6E6&quot;&gt;%c4Description%&lt;/font&gt;&lt;/div&gt;" id="VRF_6Nl9EiTcEPiYy6B--22">
          <mxCell style="shape=cylinder3;size=15;whiteSpace=wrap;html=1;boundedLbl=1;rounded=0;labelBackgroundColor=none;fillColor=#23A2D9;fontSize=12;fontColor=#ffffff;align=center;strokeColor=#0E7DAD;metaEdit=1;points=[[0.5,0,0],[1,0.25,0],[1,0.5,0],[1,0.75,0],[0.5,1,0],[0,0.75,0],[0,0.5,0],[0,0.25,0]];resizable=1;" vertex="1" parent="VRF_6Nl9EiTcEPiYy6B--1">
            <mxGeometry x="-370" y="1225" width="120" height="120" as="geometry" />
          </mxCell>
        </object>
        <object placeholders="1" c4Name="Группа репликации" c4Type="ContainerScopeBoundary" c4Application="Container" label="&lt;font style=&quot;font-size: 16px&quot;&gt;&lt;b&gt;&lt;div style=&quot;text-align: left&quot;&gt;%c4Name%&lt;/div&gt;&lt;/b&gt;&lt;/font&gt;&lt;div style=&quot;text-align: left&quot;&gt;[%c4Application%]&lt;/div&gt;" id="VRF_6Nl9EiTcEPiYy6B--23">
          <mxCell style="rounded=1;fontSize=11;whiteSpace=wrap;html=1;dashed=1;arcSize=20;fillColor=none;strokeColor=#666666;fontColor=#333333;labelBackgroundColor=none;align=left;verticalAlign=bottom;labelBorderColor=none;spacingTop=0;spacing=10;dashPattern=8 4;metaEdit=1;rotatable=0;perimeter=rectanglePerimeter;noLabel=0;labelPadding=0;allowArrows=0;connectable=0;expand=0;recursiveResize=0;editable=1;pointerEvents=0;absoluteArcSize=1;points=[[0.25,0,0],[0.5,0,0],[0.75,0,0],[1,0.25,0],[1,0.5,0],[1,0.75,0],[0.75,1,0],[0.5,1,0],[0.25,1,0],[0,0.75,0],[0,0.5,0],[0,0.25,0]];" vertex="1" parent="VRF_6Nl9EiTcEPiYy6B--1">
            <mxGeometry x="-120" y="1710" width="490" height="260" as="geometry" />
          </mxCell>
        </object>
        <object placeholders="1" c4Name="Группа репликации" c4Type="ContainerScopeBoundary" c4Application="Container" label="&lt;font style=&quot;font-size: 16px&quot;&gt;&lt;b&gt;&lt;div style=&quot;text-align: left&quot;&gt;%c4Name%&lt;/div&gt;&lt;/b&gt;&lt;/font&gt;&lt;div style=&quot;text-align: left&quot;&gt;[%c4Application%]&lt;/div&gt;" id="VRF_6Nl9EiTcEPiYy6B--24">
          <mxCell style="rounded=1;fontSize=11;whiteSpace=wrap;html=1;dashed=1;arcSize=20;fillColor=none;strokeColor=#666666;fontColor=#333333;labelBackgroundColor=none;align=left;verticalAlign=bottom;labelBorderColor=none;spacingTop=0;spacing=10;dashPattern=8 4;metaEdit=1;rotatable=0;perimeter=rectanglePerimeter;noLabel=0;labelPadding=0;allowArrows=0;connectable=0;expand=0;recursiveResize=0;editable=1;pointerEvents=0;absoluteArcSize=1;points=[[0.25,0,0],[0.5,0,0],[0.75,0,0],[1,0.25,0],[1,0.5,0],[1,0.75,0],[0.75,1,0],[0.5,1,0],[0.25,1,0],[0,0.75,0],[0,0.5,0],[0,0.25,0]];" vertex="1" parent="VRF_6Nl9EiTcEPiYy6B--1">
            <mxGeometry x="410" y="1710" width="490" height="260" as="geometry" />
          </mxCell>
        </object>
        <mxCell id="VRF_6Nl9EiTcEPiYy6B--25" value="" style="edgeStyle=orthogonalEdgeStyle;rounded=1;orthogonalLoop=1;jettySize=auto;html=1;curved=0;strokeColor=#828282;endArrow=blockThin;endFill=1;startSize=14;endSize=14;jumpStyle=gap;startArrow=blockThin;startFill=1;dashed=1;" edge="1" parent="VRF_6Nl9EiTcEPiYy6B--1" source="VRF_6Nl9EiTcEPiYy6B--16" target="VRF_6Nl9EiTcEPiYy6B--12">
          <mxGeometry relative="1" as="geometry">
            <mxPoint x="310" y="1810" as="sourcePoint" />
            <mxPoint x="600" y="1810" as="targetPoint" />
            <Array as="points" />
          </mxGeometry>
        </mxCell>
        <object placeholders="1" c4Name="redis_3" c4Type="Cache" c4Technology="Redis" c4Description="Master&#xa;Mobile World Cache" label="&lt;font style=&quot;font-size: 16px&quot;&gt;&lt;b&gt;%c4Name%&lt;/b&gt;&lt;/font&gt;&lt;div&gt;[%c4Type%:&amp;nbsp;%c4Technology%]&lt;/div&gt;&lt;br&gt;&lt;div&gt;&lt;font style=&quot;font-size: 11px&quot;&gt;&lt;font color=&quot;#E6E6E6&quot;&gt;%c4Description%&lt;/font&gt;&lt;/div&gt;" id="VRF_6Nl9EiTcEPiYy6B--26">
          <mxCell style="shape=cylinder3;size=15;whiteSpace=wrap;html=1;boundedLbl=1;rounded=0;labelBackgroundColor=none;fillColor=#23A2D9;fontSize=12;fontColor=#ffffff;align=center;strokeColor=#0E7DAD;metaEdit=1;points=[[0.5,0,0],[1,0.25,0],[1,0.5,0],[1,0.75,0],[0.5,1,0],[0,0.75,0],[0,0.5,0],[0,0.25,0]];resizable=1;" vertex="1" parent="VRF_6Nl9EiTcEPiYy6B--1">
            <mxGeometry x="-26" y="1225" width="120" height="120" as="geometry" />
          </mxCell>
        </object>
        <object placeholders="1" c4Name="redis_2" c4Type="Cache" c4Technology="Redis" c4Description="Master&#xa;Mobile World Cache" label="&lt;font style=&quot;font-size: 16px&quot;&gt;&lt;b&gt;%c4Name%&lt;/b&gt;&lt;/font&gt;&lt;div&gt;[%c4Type%:&amp;nbsp;%c4Technology%]&lt;/div&gt;&lt;br&gt;&lt;div&gt;&lt;font style=&quot;font-size: 11px&quot;&gt;&lt;font color=&quot;#E6E6E6&quot;&gt;%c4Description%&lt;/font&gt;&lt;/div&gt;" id="VRF_6Nl9EiTcEPiYy6B--27">
          <mxCell style="shape=cylinder3;size=15;whiteSpace=wrap;html=1;boundedLbl=1;rounded=0;labelBackgroundColor=none;fillColor=#23A2D9;fontSize=12;fontColor=#ffffff;align=center;strokeColor=#0E7DAD;metaEdit=1;points=[[0.5,0,0],[1,0.25,0],[1,0.5,0],[1,0.75,0],[0.5,1,0],[0,0.75,0],[0,0.5,0],[0,0.25,0]];resizable=1;" vertex="1" parent="VRF_6Nl9EiTcEPiYy6B--1">
            <mxGeometry x="-198" y="1225" width="120" height="120" as="geometry" />
          </mxCell>
        </object>
        <object placeholders="1" c4Type="Relationship" c4Technology="Redis cache cluster aside" c4Description="Mobile world cache" label="&lt;div style=&quot;text-align: left&quot;&gt;&lt;div style=&quot;text-align: center&quot;&gt;&lt;b&gt;%c4Description%&lt;/b&gt;&lt;/div&gt;&lt;div style=&quot;text-align: center&quot;&gt;[%c4Technology%]&lt;/div&gt;&lt;/div&gt;" id="VRF_6Nl9EiTcEPiYy6B--28">
          <mxCell style="endArrow=blockThin;html=1;fontSize=10;fontColor=#404040;strokeWidth=1;endFill=1;strokeColor=#828282;elbow=vertical;metaEdit=1;endSize=14;startSize=14;jumpStyle=arc;jumpSize=16;rounded=1;edgeStyle=orthogonalEdgeStyle;curved=0;" edge="1" parent="VRF_6Nl9EiTcEPiYy6B--1" source="VRF_6Nl9EiTcEPiYy6B--42" target="VRF_6Nl9EiTcEPiYy6B--27">
            <mxGeometry x="-0.096" width="240" relative="1" as="geometry">
              <mxPoint x="438" y="1040" as="sourcePoint" />
              <mxPoint x="-220" y="1250" as="targetPoint" />
              <Array as="points">
                <mxPoint x="-130" y="885" />
              </Array>
              <mxPoint as="offset" />
            </mxGeometry>
          </mxCell>
        </object>
        <object placeholders="1" c4Name="redis_5" c4Type="Cache" c4Technology="Redis" c4Description="Slave&#xa;Mobile World Cache" label="&lt;font style=&quot;font-size: 16px&quot;&gt;&lt;b&gt;%c4Name%&lt;/b&gt;&lt;/font&gt;&lt;div&gt;[%c4Type%:&amp;nbsp;%c4Technology%]&lt;/div&gt;&lt;br&gt;&lt;div&gt;&lt;font style=&quot;font-size: 11px&quot;&gt;&lt;font color=&quot;#E6E6E6&quot;&gt;%c4Description%&lt;/font&gt;&lt;/div&gt;" id="VRF_6Nl9EiTcEPiYy6B--29">
          <mxCell style="shape=cylinder3;size=15;whiteSpace=wrap;html=1;boundedLbl=1;rounded=0;labelBackgroundColor=none;fillColor=#23A2D9;fontSize=12;fontColor=#ffffff;align=center;strokeColor=#0E7DAD;metaEdit=1;points=[[0.5,0,0],[1,0.25,0],[1,0.5,0],[1,0.75,0],[0.5,1,0],[0,0.75,0],[0,0.5,0],[0,0.25,0]];resizable=1;" vertex="1" parent="VRF_6Nl9EiTcEPiYy6B--1">
            <mxGeometry x="-370" y="1435" width="120" height="120" as="geometry" />
          </mxCell>
        </object>
        <object placeholders="1" c4Name="redis_6" c4Type="Cache" c4Technology="Redis" c4Description="Slave&#xa;Mobile World Cache" label="&lt;font style=&quot;font-size: 16px&quot;&gt;&lt;b&gt;%c4Name%&lt;/b&gt;&lt;/font&gt;&lt;div&gt;[%c4Type%:&amp;nbsp;%c4Technology%]&lt;/div&gt;&lt;br&gt;&lt;div&gt;&lt;font style=&quot;font-size: 11px&quot;&gt;&lt;font color=&quot;#E6E6E6&quot;&gt;%c4Description%&lt;/font&gt;&lt;/div&gt;" id="VRF_6Nl9EiTcEPiYy6B--30">
          <mxCell style="shape=cylinder3;size=15;whiteSpace=wrap;html=1;boundedLbl=1;rounded=0;labelBackgroundColor=none;fillColor=#23A2D9;fontSize=12;fontColor=#ffffff;align=center;strokeColor=#0E7DAD;metaEdit=1;points=[[0.5,0,0],[1,0.25,0],[1,0.5,0],[1,0.75,0],[0.5,1,0],[0,0.75,0],[0,0.5,0],[0,0.25,0]];resizable=1;" vertex="1" parent="VRF_6Nl9EiTcEPiYy6B--1">
            <mxGeometry x="-198" y="1435" width="120" height="120" as="geometry" />
          </mxCell>
        </object>
        <object placeholders="1" c4Name="redis_4" c4Type="Cache" c4Technology="Redis" c4Description="Slave&#xa;Mobile World Cache" label="&lt;font style=&quot;font-size: 16px&quot;&gt;&lt;b&gt;%c4Name%&lt;/b&gt;&lt;/font&gt;&lt;div&gt;[%c4Type%:&amp;nbsp;%c4Technology%]&lt;/div&gt;&lt;br&gt;&lt;div&gt;&lt;font style=&quot;font-size: 11px&quot;&gt;&lt;font color=&quot;#E6E6E6&quot;&gt;%c4Description%&lt;/font&gt;&lt;/div&gt;" id="VRF_6Nl9EiTcEPiYy6B--31">
          <mxCell style="shape=cylinder3;size=15;whiteSpace=wrap;html=1;boundedLbl=1;rounded=0;labelBackgroundColor=none;fillColor=#23A2D9;fontSize=12;fontColor=#ffffff;align=center;strokeColor=#0E7DAD;metaEdit=1;points=[[0.5,0,0],[1,0.25,0],[1,0.5,0],[1,0.75,0],[0.5,1,0],[0,0.75,0],[0,0.5,0],[0,0.25,0]];resizable=1;" vertex="1" parent="VRF_6Nl9EiTcEPiYy6B--1">
            <mxGeometry x="-26" y="1435" width="120" height="120" as="geometry" />
          </mxCell>
        </object>
        <mxCell id="VRF_6Nl9EiTcEPiYy6B--32" value="" style="edgeStyle=orthogonalEdgeStyle;rounded=1;orthogonalLoop=1;jettySize=auto;html=1;curved=0;strokeColor=#828282;endArrow=blockThin;endFill=1;startSize=14;endSize=14;jumpStyle=gap;" edge="1" parent="VRF_6Nl9EiTcEPiYy6B--1" source="VRF_6Nl9EiTcEPiYy6B--22" target="VRF_6Nl9EiTcEPiYy6B--29">
          <mxGeometry relative="1" as="geometry">
            <mxPoint x="-240" y="1685" as="sourcePoint" />
            <mxPoint x="-240" y="1750" as="targetPoint" />
          </mxGeometry>
        </mxCell>
        <mxCell id="VRF_6Nl9EiTcEPiYy6B--33" value="" style="edgeStyle=orthogonalEdgeStyle;rounded=1;orthogonalLoop=1;jettySize=auto;html=1;curved=0;strokeColor=#828282;endArrow=blockThin;endFill=1;startSize=14;endSize=14;jumpStyle=gap;" edge="1" parent="VRF_6Nl9EiTcEPiYy6B--1" source="VRF_6Nl9EiTcEPiYy6B--27" target="VRF_6Nl9EiTcEPiYy6B--30">
          <mxGeometry relative="1" as="geometry">
            <mxPoint x="-210" y="1405" as="sourcePoint" />
            <mxPoint x="-210" y="1495" as="targetPoint" />
          </mxGeometry>
        </mxCell>
        <mxCell id="VRF_6Nl9EiTcEPiYy6B--34" value="" style="edgeStyle=orthogonalEdgeStyle;rounded=1;orthogonalLoop=1;jettySize=auto;html=1;curved=0;strokeColor=#828282;endArrow=blockThin;endFill=1;startSize=14;endSize=14;jumpStyle=gap;" edge="1" parent="VRF_6Nl9EiTcEPiYy6B--1" source="VRF_6Nl9EiTcEPiYy6B--26" target="VRF_6Nl9EiTcEPiYy6B--31">
          <mxGeometry relative="1" as="geometry">
            <mxPoint x="-40" y="1375" as="sourcePoint" />
            <mxPoint x="-40" y="1465" as="targetPoint" />
          </mxGeometry>
        </mxCell>
        <mxCell id="VRF_6Nl9EiTcEPiYy6B--35" value="" style="edgeStyle=orthogonalEdgeStyle;rounded=1;orthogonalLoop=1;jettySize=auto;html=1;strokeColor=#828282;endArrow=none;endFill=0;startSize=14;endSize=14;jumpStyle=gap;dashed=1;" edge="1" parent="VRF_6Nl9EiTcEPiYy6B--1" source="VRF_6Nl9EiTcEPiYy6B--22" target="VRF_6Nl9EiTcEPiYy6B--30">
          <mxGeometry relative="1" as="geometry">
            <mxPoint x="-270" y="1364.9956410256411" as="sourcePoint" />
            <mxPoint x="-157.9743589743589" y="1514.97" as="targetPoint" />
            <Array as="points">
              <mxPoint x="-290" y="1405" />
              <mxPoint x="-160" y="1405" />
            </Array>
          </mxGeometry>
        </mxCell>
        <mxCell id="VRF_6Nl9EiTcEPiYy6B--36" value="" style="edgeStyle=orthogonalEdgeStyle;rounded=1;orthogonalLoop=1;jettySize=auto;html=1;strokeColor=#828282;endArrow=none;endFill=0;startSize=14;endSize=14;jumpStyle=gap;dashed=1;" edge="1" parent="VRF_6Nl9EiTcEPiYy6B--1" source="VRF_6Nl9EiTcEPiYy6B--22" target="VRF_6Nl9EiTcEPiYy6B--31">
          <mxGeometry relative="1" as="geometry">
            <mxPoint x="-180" y="1385" as="sourcePoint" />
            <mxPoint x="-20" y="1475" as="targetPoint" />
            <Array as="points">
              <mxPoint x="-290" y="1405" />
              <mxPoint x="10" y="1405" />
            </Array>
          </mxGeometry>
        </mxCell>
        <mxCell id="VRF_6Nl9EiTcEPiYy6B--37" value="" style="edgeStyle=orthogonalEdgeStyle;rounded=1;orthogonalLoop=1;jettySize=auto;html=1;strokeColor=#828282;endArrow=none;endFill=0;startSize=14;endSize=14;jumpStyle=gap;dashed=1;" edge="1" parent="VRF_6Nl9EiTcEPiYy6B--1" source="VRF_6Nl9EiTcEPiYy6B--27" target="VRF_6Nl9EiTcEPiYy6B--31">
          <mxGeometry relative="1" as="geometry">
            <mxPoint x="-100" y="1385" as="sourcePoint" />
            <mxPoint x="200" y="1475" as="targetPoint" />
            <Array as="points">
              <mxPoint x="-100" y="1375" />
              <mxPoint x="60" y="1375" />
            </Array>
          </mxGeometry>
        </mxCell>
        <mxCell id="VRF_6Nl9EiTcEPiYy6B--38" value="" style="edgeStyle=orthogonalEdgeStyle;rounded=1;orthogonalLoop=1;jettySize=auto;html=1;strokeColor=#828282;endArrow=none;endFill=0;startSize=14;endSize=14;jumpStyle=gap;dashed=1;" edge="1" parent="VRF_6Nl9EiTcEPiYy6B--1" source="VRF_6Nl9EiTcEPiYy6B--27" target="VRF_6Nl9EiTcEPiYy6B--29">
          <mxGeometry relative="1" as="geometry">
            <mxPoint x="-50" y="1375" as="sourcePoint" />
            <mxPoint x="110" y="1465" as="targetPoint" />
            <Array as="points">
              <mxPoint x="-180" y="1375" />
              <mxPoint x="-340" y="1375" />
            </Array>
          </mxGeometry>
        </mxCell>
        <mxCell id="VRF_6Nl9EiTcEPiYy6B--39" value="" style="edgeStyle=orthogonalEdgeStyle;rounded=1;orthogonalLoop=1;jettySize=auto;html=1;strokeColor=#828282;endArrow=none;endFill=0;startSize=14;endSize=14;jumpStyle=gap;dashed=1;" edge="1" parent="VRF_6Nl9EiTcEPiYy6B--1" source="VRF_6Nl9EiTcEPiYy6B--26" target="VRF_6Nl9EiTcEPiYy6B--29">
          <mxGeometry relative="1" as="geometry">
            <mxPoint x="-160" y="1405" as="sourcePoint" />
            <mxPoint x="-30" y="1495" as="targetPoint" />
            <Array as="points">
              <mxPoint x="10" y="1395" />
              <mxPoint x="-290" y="1395" />
            </Array>
          </mxGeometry>
        </mxCell>
        <mxCell id="VRF_6Nl9EiTcEPiYy6B--40" value="" style="edgeStyle=orthogonalEdgeStyle;rounded=1;orthogonalLoop=1;jettySize=auto;html=1;strokeColor=#828282;endArrow=none;endFill=0;startSize=14;endSize=14;jumpStyle=gap;dashed=1;" edge="1" parent="VRF_6Nl9EiTcEPiYy6B--1" source="VRF_6Nl9EiTcEPiYy6B--26" target="VRF_6Nl9EiTcEPiYy6B--30">
          <mxGeometry relative="1" as="geometry">
            <mxPoint x="270" y="1385" as="sourcePoint" />
            <mxPoint x="-30" y="1475" as="targetPoint" />
            <Array as="points">
              <mxPoint x="10" y="1395" />
              <mxPoint x="-116" y="1395" />
            </Array>
          </mxGeometry>
        </mxCell>
        <object placeholders="1" c4Name="Redis cluster" c4Type="ContainerScopeBoundary" c4Application="Container" label="&lt;font style=&quot;font-size: 16px&quot;&gt;&lt;b&gt;&lt;div style=&quot;text-align: left&quot;&gt;%c4Name%&lt;/div&gt;&lt;/b&gt;&lt;/font&gt;&lt;div style=&quot;text-align: left&quot;&gt;[%c4Application%]&lt;/div&gt;" id="VRF_6Nl9EiTcEPiYy6B--41">
          <mxCell style="rounded=1;fontSize=11;whiteSpace=wrap;html=1;dashed=1;arcSize=20;fillColor=none;strokeColor=#666666;fontColor=#333333;labelBackgroundColor=none;align=left;verticalAlign=bottom;labelBorderColor=none;spacingTop=0;spacing=10;dashPattern=8 4;metaEdit=1;rotatable=0;perimeter=rectanglePerimeter;noLabel=0;labelPadding=0;allowArrows=0;connectable=0;expand=0;recursiveResize=0;editable=1;pointerEvents=0;absoluteArcSize=1;points=[[0.25,0,0],[0.5,0,0],[0.75,0,0],[1,0.25,0],[1,0.5,0],[1,0.75,0],[0.75,1,0],[0.5,1,0],[0.25,1,0],[0,0.75,0],[0,0.5,0],[0,0.25,0]];" vertex="1" parent="VRF_6Nl9EiTcEPiYy6B--1">
            <mxGeometry x="-400" y="1180" width="520" height="420" as="geometry" />
          </mxCell>
        </object>
        <object placeholders="1" c4Name="pymongo-api_1" c4Type="Service" c4Technology="Python" c4Description="Mobile World API" label="&lt;font style=&quot;font-size: 16px&quot;&gt;&lt;b&gt;%c4Name%&lt;/b&gt;&lt;/font&gt;&lt;div&gt;[%c4Type%:&amp;nbsp;%c4Technology%]&lt;/div&gt;&lt;br&gt;&lt;div&gt;&lt;font style=&quot;font-size: 11px&quot;&gt;&lt;font color=&quot;#E6E6E6&quot;&gt;%c4Description%&lt;/font&gt;&lt;/div&gt;" id="VRF_6Nl9EiTcEPiYy6B--42">
          <mxCell style="shape=hexagon;size=50;perimeter=hexagonPerimeter2;whiteSpace=wrap;html=1;fixedSize=1;rounded=1;labelBackgroundColor=none;fillColor=#23A2D9;fontSize=12;fontColor=#ffffff;align=center;strokeColor=#0E7DAD;metaEdit=1;points=[[0.5,0,0],[1,0.25,0],[1,0.5,0],[1,0.75,0],[0.5,1,0],[0,0.75,0],[0,0.5,0],[0,0.25,0]];resizable=1;" vertex="1" parent="VRF_6Nl9EiTcEPiYy6B--1">
            <mxGeometry x="50" y="800" width="200" height="170" as="geometry" />
          </mxCell>
        </object>
        <object placeholders="1" c4Name="API Gateway" c4Type="Service" c4Technology="APISIX" c4Description="Mobile World API Gateway" label="&lt;font style=&quot;font-size: 16px&quot;&gt;&lt;b&gt;%c4Name%&lt;/b&gt;&lt;/font&gt;&lt;div&gt;[%c4Type%:&amp;nbsp;%c4Technology%]&lt;/div&gt;&lt;br&gt;&lt;div&gt;&lt;font style=&quot;font-size: 11px&quot;&gt;&lt;font color=&quot;#E6E6E6&quot;&gt;%c4Description%&lt;/font&gt;&lt;/div&gt;" id="VRF_6Nl9EiTcEPiYy6B--43">
          <mxCell style="shape=hexagon;size=50;perimeter=hexagonPerimeter2;whiteSpace=wrap;html=1;fixedSize=1;rounded=1;labelBackgroundColor=none;fillColor=#23A2D9;fontSize=12;fontColor=#ffffff;align=center;strokeColor=#0E7DAD;metaEdit=1;points=[[0.5,0,0],[1,0.25,0],[1,0.5,0],[1,0.75,0],[0.5,1,0],[0,0.75,0],[0,0.5,0],[0,0.25,0]];resizable=1;" vertex="1" parent="VRF_6Nl9EiTcEPiYy6B--1">
            <mxGeometry x="300" y="450" width="200" height="170" as="geometry" />
          </mxCell>
        </object>
        <object placeholders="1" c4Type="Relationship" c4Technology="REST API" c4Description="API Calls" label="&lt;div style=&quot;text-align: left&quot;&gt;&lt;div style=&quot;text-align: center&quot;&gt;&lt;b&gt;%c4Description%&lt;/b&gt;&lt;/div&gt;&lt;div style=&quot;text-align: center&quot;&gt;[%c4Technology%]&lt;/div&gt;&lt;/div&gt;" id="VRF_6Nl9EiTcEPiYy6B--44">
          <mxCell style="endArrow=blockThin;html=1;fontSize=10;fontColor=#404040;strokeWidth=1;endFill=1;strokeColor=#828282;elbow=vertical;metaEdit=1;endSize=14;startSize=14;jumpStyle=arc;jumpSize=16;rounded=1;edgeStyle=orthogonalEdgeStyle;curved=0;" edge="1" parent="VRF_6Nl9EiTcEPiYy6B--1" source="VRF_6Nl9EiTcEPiYy6B--43" target="VRF_6Nl9EiTcEPiYy6B--42">
            <mxGeometry x="-0.2093" width="240" relative="1" as="geometry">
              <mxPoint x="675" y="660" as="sourcePoint" />
              <mxPoint x="420" y="940" as="targetPoint" />
              <Array as="points">
                <mxPoint x="400" y="670" />
                <mxPoint x="150" y="670" />
              </Array>
              <mxPoint x="1" as="offset" />
            </mxGeometry>
          </mxCell>
        </object>
        <object placeholders="1" c4Type="Relationship" c4Technology="REST API" c4Description="API Calls" label="&lt;div style=&quot;text-align: left&quot;&gt;&lt;div style=&quot;text-align: center&quot;&gt;&lt;b&gt;%c4Description%&lt;/b&gt;&lt;/div&gt;&lt;div style=&quot;text-align: center&quot;&gt;[%c4Technology%]&lt;/div&gt;&lt;/div&gt;" id="VRF_6Nl9EiTcEPiYy6B--45">
          <mxCell style="endArrow=blockThin;html=1;fontSize=10;fontColor=#404040;strokeWidth=1;endFill=1;strokeColor=#828282;elbow=vertical;metaEdit=1;endSize=14;startSize=14;jumpStyle=arc;jumpSize=16;rounded=1;edgeStyle=orthogonalEdgeStyle;curved=0;" edge="1" parent="VRF_6Nl9EiTcEPiYy6B--1" source="VRF_6Nl9EiTcEPiYy6B--43" target="VRF_6Nl9EiTcEPiYy6B--3">
            <mxGeometry x="-0.1905" width="240" relative="1" as="geometry">
              <mxPoint x="580" y="660" as="sourcePoint" />
              <mxPoint x="330" y="840" as="targetPoint" />
              <Array as="points">
                <mxPoint x="400" y="670" />
                <mxPoint x="640" y="670" />
              </Array>
              <mxPoint x="1" as="offset" />
            </mxGeometry>
          </mxCell>
        </object>
        <object placeholders="1" c4Type="Relationship" c4Technology="PyMongo" c4Description="CRUD operations" label="&lt;div style=&quot;text-align: left&quot;&gt;&lt;div style=&quot;text-align: center&quot;&gt;&lt;b&gt;%c4Description%&lt;/b&gt;&lt;/div&gt;&lt;div style=&quot;text-align: center&quot;&gt;[%c4Technology%]&lt;/div&gt;&lt;/div&gt;" id="VRF_6Nl9EiTcEPiYy6B--46">
          <mxCell style="endArrow=blockThin;html=1;fontSize=10;fontColor=#404040;strokeWidth=1;endFill=1;strokeColor=#828282;elbow=vertical;metaEdit=1;endSize=14;startSize=14;jumpStyle=gap;jumpSize=16;rounded=1;edgeStyle=orthogonalEdgeStyle;curved=0;" edge="1" parent="VRF_6Nl9EiTcEPiYy6B--1" source="VRF_6Nl9EiTcEPiYy6B--42" target="VRF_6Nl9EiTcEPiYy6B--7">
            <mxGeometry x="0.04" width="240" relative="1" as="geometry">
              <mxPoint x="925" y="1080" as="sourcePoint" />
              <mxPoint x="650" y="1360" as="targetPoint" />
              <Array as="points">
                <mxPoint x="150" y="1130" />
                <mxPoint x="370" y="1130" />
              </Array>
              <mxPoint as="offset" />
            </mxGeometry>
          </mxCell>
        </object>
        <object placeholders="1" c4Type="Relationship" c4Technology="Redis cache cluster aside" c4Description="Mobile world cache" label="&lt;div style=&quot;text-align: left&quot;&gt;&lt;div style=&quot;text-align: center&quot;&gt;&lt;b&gt;%c4Description%&lt;/b&gt;&lt;/div&gt;&lt;div style=&quot;text-align: center&quot;&gt;[%c4Technology%]&lt;/div&gt;&lt;/div&gt;" id="VRF_6Nl9EiTcEPiYy6B--47">
          <mxCell style="endArrow=blockThin;html=1;fontSize=10;fontColor=#404040;strokeWidth=1;endFill=1;strokeColor=#828282;elbow=vertical;metaEdit=1;endSize=14;startSize=14;jumpStyle=gap;jumpSize=16;rounded=1;edgeStyle=orthogonalEdgeStyle;curved=0;" edge="1" parent="VRF_6Nl9EiTcEPiYy6B--1" source="VRF_6Nl9EiTcEPiYy6B--3" target="VRF_6Nl9EiTcEPiYy6B--27">
            <mxGeometry x="-0.5706" width="240" relative="1" as="geometry">
              <mxPoint x="592" y="930" as="sourcePoint" />
              <mxPoint x="-78" y="1270" as="targetPoint" />
              <Array as="points">
                <mxPoint x="380" y="885" />
                <mxPoint x="380" y="990" />
                <mxPoint x="-130" y="990" />
              </Array>
              <mxPoint as="offset" />
            </mxGeometry>
          </mxCell>
        </object>
        <object placeholders="1" c4Name="Consul" c4Type="Component" c4Technology="Service Discovery" c4Description="Consul" label="&lt;font style=&quot;font-size: 16px&quot;&gt;&lt;b&gt;%c4Name%&lt;/b&gt;&lt;/font&gt;&lt;div&gt;[%c4Type%: %c4Technology%]&lt;/div&gt;&lt;br&gt;&lt;div&gt;&lt;font style=&quot;font-size: 11px&quot;&gt;%c4Description%&lt;/font&gt;&lt;/div&gt;" id="VRF_6Nl9EiTcEPiYy6B--48">
          <mxCell style="rounded=1;whiteSpace=wrap;html=1;labelBackgroundColor=none;fillColor=#63BEF2;fontColor=#ffffff;align=center;arcSize=6;strokeColor=#2086C9;metaEdit=1;resizable=0;points=[[0.25,0,0],[0.5,0,0],[0.75,0,0],[1,0.25,0],[1,0.5,0],[1,0.75,0],[0.75,1,0],[0.5,1,0],[0.25,1,0],[0,0.75,0],[0,0.5,0],[0,0.25,0]];" vertex="1" parent="VRF_6Nl9EiTcEPiYy6B--1">
            <mxGeometry x="890" y="475" width="240" height="120" as="geometry" />
          </mxCell>
        </object>
        <mxCell id="VRF_6Nl9EiTcEPiYy6B--49" value="" style="edgeStyle=orthogonalEdgeStyle;rounded=1;orthogonalLoop=1;jettySize=auto;html=1;curved=0;strokeColor=#828282;endArrow=blockThin;endFill=1;startSize=14;endSize=14;jumpStyle=gap;dashed=1;" edge="1" parent="VRF_6Nl9EiTcEPiYy6B--1" source="VRF_6Nl9EiTcEPiYy6B--3" target="VRF_6Nl9EiTcEPiYy6B--48">
          <mxGeometry relative="1" as="geometry">
            <mxPoint x="730" y="790" as="sourcePoint" />
            <mxPoint x="730" y="855" as="targetPoint" />
            <Array as="points">
              <mxPoint x="710" y="750" />
              <mxPoint x="1010" y="750" />
            </Array>
          </mxGeometry>
        </mxCell>
        <mxCell id="VRF_6Nl9EiTcEPiYy6B--50" value="Метадата сервиса" style="edgeLabel;html=1;align=center;verticalAlign=middle;resizable=0;points=[];" vertex="1" connectable="0" parent="VRF_6Nl9EiTcEPiYy6B--49">
          <mxGeometry x="-0.8363" y="-1" relative="1" as="geometry">
            <mxPoint as="offset" />
          </mxGeometry>
        </mxCell>
        <mxCell id="VRF_6Nl9EiTcEPiYy6B--51" value="" style="edgeStyle=orthogonalEdgeStyle;rounded=1;orthogonalLoop=1;jettySize=auto;html=1;curved=0;strokeColor=#828282;endArrow=blockThin;endFill=1;startSize=14;endSize=14;jumpStyle=gap;dashed=1;" edge="1" parent="VRF_6Nl9EiTcEPiYy6B--1" source="VRF_6Nl9EiTcEPiYy6B--42" target="VRF_6Nl9EiTcEPiYy6B--48">
          <mxGeometry relative="1" as="geometry">
            <mxPoint x="870" y="1160" as="sourcePoint" />
            <mxPoint x="1140" y="870" as="targetPoint" />
            <Array as="points">
              <mxPoint x="220" y="750" />
              <mxPoint x="1010" y="750" />
            </Array>
          </mxGeometry>
        </mxCell>
        <mxCell id="VRF_6Nl9EiTcEPiYy6B--52" value="Метадата сервиса" style="edgeLabel;html=1;align=center;verticalAlign=middle;resizable=0;points=[];" vertex="1" connectable="0" parent="VRF_6Nl9EiTcEPiYy6B--51">
          <mxGeometry x="-0.9154" y="-5" relative="1" as="geometry">
            <mxPoint as="offset" />
          </mxGeometry>
        </mxCell>
        <mxCell id="VRF_6Nl9EiTcEPiYy6B--53" value="" style="edgeStyle=orthogonalEdgeStyle;rounded=1;orthogonalLoop=1;jettySize=auto;html=1;curved=0;strokeColor=#828282;endArrow=blockThin;endFill=1;startSize=14;endSize=14;jumpStyle=gap;" edge="1" parent="VRF_6Nl9EiTcEPiYy6B--1" source="VRF_6Nl9EiTcEPiYy6B--43" target="VRF_6Nl9EiTcEPiYy6B--48">
          <mxGeometry relative="1" as="geometry">
            <mxPoint x="580" y="620" as="sourcePoint" />
            <mxPoint x="1370" y="381" as="targetPoint" />
            <Array as="points">
              <mxPoint x="590" y="535" />
              <mxPoint x="590" y="535" />
            </Array>
          </mxGeometry>
        </mxCell>
        <mxCell id="VRF_6Nl9EiTcEPiYy6B--54" value="Информация о сервисах" style="edgeLabel;html=1;align=center;verticalAlign=middle;resizable=0;points=[];" vertex="1" connectable="0" parent="VRF_6Nl9EiTcEPiYy6B--53">
          <mxGeometry x="-0.1617" relative="1" as="geometry">
            <mxPoint as="offset" />
          </mxGeometry>
        </mxCell>
        <object placeholders="1" c4Name="Mobile World Site" c4Type="Web App" c4Technology="" c4Description="Mobile World Site" label="&lt;font style=&quot;font-size: 16px&quot;&gt;&lt;b&gt;%c4Name%&lt;/b&gt;&lt;/font&gt;&lt;div&gt;[%c4Type%:&amp;nbsp;%c4Technology%]&lt;/div&gt;&lt;br&gt;&lt;div&gt;&lt;font style=&quot;font-size: 11px&quot;&gt;&lt;font color=&quot;#E6E6E6&quot;&gt;%c4Description%&lt;/font&gt;&lt;/div&gt;" id="i_2C0gjBgP1kjsuO_zWL-0">
          <mxCell style="shape=mxgraph.c4.webBrowserContainer2;whiteSpace=wrap;html=1;boundedLbl=1;rounded=0;labelBackgroundColor=none;strokeColor=#118ACD;fillColor=#23A2D9;strokeColor=#118ACD;strokeColor2=#0E7DAD;fontSize=12;fontColor=#ffffff;align=center;metaEdit=1;points=[[0.5,0,0],[1,0.25,0],[1,0.5,0],[1,0.75,0],[0.5,1,0],[0,0.75,0],[0,0.5,0],[0,0.25,0]];resizable=0;" vertex="1" parent="VRF_6Nl9EiTcEPiYy6B--1">
            <mxGeometry x="280" y="30" width="240" height="160" as="geometry" />
          </mxCell>
        </object>
        <mxCell id="i_2C0gjBgP1kjsuO_zWL-1" value="Ближайший CDN" style="image;aspect=fixed;html=1;points=[];align=center;fontSize=12;image=img/lib/azure2/networking/CDN_Profiles.svg;" vertex="1" parent="VRF_6Nl9EiTcEPiYy6B--1">
          <mxGeometry x="-740" y="400" width="187" height="110" as="geometry" />
        </mxCell>
        <object placeholders="1" c4Type="Relationship" c4Technology="REST API" c4Description="API Calls" label="&lt;div style=&quot;text-align: left&quot;&gt;&lt;div style=&quot;text-align: center&quot;&gt;&lt;b&gt;%c4Description%&lt;/b&gt;&lt;/div&gt;&lt;div style=&quot;text-align: center&quot;&gt;[%c4Technology%]&lt;/div&gt;&lt;/div&gt;" id="i_2C0gjBgP1kjsuO_zWL-3">
          <mxCell style="endArrow=blockThin;html=1;fontSize=10;fontColor=#404040;strokeWidth=1;endFill=1;strokeColor=#828282;elbow=vertical;metaEdit=1;endSize=14;startSize=14;jumpStyle=arc;jumpSize=16;rounded=1;edgeStyle=orthogonalEdgeStyle;curved=0;" edge="1" parent="VRF_6Nl9EiTcEPiYy6B--1" source="i_2C0gjBgP1kjsuO_zWL-0" target="VRF_6Nl9EiTcEPiYy6B--43">
            <mxGeometry x="-0.1901" y="1" width="240" relative="1" as="geometry">
              <mxPoint x="590" y="490" as="sourcePoint" />
              <mxPoint x="830" y="670" as="targetPoint" />
              <Array as="points">
                <mxPoint x="400" y="330" />
                <mxPoint x="400" y="330" />
              </Array>
              <mxPoint as="offset" />
            </mxGeometry>
          </mxCell>
        </object>
        <object placeholders="1" c4Type="Relationship" c4Technology="CDN" c4Description="Static content" label="&lt;div style=&quot;text-align: left&quot;&gt;&lt;div style=&quot;text-align: center&quot;&gt;&lt;b&gt;%c4Description%&lt;/b&gt;&lt;/div&gt;&lt;div style=&quot;text-align: center&quot;&gt;[%c4Technology%]&lt;/div&gt;&lt;/div&gt;" id="i_2C0gjBgP1kjsuO_zWL-6">
          <mxCell style="endArrow=blockThin;html=1;fontSize=10;fontColor=#404040;strokeWidth=1;endFill=1;strokeColor=#828282;elbow=vertical;metaEdit=1;endSize=14;startSize=14;jumpStyle=arc;jumpSize=16;rounded=1;edgeStyle=orthogonalEdgeStyle;curved=0;" edge="1" parent="VRF_6Nl9EiTcEPiYy6B--1" source="i_2C0gjBgP1kjsuO_zWL-0" target="i_2C0gjBgP1kjsuO_zWL-8">
            <mxGeometry x="-0.1901" y="1" width="240" relative="1" as="geometry">
              <mxPoint x="70" y="460" as="sourcePoint" />
              <mxPoint x="-210" y="110" as="targetPoint" />
              <Array as="points">
                <mxPoint x="-230" y="120" />
              </Array>
              <mxPoint as="offset" />
            </mxGeometry>
          </mxCell>
        </object>
        <mxCell id="i_2C0gjBgP1kjsuO_zWL-8" value="Ближайший CDN" style="image;aspect=fixed;html=1;points=[];align=center;fontSize=12;image=img/lib/azure2/networking/CDN_Profiles.svg;" vertex="1" parent="VRF_6Nl9EiTcEPiYy6B--1">
          <mxGeometry x="-340" y="400" width="187" height="110" as="geometry" />
        </mxCell>
        <object placeholders="1" c4Type="Relationship" c4Technology="CDN" c4Description="Static content" label="&lt;div style=&quot;text-align: left&quot;&gt;&lt;div style=&quot;text-align: center&quot;&gt;&lt;b&gt;%c4Description%&lt;/b&gt;&lt;/div&gt;&lt;div style=&quot;text-align: center&quot;&gt;[%c4Technology%]&lt;/div&gt;&lt;/div&gt;" id="i_2C0gjBgP1kjsuO_zWL-10">
          <mxCell style="endArrow=blockThin;html=1;fontSize=10;fontColor=#404040;strokeWidth=1;endFill=1;strokeColor=#828282;elbow=vertical;metaEdit=1;endSize=14;startSize=14;jumpStyle=arc;jumpSize=16;rounded=1;edgeStyle=orthogonalEdgeStyle;curved=0;" edge="1" parent="VRF_6Nl9EiTcEPiYy6B--1" source="i_2C0gjBgP1kjsuO_zWL-8" target="i_2C0gjBgP1kjsuO_zWL-1">
            <mxGeometry x="-0.1901" y="1" width="240" relative="1" as="geometry">
              <mxPoint x="150" y="675" as="sourcePoint" />
              <mxPoint x="-360" y="1040" as="targetPoint" />
              <Array as="points">
                <mxPoint x="-320" y="455" />
                <mxPoint x="-320" y="455" />
              </Array>
              <mxPoint as="offset" />
            </mxGeometry>
          </mxCell>
        </object>
        <mxCell id="i_2C0gjBgP1kjsuO_zWL-11" value="Origin CDN" style="image;aspect=fixed;html=1;points=[];align=center;fontSize=12;image=img/lib/azure2/networking/CDN_Profiles.svg;" vertex="1" parent="VRF_6Nl9EiTcEPiYy6B--1">
          <mxGeometry x="-740" y="635" width="187" height="110" as="geometry" />
        </mxCell>
        <object placeholders="1" c4Type="Relationship" c4Technology="CDN" c4Description="Static content" label="&lt;div style=&quot;text-align: left&quot;&gt;&lt;div style=&quot;text-align: center&quot;&gt;&lt;b&gt;%c4Description%&lt;/b&gt;&lt;/div&gt;&lt;div style=&quot;text-align: center&quot;&gt;[%c4Technology%]&lt;/div&gt;&lt;/div&gt;" id="i_2C0gjBgP1kjsuO_zWL-12">
          <mxCell style="endArrow=blockThin;html=1;fontSize=10;fontColor=#404040;strokeWidth=1;endFill=1;strokeColor=#828282;elbow=vertical;metaEdit=1;endSize=14;startSize=14;jumpStyle=arc;jumpSize=16;rounded=1;edgeStyle=orthogonalEdgeStyle;curved=0;" edge="1" parent="VRF_6Nl9EiTcEPiYy6B--1" source="i_2C0gjBgP1kjsuO_zWL-1" target="i_2C0gjBgP1kjsuO_zWL-11">
            <mxGeometry x="-0.1901" y="1" width="240" relative="1" as="geometry">
              <mxPoint x="-257" y="465" as="sourcePoint" />
              <mxPoint x="-470" y="465" as="targetPoint" />
              <Array as="points" />
              <mxPoint as="offset" />
            </mxGeometry>
          </mxCell>
        </object>
        <object placeholders="1" c4Name="CDN" c4Type="ContainerScopeBoundary" c4Application="CDN" label="&lt;font style=&quot;font-size: 16px&quot;&gt;&lt;b&gt;&lt;div style=&quot;text-align: left&quot;&gt;%c4Name%&lt;/div&gt;&lt;/b&gt;&lt;/font&gt;&lt;div style=&quot;text-align: left&quot;&gt;[%c4Application%]&lt;/div&gt;" id="i_2C0gjBgP1kjsuO_zWL-13">
          <mxCell style="rounded=1;fontSize=11;whiteSpace=wrap;html=1;dashed=1;arcSize=20;fillColor=none;strokeColor=#666666;fontColor=#333333;labelBackgroundColor=none;align=left;verticalAlign=bottom;labelBorderColor=none;spacingTop=0;spacing=10;dashPattern=8 4;metaEdit=1;rotatable=0;perimeter=rectanglePerimeter;noLabel=0;labelPadding=0;allowArrows=0;connectable=0;expand=0;recursiveResize=0;editable=1;pointerEvents=0;absoluteArcSize=1;points=[[0.25,0,0],[0.5,0,0],[0.75,0,0],[1,0.25,0],[1,0.5,0],[1,0.75,0],[0.75,1,0],[0.5,1,0],[0.25,1,0],[0,0.75,0],[0,0.5,0],[0,0.25,0]];" vertex="1" parent="VRF_6Nl9EiTcEPiYy6B--1">
            <mxGeometry x="-800" y="300" width="690" height="520" as="geometry" />
          </mxCell>
        </object>
      </root>
    </mxGraphModel>
  </diagram>
  <diagram name="[4] API Gateway+Cache+Replication+Sharding " id="GFYqREtFH4vybCO7BSe6">
    <mxGraphModel dx="4118" dy="2257" grid="1" gridSize="10" guides="1" tooltips="1" connect="1" arrows="1" fold="1" page="1" pageScale="1" pageWidth="827" pageHeight="1169" math="0" shadow="0">
      <root>
        <mxCell id="I5Kk957CukuZ3_YLb2FX-0" />
        <mxCell id="I5Kk957CukuZ3_YLb2FX-1" parent="I5Kk957CukuZ3_YLb2FX-0" />
        <object placeholders="1" c4Name="Мобильный мир" c4Type="ContainerScopeBoundary" c4Application="Информационная система" label="&lt;font style=&quot;font-size: 16px&quot;&gt;&lt;b&gt;&lt;div style=&quot;text-align: left&quot;&gt;%c4Name%&lt;/div&gt;&lt;/b&gt;&lt;/font&gt;&lt;div style=&quot;text-align: left&quot;&gt;[%c4Application%]&lt;/div&gt;" id="I5Kk957CukuZ3_YLb2FX-2">
          <mxCell style="rounded=1;fontSize=11;whiteSpace=wrap;html=1;dashed=1;arcSize=20;fillColor=none;strokeColor=#666666;fontColor=#333333;labelBackgroundColor=none;align=left;verticalAlign=bottom;labelBorderColor=none;spacingTop=0;spacing=10;dashPattern=8 4;metaEdit=1;rotatable=0;perimeter=rectanglePerimeter;noLabel=0;labelPadding=0;allowArrows=0;connectable=0;expand=0;recursiveResize=0;editable=1;pointerEvents=0;absoluteArcSize=1;points=[[0.25,0,0],[0.5,0,0],[0.75,0,0],[1,0.25,0],[1,0.5,0],[1,0.75,0],[0.75,1,0],[0.5,1,0],[0.25,1,0],[0,0.75,0],[0,0.5,0],[0,0.25,0]];" vertex="1" parent="I5Kk957CukuZ3_YLb2FX-1">
            <mxGeometry x="-480" y="850" width="1630" height="1200" as="geometry" />
          </mxCell>
        </object>
        <object placeholders="1" c4Name="pymongo-api_2" c4Type="Service" c4Technology="Python" c4Description="Mobile World API" label="&lt;font style=&quot;font-size: 16px&quot;&gt;&lt;b&gt;%c4Name%&lt;/b&gt;&lt;/font&gt;&lt;div&gt;[%c4Type%:&amp;nbsp;%c4Technology%]&lt;/div&gt;&lt;br&gt;&lt;div&gt;&lt;font style=&quot;font-size: 11px&quot;&gt;&lt;font color=&quot;#E6E6E6&quot;&gt;%c4Description%&lt;/font&gt;&lt;/div&gt;" id="I5Kk957CukuZ3_YLb2FX-3">
          <mxCell style="shape=hexagon;size=50;perimeter=hexagonPerimeter2;whiteSpace=wrap;html=1;fixedSize=1;rounded=1;labelBackgroundColor=none;fillColor=#23A2D9;fontSize=12;fontColor=#ffffff;align=center;strokeColor=#0E7DAD;metaEdit=1;points=[[0.5,0,0],[1,0.25,0],[1,0.5,0],[1,0.75,0],[0.5,1,0],[0,0.75,0],[0,0.5,0],[0,0.25,0]];resizable=1;" vertex="1" parent="I5Kk957CukuZ3_YLb2FX-1">
            <mxGeometry x="540" y="800" width="200" height="170" as="geometry" />
          </mxCell>
        </object>
        <object placeholders="1" c4Name="mongos_router" c4Type="Component" c4Technology="MongoDB" c4Description="MongoDB Router" label="&lt;font style=&quot;font-size: 16px&quot;&gt;&lt;b&gt;%c4Name%&lt;/b&gt;&lt;/font&gt;&lt;div&gt;[%c4Type%: %c4Technology%]&lt;/div&gt;&lt;br&gt;&lt;div&gt;&lt;font style=&quot;font-size: 11px&quot;&gt;%c4Description%&lt;/font&gt;&lt;/div&gt;" id="I5Kk957CukuZ3_YLb2FX-4">
          <mxCell style="rounded=1;whiteSpace=wrap;html=1;labelBackgroundColor=none;fillColor=#63BEF2;fontColor=#ffffff;align=center;arcSize=6;strokeColor=#2086C9;metaEdit=1;resizable=0;points=[[0.25,0,0],[0.5,0,0],[0.75,0,0],[1,0.25,0],[1,0.5,0],[1,0.75,0],[0.75,1,0],[0.5,1,0],[0.25,1,0],[0,0.75,0],[0,0.5,0],[0,0.25,0]];" vertex="1" parent="I5Kk957CukuZ3_YLb2FX-1">
            <mxGeometry x="265" y="1435" width="240" height="120" as="geometry" />
          </mxCell>
        </object>
        <object placeholders="1" c4Type="Relationship" c4Technology="PyMongo" c4Description="CRUD operations" label="&lt;div style=&quot;text-align: left&quot;&gt;&lt;div style=&quot;text-align: center&quot;&gt;&lt;b&gt;%c4Description%&lt;/b&gt;&lt;/div&gt;&lt;div style=&quot;text-align: center&quot;&gt;[%c4Technology%]&lt;/div&gt;&lt;/div&gt;" id="I5Kk957CukuZ3_YLb2FX-5">
          <mxCell style="endArrow=blockThin;html=1;fontSize=10;fontColor=#404040;strokeWidth=1;endFill=1;strokeColor=#828282;elbow=vertical;metaEdit=1;endSize=14;startSize=14;jumpStyle=arc;jumpSize=16;rounded=1;edgeStyle=orthogonalEdgeStyle;curved=0;" edge="1" parent="I5Kk957CukuZ3_YLb2FX-1" source="I5Kk957CukuZ3_YLb2FX-3" target="I5Kk957CukuZ3_YLb2FX-7">
            <mxGeometry x="-0.0909" width="240" relative="1" as="geometry">
              <mxPoint x="380" y="1260" as="sourcePoint" />
              <mxPoint x="120" y="1450" as="targetPoint" />
              <Array as="points">
                <mxPoint x="640" y="1130" />
                <mxPoint x="400" y="1130" />
              </Array>
              <mxPoint as="offset" />
            </mxGeometry>
          </mxCell>
        </object>
        <mxCell id="I5Kk957CukuZ3_YLb2FX-6" value="" style="edgeStyle=orthogonalEdgeStyle;rounded=1;orthogonalLoop=1;jettySize=auto;html=1;curved=0;strokeColor=#828282;endArrow=blockThin;endFill=1;startSize=14;endSize=14;jumpStyle=gap;" edge="1" parent="I5Kk957CukuZ3_YLb2FX-1" source="I5Kk957CukuZ3_YLb2FX-7" target="I5Kk957CukuZ3_YLb2FX-4">
          <mxGeometry relative="1" as="geometry" />
        </mxCell>
        <object placeholders="1" c4Name="MongoDB Driver" c4Type="Component" c4Technology="MongoDB" c4Description="MongoDB Driver" label="&lt;font style=&quot;font-size: 16px&quot;&gt;&lt;b&gt;%c4Name%&lt;/b&gt;&lt;/font&gt;&lt;div&gt;[%c4Type%: %c4Technology%]&lt;/div&gt;&lt;br&gt;&lt;div&gt;&lt;font style=&quot;font-size: 11px&quot;&gt;%c4Description%&lt;/font&gt;&lt;/div&gt;" id="I5Kk957CukuZ3_YLb2FX-7">
          <mxCell style="rounded=1;whiteSpace=wrap;html=1;labelBackgroundColor=none;fillColor=#63BEF2;fontColor=#ffffff;align=center;arcSize=6;strokeColor=#2086C9;metaEdit=1;resizable=0;points=[[0.25,0,0],[0.5,0,0],[0.75,0,0],[1,0.25,0],[1,0.5,0],[1,0.75,0],[0.75,1,0],[0.5,1,0],[0.25,1,0],[0,0.75,0],[0,0.5,0],[0,0.25,0]];" vertex="1" parent="I5Kk957CukuZ3_YLb2FX-1">
            <mxGeometry x="265" y="1250" width="240" height="120" as="geometry" />
          </mxCell>
        </object>
        <mxCell id="I5Kk957CukuZ3_YLb2FX-8" value="" style="edgeStyle=orthogonalEdgeStyle;rounded=1;orthogonalLoop=1;jettySize=auto;html=1;curved=0;strokeColor=#828282;endArrow=blockThin;endFill=1;startSize=14;endSize=14;jumpStyle=gap;" edge="1" parent="I5Kk957CukuZ3_YLb2FX-1" source="I5Kk957CukuZ3_YLb2FX-4" target="I5Kk957CukuZ3_YLb2FX-16">
          <mxGeometry relative="1" as="geometry">
            <mxPoint x="380" y="1390" as="sourcePoint" />
            <mxPoint x="380" y="1455" as="targetPoint" />
            <Array as="points">
              <mxPoint x="385" y="1620" />
              <mxPoint x="130" y="1620" />
            </Array>
          </mxGeometry>
        </mxCell>
        <mxCell id="I5Kk957CukuZ3_YLb2FX-9" value="" style="group" vertex="1" connectable="0" parent="I5Kk957CukuZ3_YLb2FX-1">
          <mxGeometry x="420" y="1740" width="470" height="180" as="geometry" />
        </mxCell>
        <object placeholders="1" c4Name="shard1-2" c4Type="Database" c4Technology="MongoDB" c4Description="Slave" label="&lt;font style=&quot;font-size: 16px&quot;&gt;&lt;b&gt;%c4Name%&lt;/b&gt;&lt;/font&gt;&lt;div&gt;[%c4Type%:&amp;nbsp;%c4Technology%]&lt;/div&gt;&lt;br&gt;&lt;div&gt;&lt;font style=&quot;font-size: 11px&quot;&gt;&lt;font color=&quot;#E6E6E6&quot;&gt;%c4Description%&lt;/font&gt;&lt;/div&gt;" id="I5Kk957CukuZ3_YLb2FX-10">
          <mxCell style="shape=cylinder3;size=15;whiteSpace=wrap;html=1;boundedLbl=1;rounded=0;labelBackgroundColor=none;fillColor=#23A2D9;fontSize=12;fontColor=#ffffff;align=center;strokeColor=#0E7DAD;metaEdit=1;points=[[0.5,0,0],[1,0.25,0],[1,0.5,0],[1,0.75,0],[0.5,1,0],[0,0.75,0],[0,0.5,0],[0,0.25,0]];resizable=1;" vertex="1" parent="I5Kk957CukuZ3_YLb2FX-9">
            <mxGeometry x="230" y="70" width="240" height="110" as="geometry" />
          </mxCell>
        </object>
        <object placeholders="1" c4Name="shard1-2" c4Type="Database" c4Technology="MongoDB" c4Description="Slave" label="&lt;font style=&quot;font-size: 16px&quot;&gt;&lt;b&gt;%c4Name%&lt;/b&gt;&lt;/font&gt;&lt;div&gt;[%c4Type%:&amp;nbsp;%c4Technology%]&lt;/div&gt;&lt;br&gt;&lt;div&gt;&lt;font style=&quot;font-size: 11px&quot;&gt;&lt;font color=&quot;#E6E6E6&quot;&gt;%c4Description%&lt;/font&gt;&lt;/div&gt;" id="I5Kk957CukuZ3_YLb2FX-11">
          <mxCell style="shape=cylinder3;size=15;whiteSpace=wrap;html=1;boundedLbl=1;rounded=0;labelBackgroundColor=none;fillColor=#23A2D9;fontSize=12;fontColor=#ffffff;align=center;strokeColor=#0E7DAD;metaEdit=1;points=[[0.5,0,0],[1,0.25,0],[1,0.5,0],[1,0.75,0],[0.5,1,0],[0,0.75,0],[0,0.5,0],[0,0.25,0]];resizable=1;" vertex="1" parent="I5Kk957CukuZ3_YLb2FX-9">
            <mxGeometry y="70" width="240" height="110" as="geometry" />
          </mxCell>
        </object>
        <object placeholders="1" c4Name="shard1-2" c4Type="Database" c4Technology="MongoDB" c4Description="Master" label="&lt;font style=&quot;font-size: 16px&quot;&gt;&lt;b&gt;%c4Name%&lt;/b&gt;&lt;/font&gt;&lt;div&gt;[%c4Type%:&amp;nbsp;%c4Technology%]&lt;/div&gt;&lt;br&gt;&lt;div&gt;&lt;font style=&quot;font-size: 11px&quot;&gt;&lt;font color=&quot;#E6E6E6&quot;&gt;%c4Description%&lt;/font&gt;&lt;/div&gt;" id="I5Kk957CukuZ3_YLb2FX-12">
          <mxCell style="shape=cylinder3;size=15;whiteSpace=wrap;html=1;boundedLbl=1;rounded=0;labelBackgroundColor=none;fillColor=#23A2D9;fontSize=12;fontColor=#ffffff;align=center;strokeColor=#0E7DAD;metaEdit=1;points=[[0.5,0,0],[1,0.25,0],[1,0.5,0],[1,0.75,0],[0.5,1,0],[0,0.75,0],[0,0.5,0],[0,0.25,0]];resizable=1;" vertex="1" parent="I5Kk957CukuZ3_YLb2FX-9">
            <mxGeometry x="110" width="240" height="110" as="geometry" />
          </mxCell>
        </object>
        <mxCell id="I5Kk957CukuZ3_YLb2FX-13" value="" style="group" vertex="1" connectable="0" parent="I5Kk957CukuZ3_YLb2FX-1">
          <mxGeometry x="-110" y="1740" width="470" height="180" as="geometry" />
        </mxCell>
        <object placeholders="1" c4Name="shard1-1" c4Type="Database" c4Technology="MongoDB" c4Description="Slave" label="&lt;font style=&quot;font-size: 16px&quot;&gt;&lt;b&gt;%c4Name%&lt;/b&gt;&lt;/font&gt;&lt;div&gt;[%c4Type%:&amp;nbsp;%c4Technology%]&lt;/div&gt;&lt;br&gt;&lt;div&gt;&lt;font style=&quot;font-size: 11px&quot;&gt;&lt;font color=&quot;#E6E6E6&quot;&gt;%c4Description%&lt;/font&gt;&lt;/div&gt;" id="I5Kk957CukuZ3_YLb2FX-14">
          <mxCell style="shape=cylinder3;size=15;whiteSpace=wrap;html=1;boundedLbl=1;rounded=0;labelBackgroundColor=none;fillColor=#23A2D9;fontSize=12;fontColor=#ffffff;align=center;strokeColor=#0E7DAD;metaEdit=1;points=[[0.5,0,0],[1,0.25,0],[1,0.5,0],[1,0.75,0],[0.5,1,0],[0,0.75,0],[0,0.5,0],[0,0.25,0]];resizable=1;" vertex="1" parent="I5Kk957CukuZ3_YLb2FX-13">
            <mxGeometry x="230" y="70" width="240" height="110" as="geometry" />
          </mxCell>
        </object>
        <object placeholders="1" c4Name="shard1-1" c4Type="Database" c4Technology="MongoDB" c4Description="Slave" label="&lt;font style=&quot;font-size: 16px&quot;&gt;&lt;b&gt;%c4Name%&lt;/b&gt;&lt;/font&gt;&lt;div&gt;[%c4Type%:&amp;nbsp;%c4Technology%]&lt;/div&gt;&lt;br&gt;&lt;div&gt;&lt;font style=&quot;font-size: 11px&quot;&gt;&lt;font color=&quot;#E6E6E6&quot;&gt;%c4Description%&lt;/font&gt;&lt;/div&gt;" id="I5Kk957CukuZ3_YLb2FX-15">
          <mxCell style="shape=cylinder3;size=15;whiteSpace=wrap;html=1;boundedLbl=1;rounded=0;labelBackgroundColor=none;fillColor=#23A2D9;fontSize=12;fontColor=#ffffff;align=center;strokeColor=#0E7DAD;metaEdit=1;points=[[0.5,0,0],[1,0.25,0],[1,0.5,0],[1,0.75,0],[0.5,1,0],[0,0.75,0],[0,0.5,0],[0,0.25,0]];resizable=1;" vertex="1" parent="I5Kk957CukuZ3_YLb2FX-13">
            <mxGeometry y="70" width="240" height="110" as="geometry" />
          </mxCell>
        </object>
        <object placeholders="1" c4Name="shard1-1" c4Type="Database" c4Technology="MongoDB" c4Description="Master" label="&lt;font style=&quot;font-size: 16px&quot;&gt;&lt;b&gt;%c4Name%&lt;/b&gt;&lt;/font&gt;&lt;div&gt;[%c4Type%:&amp;nbsp;%c4Technology%]&lt;/div&gt;&lt;br&gt;&lt;div&gt;&lt;font style=&quot;font-size: 11px&quot;&gt;&lt;font color=&quot;#E6E6E6&quot;&gt;%c4Description%&lt;/font&gt;&lt;/div&gt;" id="I5Kk957CukuZ3_YLb2FX-16">
          <mxCell style="shape=cylinder3;size=15;whiteSpace=wrap;html=1;boundedLbl=1;rounded=0;labelBackgroundColor=none;fillColor=#23A2D9;fontSize=12;fontColor=#ffffff;align=center;strokeColor=#0E7DAD;metaEdit=1;points=[[0.5,0,0],[1,0.25,0],[1,0.5,0],[1,0.75,0],[0.5,1,0],[0,0.75,0],[0,0.5,0],[0,0.25,0]];resizable=1;" vertex="1" parent="I5Kk957CukuZ3_YLb2FX-13">
            <mxGeometry x="130" width="220" height="110" as="geometry" />
          </mxCell>
        </object>
        <mxCell id="I5Kk957CukuZ3_YLb2FX-17" value="" style="edgeStyle=orthogonalEdgeStyle;rounded=1;orthogonalLoop=1;jettySize=auto;html=1;curved=0;strokeColor=#828282;endArrow=blockThin;endFill=1;startSize=14;endSize=14;jumpStyle=gap;" edge="1" parent="I5Kk957CukuZ3_YLb2FX-1" source="I5Kk957CukuZ3_YLb2FX-4" target="I5Kk957CukuZ3_YLb2FX-20">
          <mxGeometry relative="1" as="geometry">
            <mxPoint x="630" y="1650" as="sourcePoint" />
            <mxPoint x="895" y="1835" as="targetPoint" />
            <Array as="points">
              <mxPoint x="780" y="1495" />
              <mxPoint x="780" y="1495" />
            </Array>
          </mxGeometry>
        </mxCell>
        <mxCell id="I5Kk957CukuZ3_YLb2FX-18" value="" style="edgeStyle=orthogonalEdgeStyle;rounded=1;orthogonalLoop=1;jettySize=auto;html=1;curved=0;strokeColor=#828282;endArrow=blockThin;endFill=1;startSize=14;endSize=14;jumpStyle=gap;" edge="1" parent="I5Kk957CukuZ3_YLb2FX-1" source="I5Kk957CukuZ3_YLb2FX-15" target="I5Kk957CukuZ3_YLb2FX-20">
          <mxGeometry relative="1" as="geometry">
            <mxPoint x="485" y="1620" as="sourcePoint" />
            <mxPoint x="440" y="2030" as="targetPoint" />
            <Array as="points">
              <mxPoint x="130" y="1990" />
              <mxPoint x="960" y="1990" />
            </Array>
          </mxGeometry>
        </mxCell>
        <mxCell id="I5Kk957CukuZ3_YLb2FX-19" value="" style="edgeStyle=orthogonalEdgeStyle;rounded=1;orthogonalLoop=1;jettySize=auto;html=1;curved=0;strokeColor=#828282;endArrow=blockThin;endFill=1;startSize=14;endSize=14;jumpStyle=gap;" edge="1" parent="I5Kk957CukuZ3_YLb2FX-1" source="I5Kk957CukuZ3_YLb2FX-11" target="I5Kk957CukuZ3_YLb2FX-20">
          <mxGeometry relative="1" as="geometry">
            <mxPoint x="530" y="2010" as="sourcePoint" />
            <mxPoint x="840" y="2120" as="targetPoint" />
            <Array as="points">
              <mxPoint x="660" y="1990" />
              <mxPoint x="960" y="1990" />
            </Array>
          </mxGeometry>
        </mxCell>
        <object placeholders="1" c4Name="configSrv" c4Type="Component" c4Technology="MongoDB" c4Description="MongoDB Configuration" label="&lt;font style=&quot;font-size: 16px&quot;&gt;&lt;b&gt;%c4Name%&lt;/b&gt;&lt;/font&gt;&lt;div&gt;[%c4Type%: %c4Technology%]&lt;/div&gt;&lt;br&gt;&lt;div&gt;&lt;font style=&quot;font-size: 11px&quot;&gt;%c4Description%&lt;/font&gt;&lt;/div&gt;" id="I5Kk957CukuZ3_YLb2FX-20">
          <mxCell style="rounded=1;whiteSpace=wrap;html=1;labelBackgroundColor=none;fillColor=#63BEF2;fontColor=#ffffff;align=center;arcSize=6;strokeColor=#2086C9;metaEdit=1;resizable=0;points=[[0.25,0,0],[0.5,0,0],[0.75,0,0],[1,0.25,0],[1,0.5,0],[1,0.75,0],[0.75,1,0],[0.5,1,0],[0.25,1,0],[0,0.75,0],[0,0.5,0],[0,0.25,0]];" vertex="1" parent="I5Kk957CukuZ3_YLb2FX-1">
            <mxGeometry x="840" y="1435" width="240" height="120" as="geometry" />
          </mxCell>
        </object>
        <object placeholders="1" c4Type="Relationship" c4Technology="{ &quot;name&quot; : &quot;hashed&quot; }" c4Description="ShardCollection" label="&lt;div style=&quot;text-align: left&quot;&gt;&lt;div style=&quot;text-align: center&quot;&gt;&lt;b&gt;%c4Description%&lt;/b&gt;&lt;/div&gt;&lt;div style=&quot;text-align: center&quot;&gt;[%c4Technology%]&lt;/div&gt;&lt;/div&gt;" id="I5Kk957CukuZ3_YLb2FX-21">
          <mxCell style="endArrow=blockThin;html=1;fontSize=10;fontColor=#404040;strokeWidth=1;endFill=1;strokeColor=#828282;elbow=vertical;metaEdit=1;endSize=14;startSize=14;jumpStyle=gap;jumpSize=16;rounded=1;edgeStyle=orthogonalEdgeStyle;curved=0;" edge="1" parent="I5Kk957CukuZ3_YLb2FX-1" source="I5Kk957CukuZ3_YLb2FX-4" target="I5Kk957CukuZ3_YLb2FX-12">
            <mxGeometry x="-0.8486" width="240" relative="1" as="geometry">
              <mxPoint x="520" y="1680" as="sourcePoint" />
              <mxPoint x="785" y="1865" as="targetPoint" />
              <Array as="points">
                <mxPoint x="385" y="1620" />
                <mxPoint x="650" y="1620" />
              </Array>
              <mxPoint as="offset" />
            </mxGeometry>
          </mxCell>
        </object>
        <object placeholders="1" c4Name="redis_1" c4Type="Cache" c4Technology="Redis" c4Description="Master&#xa;Mobile World Cache" label="&lt;font style=&quot;font-size: 16px&quot;&gt;&lt;b&gt;%c4Name%&lt;/b&gt;&lt;/font&gt;&lt;div&gt;[%c4Type%:&amp;nbsp;%c4Technology%]&lt;/div&gt;&lt;br&gt;&lt;div&gt;&lt;font style=&quot;font-size: 11px&quot;&gt;&lt;font color=&quot;#E6E6E6&quot;&gt;%c4Description%&lt;/font&gt;&lt;/div&gt;" id="I5Kk957CukuZ3_YLb2FX-22">
          <mxCell style="shape=cylinder3;size=15;whiteSpace=wrap;html=1;boundedLbl=1;rounded=0;labelBackgroundColor=none;fillColor=#23A2D9;fontSize=12;fontColor=#ffffff;align=center;strokeColor=#0E7DAD;metaEdit=1;points=[[0.5,0,0],[1,0.25,0],[1,0.5,0],[1,0.75,0],[0.5,1,0],[0,0.75,0],[0,0.5,0],[0,0.25,0]];resizable=1;" vertex="1" parent="I5Kk957CukuZ3_YLb2FX-1">
            <mxGeometry x="-370" y="1225" width="120" height="120" as="geometry" />
          </mxCell>
        </object>
        <object placeholders="1" c4Name="Группа репликации" c4Type="ContainerScopeBoundary" c4Application="Container" label="&lt;font style=&quot;font-size: 16px&quot;&gt;&lt;b&gt;&lt;div style=&quot;text-align: left&quot;&gt;%c4Name%&lt;/div&gt;&lt;/b&gt;&lt;/font&gt;&lt;div style=&quot;text-align: left&quot;&gt;[%c4Application%]&lt;/div&gt;" id="I5Kk957CukuZ3_YLb2FX-23">
          <mxCell style="rounded=1;fontSize=11;whiteSpace=wrap;html=1;dashed=1;arcSize=20;fillColor=none;strokeColor=#666666;fontColor=#333333;labelBackgroundColor=none;align=left;verticalAlign=bottom;labelBorderColor=none;spacingTop=0;spacing=10;dashPattern=8 4;metaEdit=1;rotatable=0;perimeter=rectanglePerimeter;noLabel=0;labelPadding=0;allowArrows=0;connectable=0;expand=0;recursiveResize=0;editable=1;pointerEvents=0;absoluteArcSize=1;points=[[0.25,0,0],[0.5,0,0],[0.75,0,0],[1,0.25,0],[1,0.5,0],[1,0.75,0],[0.75,1,0],[0.5,1,0],[0.25,1,0],[0,0.75,0],[0,0.5,0],[0,0.25,0]];" vertex="1" parent="I5Kk957CukuZ3_YLb2FX-1">
            <mxGeometry x="-120" y="1710" width="490" height="260" as="geometry" />
          </mxCell>
        </object>
        <object placeholders="1" c4Name="Группа репликации" c4Type="ContainerScopeBoundary" c4Application="Container" label="&lt;font style=&quot;font-size: 16px&quot;&gt;&lt;b&gt;&lt;div style=&quot;text-align: left&quot;&gt;%c4Name%&lt;/div&gt;&lt;/b&gt;&lt;/font&gt;&lt;div style=&quot;text-align: left&quot;&gt;[%c4Application%]&lt;/div&gt;" id="I5Kk957CukuZ3_YLb2FX-24">
          <mxCell style="rounded=1;fontSize=11;whiteSpace=wrap;html=1;dashed=1;arcSize=20;fillColor=none;strokeColor=#666666;fontColor=#333333;labelBackgroundColor=none;align=left;verticalAlign=bottom;labelBorderColor=none;spacingTop=0;spacing=10;dashPattern=8 4;metaEdit=1;rotatable=0;perimeter=rectanglePerimeter;noLabel=0;labelPadding=0;allowArrows=0;connectable=0;expand=0;recursiveResize=0;editable=1;pointerEvents=0;absoluteArcSize=1;points=[[0.25,0,0],[0.5,0,0],[0.75,0,0],[1,0.25,0],[1,0.5,0],[1,0.75,0],[0.75,1,0],[0.5,1,0],[0.25,1,0],[0,0.75,0],[0,0.5,0],[0,0.25,0]];" vertex="1" parent="I5Kk957CukuZ3_YLb2FX-1">
            <mxGeometry x="410" y="1710" width="490" height="260" as="geometry" />
          </mxCell>
        </object>
        <mxCell id="I5Kk957CukuZ3_YLb2FX-25" value="" style="edgeStyle=orthogonalEdgeStyle;rounded=1;orthogonalLoop=1;jettySize=auto;html=1;curved=0;strokeColor=#828282;endArrow=blockThin;endFill=1;startSize=14;endSize=14;jumpStyle=gap;startArrow=blockThin;startFill=1;dashed=1;" edge="1" parent="I5Kk957CukuZ3_YLb2FX-1" source="I5Kk957CukuZ3_YLb2FX-16" target="I5Kk957CukuZ3_YLb2FX-12">
          <mxGeometry relative="1" as="geometry">
            <mxPoint x="310" y="1810" as="sourcePoint" />
            <mxPoint x="600" y="1810" as="targetPoint" />
            <Array as="points" />
          </mxGeometry>
        </mxCell>
        <object placeholders="1" c4Name="redis_3" c4Type="Cache" c4Technology="Redis" c4Description="Master&#xa;Mobile World Cache" label="&lt;font style=&quot;font-size: 16px&quot;&gt;&lt;b&gt;%c4Name%&lt;/b&gt;&lt;/font&gt;&lt;div&gt;[%c4Type%:&amp;nbsp;%c4Technology%]&lt;/div&gt;&lt;br&gt;&lt;div&gt;&lt;font style=&quot;font-size: 11px&quot;&gt;&lt;font color=&quot;#E6E6E6&quot;&gt;%c4Description%&lt;/font&gt;&lt;/div&gt;" id="I5Kk957CukuZ3_YLb2FX-26">
          <mxCell style="shape=cylinder3;size=15;whiteSpace=wrap;html=1;boundedLbl=1;rounded=0;labelBackgroundColor=none;fillColor=#23A2D9;fontSize=12;fontColor=#ffffff;align=center;strokeColor=#0E7DAD;metaEdit=1;points=[[0.5,0,0],[1,0.25,0],[1,0.5,0],[1,0.75,0],[0.5,1,0],[0,0.75,0],[0,0.5,0],[0,0.25,0]];resizable=1;" vertex="1" parent="I5Kk957CukuZ3_YLb2FX-1">
            <mxGeometry x="-26" y="1225" width="120" height="120" as="geometry" />
          </mxCell>
        </object>
        <object placeholders="1" c4Name="redis_2" c4Type="Cache" c4Technology="Redis" c4Description="Master&#xa;Mobile World Cache" label="&lt;font style=&quot;font-size: 16px&quot;&gt;&lt;b&gt;%c4Name%&lt;/b&gt;&lt;/font&gt;&lt;div&gt;[%c4Type%:&amp;nbsp;%c4Technology%]&lt;/div&gt;&lt;br&gt;&lt;div&gt;&lt;font style=&quot;font-size: 11px&quot;&gt;&lt;font color=&quot;#E6E6E6&quot;&gt;%c4Description%&lt;/font&gt;&lt;/div&gt;" id="I5Kk957CukuZ3_YLb2FX-27">
          <mxCell style="shape=cylinder3;size=15;whiteSpace=wrap;html=1;boundedLbl=1;rounded=0;labelBackgroundColor=none;fillColor=#23A2D9;fontSize=12;fontColor=#ffffff;align=center;strokeColor=#0E7DAD;metaEdit=1;points=[[0.5,0,0],[1,0.25,0],[1,0.5,0],[1,0.75,0],[0.5,1,0],[0,0.75,0],[0,0.5,0],[0,0.25,0]];resizable=1;" vertex="1" parent="I5Kk957CukuZ3_YLb2FX-1">
            <mxGeometry x="-198" y="1225" width="120" height="120" as="geometry" />
          </mxCell>
        </object>
        <object placeholders="1" c4Type="Relationship" c4Technology="Redis cache cluster aside" c4Description="Mobile world cache" label="&lt;div style=&quot;text-align: left&quot;&gt;&lt;div style=&quot;text-align: center&quot;&gt;&lt;b&gt;%c4Description%&lt;/b&gt;&lt;/div&gt;&lt;div style=&quot;text-align: center&quot;&gt;[%c4Technology%]&lt;/div&gt;&lt;/div&gt;" id="I5Kk957CukuZ3_YLb2FX-28">
          <mxCell style="endArrow=blockThin;html=1;fontSize=10;fontColor=#404040;strokeWidth=1;endFill=1;strokeColor=#828282;elbow=vertical;metaEdit=1;endSize=14;startSize=14;jumpStyle=arc;jumpSize=16;rounded=1;edgeStyle=orthogonalEdgeStyle;curved=0;" edge="1" parent="I5Kk957CukuZ3_YLb2FX-1" source="mlxiBWi1_ivCxCKVipYP-0" target="I5Kk957CukuZ3_YLb2FX-27">
            <mxGeometry x="-0.096" width="240" relative="1" as="geometry">
              <mxPoint x="438" y="1040" as="sourcePoint" />
              <mxPoint x="-220" y="1250" as="targetPoint" />
              <Array as="points">
                <mxPoint x="-130" y="885" />
              </Array>
              <mxPoint as="offset" />
            </mxGeometry>
          </mxCell>
        </object>
        <object placeholders="1" c4Name="redis_5" c4Type="Cache" c4Technology="Redis" c4Description="Slave&#xa;Mobile World Cache" label="&lt;font style=&quot;font-size: 16px&quot;&gt;&lt;b&gt;%c4Name%&lt;/b&gt;&lt;/font&gt;&lt;div&gt;[%c4Type%:&amp;nbsp;%c4Technology%]&lt;/div&gt;&lt;br&gt;&lt;div&gt;&lt;font style=&quot;font-size: 11px&quot;&gt;&lt;font color=&quot;#E6E6E6&quot;&gt;%c4Description%&lt;/font&gt;&lt;/div&gt;" id="I5Kk957CukuZ3_YLb2FX-29">
          <mxCell style="shape=cylinder3;size=15;whiteSpace=wrap;html=1;boundedLbl=1;rounded=0;labelBackgroundColor=none;fillColor=#23A2D9;fontSize=12;fontColor=#ffffff;align=center;strokeColor=#0E7DAD;metaEdit=1;points=[[0.5,0,0],[1,0.25,0],[1,0.5,0],[1,0.75,0],[0.5,1,0],[0,0.75,0],[0,0.5,0],[0,0.25,0]];resizable=1;" vertex="1" parent="I5Kk957CukuZ3_YLb2FX-1">
            <mxGeometry x="-370" y="1435" width="120" height="120" as="geometry" />
          </mxCell>
        </object>
        <object placeholders="1" c4Name="redis_6" c4Type="Cache" c4Technology="Redis" c4Description="Slave&#xa;Mobile World Cache" label="&lt;font style=&quot;font-size: 16px&quot;&gt;&lt;b&gt;%c4Name%&lt;/b&gt;&lt;/font&gt;&lt;div&gt;[%c4Type%:&amp;nbsp;%c4Technology%]&lt;/div&gt;&lt;br&gt;&lt;div&gt;&lt;font style=&quot;font-size: 11px&quot;&gt;&lt;font color=&quot;#E6E6E6&quot;&gt;%c4Description%&lt;/font&gt;&lt;/div&gt;" id="I5Kk957CukuZ3_YLb2FX-30">
          <mxCell style="shape=cylinder3;size=15;whiteSpace=wrap;html=1;boundedLbl=1;rounded=0;labelBackgroundColor=none;fillColor=#23A2D9;fontSize=12;fontColor=#ffffff;align=center;strokeColor=#0E7DAD;metaEdit=1;points=[[0.5,0,0],[1,0.25,0],[1,0.5,0],[1,0.75,0],[0.5,1,0],[0,0.75,0],[0,0.5,0],[0,0.25,0]];resizable=1;" vertex="1" parent="I5Kk957CukuZ3_YLb2FX-1">
            <mxGeometry x="-198" y="1435" width="120" height="120" as="geometry" />
          </mxCell>
        </object>
        <object placeholders="1" c4Name="redis_4" c4Type="Cache" c4Technology="Redis" c4Description="Slave&#xa;Mobile World Cache" label="&lt;font style=&quot;font-size: 16px&quot;&gt;&lt;b&gt;%c4Name%&lt;/b&gt;&lt;/font&gt;&lt;div&gt;[%c4Type%:&amp;nbsp;%c4Technology%]&lt;/div&gt;&lt;br&gt;&lt;div&gt;&lt;font style=&quot;font-size: 11px&quot;&gt;&lt;font color=&quot;#E6E6E6&quot;&gt;%c4Description%&lt;/font&gt;&lt;/div&gt;" id="I5Kk957CukuZ3_YLb2FX-31">
          <mxCell style="shape=cylinder3;size=15;whiteSpace=wrap;html=1;boundedLbl=1;rounded=0;labelBackgroundColor=none;fillColor=#23A2D9;fontSize=12;fontColor=#ffffff;align=center;strokeColor=#0E7DAD;metaEdit=1;points=[[0.5,0,0],[1,0.25,0],[1,0.5,0],[1,0.75,0],[0.5,1,0],[0,0.75,0],[0,0.5,0],[0,0.25,0]];resizable=1;" vertex="1" parent="I5Kk957CukuZ3_YLb2FX-1">
            <mxGeometry x="-26" y="1435" width="120" height="120" as="geometry" />
          </mxCell>
        </object>
        <mxCell id="I5Kk957CukuZ3_YLb2FX-32" value="" style="edgeStyle=orthogonalEdgeStyle;rounded=1;orthogonalLoop=1;jettySize=auto;html=1;curved=0;strokeColor=#828282;endArrow=blockThin;endFill=1;startSize=14;endSize=14;jumpStyle=gap;" edge="1" parent="I5Kk957CukuZ3_YLb2FX-1" source="I5Kk957CukuZ3_YLb2FX-22" target="I5Kk957CukuZ3_YLb2FX-29">
          <mxGeometry relative="1" as="geometry">
            <mxPoint x="-240" y="1685" as="sourcePoint" />
            <mxPoint x="-240" y="1750" as="targetPoint" />
          </mxGeometry>
        </mxCell>
        <mxCell id="I5Kk957CukuZ3_YLb2FX-33" value="" style="edgeStyle=orthogonalEdgeStyle;rounded=1;orthogonalLoop=1;jettySize=auto;html=1;curved=0;strokeColor=#828282;endArrow=blockThin;endFill=1;startSize=14;endSize=14;jumpStyle=gap;" edge="1" parent="I5Kk957CukuZ3_YLb2FX-1" source="I5Kk957CukuZ3_YLb2FX-27" target="I5Kk957CukuZ3_YLb2FX-30">
          <mxGeometry relative="1" as="geometry">
            <mxPoint x="-210" y="1405" as="sourcePoint" />
            <mxPoint x="-210" y="1495" as="targetPoint" />
          </mxGeometry>
        </mxCell>
        <mxCell id="I5Kk957CukuZ3_YLb2FX-34" value="" style="edgeStyle=orthogonalEdgeStyle;rounded=1;orthogonalLoop=1;jettySize=auto;html=1;curved=0;strokeColor=#828282;endArrow=blockThin;endFill=1;startSize=14;endSize=14;jumpStyle=gap;" edge="1" parent="I5Kk957CukuZ3_YLb2FX-1" source="I5Kk957CukuZ3_YLb2FX-26" target="I5Kk957CukuZ3_YLb2FX-31">
          <mxGeometry relative="1" as="geometry">
            <mxPoint x="-40" y="1375" as="sourcePoint" />
            <mxPoint x="-40" y="1465" as="targetPoint" />
          </mxGeometry>
        </mxCell>
        <mxCell id="I5Kk957CukuZ3_YLb2FX-35" value="" style="edgeStyle=orthogonalEdgeStyle;rounded=1;orthogonalLoop=1;jettySize=auto;html=1;strokeColor=#828282;endArrow=none;endFill=0;startSize=14;endSize=14;jumpStyle=gap;dashed=1;" edge="1" parent="I5Kk957CukuZ3_YLb2FX-1" source="I5Kk957CukuZ3_YLb2FX-22" target="I5Kk957CukuZ3_YLb2FX-30">
          <mxGeometry relative="1" as="geometry">
            <mxPoint x="-270" y="1364.9956410256411" as="sourcePoint" />
            <mxPoint x="-157.9743589743589" y="1514.97" as="targetPoint" />
            <Array as="points">
              <mxPoint x="-290" y="1405" />
              <mxPoint x="-160" y="1405" />
            </Array>
          </mxGeometry>
        </mxCell>
        <mxCell id="I5Kk957CukuZ3_YLb2FX-36" value="" style="edgeStyle=orthogonalEdgeStyle;rounded=1;orthogonalLoop=1;jettySize=auto;html=1;strokeColor=#828282;endArrow=none;endFill=0;startSize=14;endSize=14;jumpStyle=gap;dashed=1;" edge="1" parent="I5Kk957CukuZ3_YLb2FX-1" source="I5Kk957CukuZ3_YLb2FX-22" target="I5Kk957CukuZ3_YLb2FX-31">
          <mxGeometry relative="1" as="geometry">
            <mxPoint x="-180" y="1385" as="sourcePoint" />
            <mxPoint x="-20" y="1475" as="targetPoint" />
            <Array as="points">
              <mxPoint x="-290" y="1405" />
              <mxPoint x="10" y="1405" />
            </Array>
          </mxGeometry>
        </mxCell>
        <mxCell id="I5Kk957CukuZ3_YLb2FX-37" value="" style="edgeStyle=orthogonalEdgeStyle;rounded=1;orthogonalLoop=1;jettySize=auto;html=1;strokeColor=#828282;endArrow=none;endFill=0;startSize=14;endSize=14;jumpStyle=gap;dashed=1;" edge="1" parent="I5Kk957CukuZ3_YLb2FX-1" source="I5Kk957CukuZ3_YLb2FX-27" target="I5Kk957CukuZ3_YLb2FX-31">
          <mxGeometry relative="1" as="geometry">
            <mxPoint x="-100" y="1385" as="sourcePoint" />
            <mxPoint x="200" y="1475" as="targetPoint" />
            <Array as="points">
              <mxPoint x="-100" y="1375" />
              <mxPoint x="60" y="1375" />
            </Array>
          </mxGeometry>
        </mxCell>
        <mxCell id="I5Kk957CukuZ3_YLb2FX-38" value="" style="edgeStyle=orthogonalEdgeStyle;rounded=1;orthogonalLoop=1;jettySize=auto;html=1;strokeColor=#828282;endArrow=none;endFill=0;startSize=14;endSize=14;jumpStyle=gap;dashed=1;" edge="1" parent="I5Kk957CukuZ3_YLb2FX-1" source="I5Kk957CukuZ3_YLb2FX-27" target="I5Kk957CukuZ3_YLb2FX-29">
          <mxGeometry relative="1" as="geometry">
            <mxPoint x="-50" y="1375" as="sourcePoint" />
            <mxPoint x="110" y="1465" as="targetPoint" />
            <Array as="points">
              <mxPoint x="-180" y="1375" />
              <mxPoint x="-340" y="1375" />
            </Array>
          </mxGeometry>
        </mxCell>
        <mxCell id="I5Kk957CukuZ3_YLb2FX-39" value="" style="edgeStyle=orthogonalEdgeStyle;rounded=1;orthogonalLoop=1;jettySize=auto;html=1;strokeColor=#828282;endArrow=none;endFill=0;startSize=14;endSize=14;jumpStyle=gap;dashed=1;" edge="1" parent="I5Kk957CukuZ3_YLb2FX-1" source="I5Kk957CukuZ3_YLb2FX-26" target="I5Kk957CukuZ3_YLb2FX-29">
          <mxGeometry relative="1" as="geometry">
            <mxPoint x="-160" y="1405" as="sourcePoint" />
            <mxPoint x="-30" y="1495" as="targetPoint" />
            <Array as="points">
              <mxPoint x="10" y="1395" />
              <mxPoint x="-290" y="1395" />
            </Array>
          </mxGeometry>
        </mxCell>
        <mxCell id="I5Kk957CukuZ3_YLb2FX-40" value="" style="edgeStyle=orthogonalEdgeStyle;rounded=1;orthogonalLoop=1;jettySize=auto;html=1;strokeColor=#828282;endArrow=none;endFill=0;startSize=14;endSize=14;jumpStyle=gap;dashed=1;" edge="1" parent="I5Kk957CukuZ3_YLb2FX-1" source="I5Kk957CukuZ3_YLb2FX-26" target="I5Kk957CukuZ3_YLb2FX-30">
          <mxGeometry relative="1" as="geometry">
            <mxPoint x="270" y="1385" as="sourcePoint" />
            <mxPoint x="-30" y="1475" as="targetPoint" />
            <Array as="points">
              <mxPoint x="10" y="1395" />
              <mxPoint x="-116" y="1395" />
            </Array>
          </mxGeometry>
        </mxCell>
        <object placeholders="1" c4Name="Redis cluster" c4Type="ContainerScopeBoundary" c4Application="Container" label="&lt;font style=&quot;font-size: 16px&quot;&gt;&lt;b&gt;&lt;div style=&quot;text-align: left&quot;&gt;%c4Name%&lt;/div&gt;&lt;/b&gt;&lt;/font&gt;&lt;div style=&quot;text-align: left&quot;&gt;[%c4Application%]&lt;/div&gt;" id="I5Kk957CukuZ3_YLb2FX-41">
          <mxCell style="rounded=1;fontSize=11;whiteSpace=wrap;html=1;dashed=1;arcSize=20;fillColor=none;strokeColor=#666666;fontColor=#333333;labelBackgroundColor=none;align=left;verticalAlign=bottom;labelBorderColor=none;spacingTop=0;spacing=10;dashPattern=8 4;metaEdit=1;rotatable=0;perimeter=rectanglePerimeter;noLabel=0;labelPadding=0;allowArrows=0;connectable=0;expand=0;recursiveResize=0;editable=1;pointerEvents=0;absoluteArcSize=1;points=[[0.25,0,0],[0.5,0,0],[0.75,0,0],[1,0.25,0],[1,0.5,0],[1,0.75,0],[0.75,1,0],[0.5,1,0],[0.25,1,0],[0,0.75,0],[0,0.5,0],[0,0.25,0]];" vertex="1" parent="I5Kk957CukuZ3_YLb2FX-1">
            <mxGeometry x="-400" y="1180" width="520" height="420" as="geometry" />
          </mxCell>
        </object>
        <object placeholders="1" c4Name="pymongo-api_1" c4Type="Service" c4Technology="Python" c4Description="Mobile World API" label="&lt;font style=&quot;font-size: 16px&quot;&gt;&lt;b&gt;%c4Name%&lt;/b&gt;&lt;/font&gt;&lt;div&gt;[%c4Type%:&amp;nbsp;%c4Technology%]&lt;/div&gt;&lt;br&gt;&lt;div&gt;&lt;font style=&quot;font-size: 11px&quot;&gt;&lt;font color=&quot;#E6E6E6&quot;&gt;%c4Description%&lt;/font&gt;&lt;/div&gt;" id="mlxiBWi1_ivCxCKVipYP-0">
          <mxCell style="shape=hexagon;size=50;perimeter=hexagonPerimeter2;whiteSpace=wrap;html=1;fixedSize=1;rounded=1;labelBackgroundColor=none;fillColor=#23A2D9;fontSize=12;fontColor=#ffffff;align=center;strokeColor=#0E7DAD;metaEdit=1;points=[[0.5,0,0],[1,0.25,0],[1,0.5,0],[1,0.75,0],[0.5,1,0],[0,0.75,0],[0,0.5,0],[0,0.25,0]];resizable=1;" vertex="1" parent="I5Kk957CukuZ3_YLb2FX-1">
            <mxGeometry x="50" y="800" width="200" height="170" as="geometry" />
          </mxCell>
        </object>
        <object placeholders="1" c4Name="API Gateway" c4Type="Service" c4Technology="APISIX" c4Description="Mobile World API Gateway" label="&lt;font style=&quot;font-size: 16px&quot;&gt;&lt;b&gt;%c4Name%&lt;/b&gt;&lt;/font&gt;&lt;div&gt;[%c4Type%:&amp;nbsp;%c4Technology%]&lt;/div&gt;&lt;br&gt;&lt;div&gt;&lt;font style=&quot;font-size: 11px&quot;&gt;&lt;font color=&quot;#E6E6E6&quot;&gt;%c4Description%&lt;/font&gt;&lt;/div&gt;" id="mlxiBWi1_ivCxCKVipYP-2">
          <mxCell style="shape=hexagon;size=50;perimeter=hexagonPerimeter2;whiteSpace=wrap;html=1;fixedSize=1;rounded=1;labelBackgroundColor=none;fillColor=#23A2D9;fontSize=12;fontColor=#ffffff;align=center;strokeColor=#0E7DAD;metaEdit=1;points=[[0.5,0,0],[1,0.25,0],[1,0.5,0],[1,0.75,0],[0.5,1,0],[0,0.75,0],[0,0.5,0],[0,0.25,0]];resizable=1;" vertex="1" parent="I5Kk957CukuZ3_YLb2FX-1">
            <mxGeometry x="300" y="450" width="200" height="170" as="geometry" />
          </mxCell>
        </object>
        <object placeholders="1" c4Type="Relationship" c4Technology="REST API" c4Description="API Calls" label="&lt;div style=&quot;text-align: left&quot;&gt;&lt;div style=&quot;text-align: center&quot;&gt;&lt;b&gt;%c4Description%&lt;/b&gt;&lt;/div&gt;&lt;div style=&quot;text-align: center&quot;&gt;[%c4Technology%]&lt;/div&gt;&lt;/div&gt;" id="JOtDiHmGdR48ClcDNry9-1">
          <mxCell style="endArrow=blockThin;html=1;fontSize=10;fontColor=#404040;strokeWidth=1;endFill=1;strokeColor=#828282;elbow=vertical;metaEdit=1;endSize=14;startSize=14;jumpStyle=arc;jumpSize=16;rounded=1;edgeStyle=orthogonalEdgeStyle;curved=0;" edge="1" parent="I5Kk957CukuZ3_YLb2FX-1" source="mlxiBWi1_ivCxCKVipYP-2" target="mlxiBWi1_ivCxCKVipYP-0">
            <mxGeometry x="-0.2093" width="240" relative="1" as="geometry">
              <mxPoint x="675" y="660" as="sourcePoint" />
              <mxPoint x="420" y="940" as="targetPoint" />
              <Array as="points">
                <mxPoint x="400" y="670" />
                <mxPoint x="150" y="670" />
              </Array>
              <mxPoint x="1" as="offset" />
            </mxGeometry>
          </mxCell>
        </object>
        <object placeholders="1" c4Type="Relationship" c4Technology="REST API" c4Description="API Calls" label="&lt;div style=&quot;text-align: left&quot;&gt;&lt;div style=&quot;text-align: center&quot;&gt;&lt;b&gt;%c4Description%&lt;/b&gt;&lt;/div&gt;&lt;div style=&quot;text-align: center&quot;&gt;[%c4Technology%]&lt;/div&gt;&lt;/div&gt;" id="JOtDiHmGdR48ClcDNry9-4">
          <mxCell style="endArrow=blockThin;html=1;fontSize=10;fontColor=#404040;strokeWidth=1;endFill=1;strokeColor=#828282;elbow=vertical;metaEdit=1;endSize=14;startSize=14;jumpStyle=arc;jumpSize=16;rounded=1;edgeStyle=orthogonalEdgeStyle;curved=0;" edge="1" parent="I5Kk957CukuZ3_YLb2FX-1" source="mlxiBWi1_ivCxCKVipYP-2" target="I5Kk957CukuZ3_YLb2FX-3">
            <mxGeometry x="-0.1905" width="240" relative="1" as="geometry">
              <mxPoint x="580" y="660" as="sourcePoint" />
              <mxPoint x="330" y="840" as="targetPoint" />
              <Array as="points">
                <mxPoint x="400" y="670" />
                <mxPoint x="640" y="670" />
              </Array>
              <mxPoint x="1" as="offset" />
            </mxGeometry>
          </mxCell>
        </object>
        <object placeholders="1" c4Type="Relationship" c4Technology="PyMongo" c4Description="CRUD operations" label="&lt;div style=&quot;text-align: left&quot;&gt;&lt;div style=&quot;text-align: center&quot;&gt;&lt;b&gt;%c4Description%&lt;/b&gt;&lt;/div&gt;&lt;div style=&quot;text-align: center&quot;&gt;[%c4Technology%]&lt;/div&gt;&lt;/div&gt;" id="JOtDiHmGdR48ClcDNry9-0">
          <mxCell style="endArrow=blockThin;html=1;fontSize=10;fontColor=#404040;strokeWidth=1;endFill=1;strokeColor=#828282;elbow=vertical;metaEdit=1;endSize=14;startSize=14;jumpStyle=gap;jumpSize=16;rounded=1;edgeStyle=orthogonalEdgeStyle;curved=0;" edge="1" parent="I5Kk957CukuZ3_YLb2FX-1" source="mlxiBWi1_ivCxCKVipYP-0" target="I5Kk957CukuZ3_YLb2FX-7">
            <mxGeometry x="0.04" width="240" relative="1" as="geometry">
              <mxPoint x="925" y="1080" as="sourcePoint" />
              <mxPoint x="650" y="1360" as="targetPoint" />
              <Array as="points">
                <mxPoint x="150" y="1130" />
                <mxPoint x="370" y="1130" />
              </Array>
              <mxPoint as="offset" />
            </mxGeometry>
          </mxCell>
        </object>
        <object placeholders="1" c4Type="Relationship" c4Technology="Redis cache cluster aside" c4Description="Mobile world cache" label="&lt;div style=&quot;text-align: left&quot;&gt;&lt;div style=&quot;text-align: center&quot;&gt;&lt;b&gt;%c4Description%&lt;/b&gt;&lt;/div&gt;&lt;div style=&quot;text-align: center&quot;&gt;[%c4Technology%]&lt;/div&gt;&lt;/div&gt;" id="JOtDiHmGdR48ClcDNry9-5">
          <mxCell style="endArrow=blockThin;html=1;fontSize=10;fontColor=#404040;strokeWidth=1;endFill=1;strokeColor=#828282;elbow=vertical;metaEdit=1;endSize=14;startSize=14;jumpStyle=gap;jumpSize=16;rounded=1;edgeStyle=orthogonalEdgeStyle;curved=0;" edge="1" parent="I5Kk957CukuZ3_YLb2FX-1" source="I5Kk957CukuZ3_YLb2FX-3" target="I5Kk957CukuZ3_YLb2FX-27">
            <mxGeometry x="-0.5706" width="240" relative="1" as="geometry">
              <mxPoint x="592" y="930" as="sourcePoint" />
              <mxPoint x="-78" y="1270" as="targetPoint" />
              <Array as="points">
                <mxPoint x="380" y="885" />
                <mxPoint x="380" y="990" />
                <mxPoint x="-130" y="990" />
              </Array>
              <mxPoint as="offset" />
            </mxGeometry>
          </mxCell>
        </object>
        <object placeholders="1" c4Name="Consul" c4Type="Component" c4Technology="Service Discovery" c4Description="Consul" label="&lt;font style=&quot;font-size: 16px&quot;&gt;&lt;b&gt;%c4Name%&lt;/b&gt;&lt;/font&gt;&lt;div&gt;[%c4Type%: %c4Technology%]&lt;/div&gt;&lt;br&gt;&lt;div&gt;&lt;font style=&quot;font-size: 11px&quot;&gt;%c4Description%&lt;/font&gt;&lt;/div&gt;" id="JOtDiHmGdR48ClcDNry9-6">
          <mxCell style="rounded=1;whiteSpace=wrap;html=1;labelBackgroundColor=none;fillColor=#63BEF2;fontColor=#ffffff;align=center;arcSize=6;strokeColor=#2086C9;metaEdit=1;resizable=0;points=[[0.25,0,0],[0.5,0,0],[0.75,0,0],[1,0.25,0],[1,0.5,0],[1,0.75,0],[0.75,1,0],[0.5,1,0],[0.25,1,0],[0,0.75,0],[0,0.5,0],[0,0.25,0]];" vertex="1" parent="I5Kk957CukuZ3_YLb2FX-1">
            <mxGeometry x="890" y="475" width="240" height="120" as="geometry" />
          </mxCell>
        </object>
        <mxCell id="JOtDiHmGdR48ClcDNry9-7" value="" style="edgeStyle=orthogonalEdgeStyle;rounded=1;orthogonalLoop=1;jettySize=auto;html=1;curved=0;strokeColor=#828282;endArrow=blockThin;endFill=1;startSize=14;endSize=14;jumpStyle=gap;dashed=1;" edge="1" parent="I5Kk957CukuZ3_YLb2FX-1" source="I5Kk957CukuZ3_YLb2FX-3" target="JOtDiHmGdR48ClcDNry9-6">
          <mxGeometry relative="1" as="geometry">
            <mxPoint x="730" y="790" as="sourcePoint" />
            <mxPoint x="730" y="855" as="targetPoint" />
            <Array as="points">
              <mxPoint x="710" y="750" />
              <mxPoint x="1010" y="750" />
            </Array>
          </mxGeometry>
        </mxCell>
        <mxCell id="JOtDiHmGdR48ClcDNry9-12" value="Метадата сервиса" style="edgeLabel;html=1;align=center;verticalAlign=middle;resizable=0;points=[];" vertex="1" connectable="0" parent="JOtDiHmGdR48ClcDNry9-7">
          <mxGeometry x="-0.8363" y="-1" relative="1" as="geometry">
            <mxPoint as="offset" />
          </mxGeometry>
        </mxCell>
        <mxCell id="JOtDiHmGdR48ClcDNry9-8" value="" style="edgeStyle=orthogonalEdgeStyle;rounded=1;orthogonalLoop=1;jettySize=auto;html=1;curved=0;strokeColor=#828282;endArrow=blockThin;endFill=1;startSize=14;endSize=14;jumpStyle=gap;dashed=1;" edge="1" parent="I5Kk957CukuZ3_YLb2FX-1" source="mlxiBWi1_ivCxCKVipYP-0" target="JOtDiHmGdR48ClcDNry9-6">
          <mxGeometry relative="1" as="geometry">
            <mxPoint x="870" y="1160" as="sourcePoint" />
            <mxPoint x="1140" y="870" as="targetPoint" />
            <Array as="points">
              <mxPoint x="220" y="750" />
              <mxPoint x="1010" y="750" />
            </Array>
          </mxGeometry>
        </mxCell>
        <mxCell id="JOtDiHmGdR48ClcDNry9-13" value="Метадата сервиса" style="edgeLabel;html=1;align=center;verticalAlign=middle;resizable=0;points=[];" vertex="1" connectable="0" parent="JOtDiHmGdR48ClcDNry9-8">
          <mxGeometry x="-0.9154" y="-5" relative="1" as="geometry">
            <mxPoint as="offset" />
          </mxGeometry>
        </mxCell>
        <mxCell id="JOtDiHmGdR48ClcDNry9-9" value="" style="edgeStyle=orthogonalEdgeStyle;rounded=1;orthogonalLoop=1;jettySize=auto;html=1;curved=0;strokeColor=#828282;endArrow=blockThin;endFill=1;startSize=14;endSize=14;jumpStyle=gap;" edge="1" parent="I5Kk957CukuZ3_YLb2FX-1" source="mlxiBWi1_ivCxCKVipYP-2" target="JOtDiHmGdR48ClcDNry9-6">
          <mxGeometry relative="1" as="geometry">
            <mxPoint x="580" y="620" as="sourcePoint" />
            <mxPoint x="1370" y="381" as="targetPoint" />
            <Array as="points">
              <mxPoint x="590" y="535" />
              <mxPoint x="590" y="535" />
            </Array>
          </mxGeometry>
        </mxCell>
        <mxCell id="JOtDiHmGdR48ClcDNry9-11" value="Информация о сервисах" style="edgeLabel;html=1;align=center;verticalAlign=middle;resizable=0;points=[];" vertex="1" connectable="0" parent="JOtDiHmGdR48ClcDNry9-9">
          <mxGeometry x="-0.1617" relative="1" as="geometry">
            <mxPoint as="offset" />
          </mxGeometry>
        </mxCell>
      </root>
    </mxGraphModel>
  </diagram>
  <diagram name="[3] Cache+Replication+Sharding " id="he8SUudCRR0ncoZqz-d8">
    <mxGraphModel dx="1254" dy="293" grid="1" gridSize="10" guides="1" tooltips="1" connect="1" arrows="1" fold="1" page="1" pageScale="1" pageWidth="827" pageHeight="1169" math="0" shadow="0">
      <root>
        <mxCell id="Nmjd6AE87QZ0u4Xm10M--0" />
        <mxCell id="Nmjd6AE87QZ0u4Xm10M--1" parent="Nmjd6AE87QZ0u4Xm10M--0" />
        <object placeholders="1" c4Name="Мобильный мир" c4Type="ContainerScopeBoundary" c4Application="Информационная система" label="&lt;font style=&quot;font-size: 16px&quot;&gt;&lt;b&gt;&lt;div style=&quot;text-align: left&quot;&gt;%c4Name%&lt;/div&gt;&lt;/b&gt;&lt;/font&gt;&lt;div style=&quot;text-align: left&quot;&gt;[%c4Application%]&lt;/div&gt;" id="Nmjd6AE87QZ0u4Xm10M--4">
          <mxCell style="rounded=1;fontSize=11;whiteSpace=wrap;html=1;dashed=1;arcSize=20;fillColor=none;strokeColor=#666666;fontColor=#333333;labelBackgroundColor=none;align=left;verticalAlign=bottom;labelBorderColor=none;spacingTop=0;spacing=10;dashPattern=8 4;metaEdit=1;rotatable=0;perimeter=rectanglePerimeter;noLabel=0;labelPadding=0;allowArrows=0;connectable=0;expand=0;recursiveResize=0;editable=1;pointerEvents=0;absoluteArcSize=1;points=[[0.25,0,0],[0.5,0,0],[0.75,0,0],[1,0.25,0],[1,0.5,0],[1,0.75,0],[0.75,1,0],[0.5,1,0],[0.25,1,0],[0,0.75,0],[0,0.5,0],[0,0.25,0]];" parent="Nmjd6AE87QZ0u4Xm10M--1" vertex="1">
            <mxGeometry x="-440" y="630" width="1630" height="1200" as="geometry" />
          </mxCell>
        </object>
        <object placeholders="1" c4Name="pymongo-api" c4Type="Service" c4Technology="Python" c4Description="Mobile World API" label="&lt;font style=&quot;font-size: 16px&quot;&gt;&lt;b&gt;%c4Name%&lt;/b&gt;&lt;/font&gt;&lt;div&gt;[%c4Type%:&amp;nbsp;%c4Technology%]&lt;/div&gt;&lt;br&gt;&lt;div&gt;&lt;font style=&quot;font-size: 11px&quot;&gt;&lt;font color=&quot;#E6E6E6&quot;&gt;%c4Description%&lt;/font&gt;&lt;/div&gt;" id="Nmjd6AE87QZ0u4Xm10M--5">
          <mxCell style="shape=hexagon;size=50;perimeter=hexagonPerimeter2;whiteSpace=wrap;html=1;fixedSize=1;rounded=1;labelBackgroundColor=none;fillColor=#23A2D9;fontSize=12;fontColor=#ffffff;align=center;strokeColor=#0E7DAD;metaEdit=1;points=[[0.5,0,0],[1,0.25,0],[1,0.5,0],[1,0.75,0],[0.5,1,0],[0,0.75,0],[0,0.5,0],[0,0.25,0]];resizable=1;" parent="Nmjd6AE87QZ0u4Xm10M--1" vertex="1">
            <mxGeometry x="325" y="700" width="200" height="170" as="geometry" />
          </mxCell>
        </object>
        <object placeholders="1" c4Name="mongos_router" c4Type="Component" c4Technology="MongoDB" c4Description="MongoDB Router" label="&lt;font style=&quot;font-size: 16px&quot;&gt;&lt;b&gt;%c4Name%&lt;/b&gt;&lt;/font&gt;&lt;div&gt;[%c4Type%: %c4Technology%]&lt;/div&gt;&lt;br&gt;&lt;div&gt;&lt;font style=&quot;font-size: 11px&quot;&gt;%c4Description%&lt;/font&gt;&lt;/div&gt;" id="Nmjd6AE87QZ0u4Xm10M--6">
          <mxCell style="rounded=1;whiteSpace=wrap;html=1;labelBackgroundColor=none;fillColor=#63BEF2;fontColor=#ffffff;align=center;arcSize=6;strokeColor=#2086C9;metaEdit=1;resizable=0;points=[[0.25,0,0],[0.5,0,0],[0.75,0,0],[1,0.25,0],[1,0.5,0],[1,0.75,0],[0.75,1,0],[0.5,1,0],[0.25,1,0],[0,0.75,0],[0,0.5,0],[0,0.25,0]];" parent="Nmjd6AE87QZ0u4Xm10M--1" vertex="1">
            <mxGeometry x="305" y="1215" width="240" height="120" as="geometry" />
          </mxCell>
        </object>
        <object placeholders="1" c4Type="Relationship" c4Technology="PyMongo" c4Description="CRUD operations" label="&lt;div style=&quot;text-align: left&quot;&gt;&lt;div style=&quot;text-align: center&quot;&gt;&lt;b&gt;%c4Description%&lt;/b&gt;&lt;/div&gt;&lt;div style=&quot;text-align: center&quot;&gt;[%c4Technology%]&lt;/div&gt;&lt;/div&gt;" id="Nmjd6AE87QZ0u4Xm10M--7">
          <mxCell style="endArrow=blockThin;html=1;fontSize=10;fontColor=#404040;strokeWidth=1;endFill=1;strokeColor=#828282;elbow=vertical;metaEdit=1;endSize=14;startSize=14;jumpStyle=arc;jumpSize=16;rounded=1;edgeStyle=orthogonalEdgeStyle;curved=0;" parent="Nmjd6AE87QZ0u4Xm10M--1" source="Nmjd6AE87QZ0u4Xm10M--5" target="Nmjd6AE87QZ0u4Xm10M--9" edge="1">
            <mxGeometry x="-0.0909" width="240" relative="1" as="geometry">
              <mxPoint x="420" y="1040" as="sourcePoint" />
              <mxPoint x="160" y="1230" as="targetPoint" />
              <Array as="points" />
              <mxPoint as="offset" />
            </mxGeometry>
          </mxCell>
        </object>
        <mxCell id="Nmjd6AE87QZ0u4Xm10M--8" value="" style="edgeStyle=orthogonalEdgeStyle;rounded=1;orthogonalLoop=1;jettySize=auto;html=1;curved=0;strokeColor=#828282;endArrow=blockThin;endFill=1;startSize=14;endSize=14;jumpStyle=gap;" parent="Nmjd6AE87QZ0u4Xm10M--1" source="Nmjd6AE87QZ0u4Xm10M--9" target="Nmjd6AE87QZ0u4Xm10M--6" edge="1">
          <mxGeometry relative="1" as="geometry" />
        </mxCell>
        <object placeholders="1" c4Name="MongoDB Driver" c4Type="Component" c4Technology="MongoDB" c4Description="MongoDB Driver" label="&lt;font style=&quot;font-size: 16px&quot;&gt;&lt;b&gt;%c4Name%&lt;/b&gt;&lt;/font&gt;&lt;div&gt;[%c4Type%: %c4Technology%]&lt;/div&gt;&lt;br&gt;&lt;div&gt;&lt;font style=&quot;font-size: 11px&quot;&gt;%c4Description%&lt;/font&gt;&lt;/div&gt;" id="Nmjd6AE87QZ0u4Xm10M--9">
          <mxCell style="rounded=1;whiteSpace=wrap;html=1;labelBackgroundColor=none;fillColor=#63BEF2;fontColor=#ffffff;align=center;arcSize=6;strokeColor=#2086C9;metaEdit=1;resizable=0;points=[[0.25,0,0],[0.5,0,0],[0.75,0,0],[1,0.25,0],[1,0.5,0],[1,0.75,0],[0.75,1,0],[0.5,1,0],[0.25,1,0],[0,0.75,0],[0,0.5,0],[0,0.25,0]];" parent="Nmjd6AE87QZ0u4Xm10M--1" vertex="1">
            <mxGeometry x="305" y="1030" width="240" height="120" as="geometry" />
          </mxCell>
        </object>
        <mxCell id="Nmjd6AE87QZ0u4Xm10M--10" value="" style="edgeStyle=orthogonalEdgeStyle;rounded=1;orthogonalLoop=1;jettySize=auto;html=1;curved=0;strokeColor=#828282;endArrow=blockThin;endFill=1;startSize=14;endSize=14;jumpStyle=gap;" parent="Nmjd6AE87QZ0u4Xm10M--1" source="Nmjd6AE87QZ0u4Xm10M--6" target="Nmjd6AE87QZ0u4Xm10M--18" edge="1">
          <mxGeometry relative="1" as="geometry">
            <mxPoint x="420" y="1170" as="sourcePoint" />
            <mxPoint x="420" y="1235" as="targetPoint" />
            <Array as="points">
              <mxPoint x="425" y="1400" />
              <mxPoint x="170" y="1400" />
            </Array>
          </mxGeometry>
        </mxCell>
        <mxCell id="Nmjd6AE87QZ0u4Xm10M--11" value="" style="group" parent="Nmjd6AE87QZ0u4Xm10M--1" vertex="1" connectable="0">
          <mxGeometry x="460" y="1520" width="470" height="180" as="geometry" />
        </mxCell>
        <object placeholders="1" c4Name="shard1-2" c4Type="Database" c4Technology="MongoDB" c4Description="Slave" label="&lt;font style=&quot;font-size: 16px&quot;&gt;&lt;b&gt;%c4Name%&lt;/b&gt;&lt;/font&gt;&lt;div&gt;[%c4Type%:&amp;nbsp;%c4Technology%]&lt;/div&gt;&lt;br&gt;&lt;div&gt;&lt;font style=&quot;font-size: 11px&quot;&gt;&lt;font color=&quot;#E6E6E6&quot;&gt;%c4Description%&lt;/font&gt;&lt;/div&gt;" id="Nmjd6AE87QZ0u4Xm10M--12">
          <mxCell style="shape=cylinder3;size=15;whiteSpace=wrap;html=1;boundedLbl=1;rounded=0;labelBackgroundColor=none;fillColor=#23A2D9;fontSize=12;fontColor=#ffffff;align=center;strokeColor=#0E7DAD;metaEdit=1;points=[[0.5,0,0],[1,0.25,0],[1,0.5,0],[1,0.75,0],[0.5,1,0],[0,0.75,0],[0,0.5,0],[0,0.25,0]];resizable=1;" parent="Nmjd6AE87QZ0u4Xm10M--11" vertex="1">
            <mxGeometry x="230" y="70" width="240" height="110" as="geometry" />
          </mxCell>
        </object>
        <object placeholders="1" c4Name="shard1-2" c4Type="Database" c4Technology="MongoDB" c4Description="Slave" label="&lt;font style=&quot;font-size: 16px&quot;&gt;&lt;b&gt;%c4Name%&lt;/b&gt;&lt;/font&gt;&lt;div&gt;[%c4Type%:&amp;nbsp;%c4Technology%]&lt;/div&gt;&lt;br&gt;&lt;div&gt;&lt;font style=&quot;font-size: 11px&quot;&gt;&lt;font color=&quot;#E6E6E6&quot;&gt;%c4Description%&lt;/font&gt;&lt;/div&gt;" id="Nmjd6AE87QZ0u4Xm10M--13">
          <mxCell style="shape=cylinder3;size=15;whiteSpace=wrap;html=1;boundedLbl=1;rounded=0;labelBackgroundColor=none;fillColor=#23A2D9;fontSize=12;fontColor=#ffffff;align=center;strokeColor=#0E7DAD;metaEdit=1;points=[[0.5,0,0],[1,0.25,0],[1,0.5,0],[1,0.75,0],[0.5,1,0],[0,0.75,0],[0,0.5,0],[0,0.25,0]];resizable=1;" parent="Nmjd6AE87QZ0u4Xm10M--11" vertex="1">
            <mxGeometry y="70" width="240" height="110" as="geometry" />
          </mxCell>
        </object>
        <object placeholders="1" c4Name="shard1-2" c4Type="Database" c4Technology="MongoDB" c4Description="Master" label="&lt;font style=&quot;font-size: 16px&quot;&gt;&lt;b&gt;%c4Name%&lt;/b&gt;&lt;/font&gt;&lt;div&gt;[%c4Type%:&amp;nbsp;%c4Technology%]&lt;/div&gt;&lt;br&gt;&lt;div&gt;&lt;font style=&quot;font-size: 11px&quot;&gt;&lt;font color=&quot;#E6E6E6&quot;&gt;%c4Description%&lt;/font&gt;&lt;/div&gt;" id="Nmjd6AE87QZ0u4Xm10M--14">
          <mxCell style="shape=cylinder3;size=15;whiteSpace=wrap;html=1;boundedLbl=1;rounded=0;labelBackgroundColor=none;fillColor=#23A2D9;fontSize=12;fontColor=#ffffff;align=center;strokeColor=#0E7DAD;metaEdit=1;points=[[0.5,0,0],[1,0.25,0],[1,0.5,0],[1,0.75,0],[0.5,1,0],[0,0.75,0],[0,0.5,0],[0,0.25,0]];resizable=1;" parent="Nmjd6AE87QZ0u4Xm10M--11" vertex="1">
            <mxGeometry x="110" width="240" height="110" as="geometry" />
          </mxCell>
        </object>
        <mxCell id="Nmjd6AE87QZ0u4Xm10M--15" value="" style="group" parent="Nmjd6AE87QZ0u4Xm10M--1" vertex="1" connectable="0">
          <mxGeometry x="-70" y="1520" width="470" height="180" as="geometry" />
        </mxCell>
        <object placeholders="1" c4Name="shard1-1" c4Type="Database" c4Technology="MongoDB" c4Description="Slave" label="&lt;font style=&quot;font-size: 16px&quot;&gt;&lt;b&gt;%c4Name%&lt;/b&gt;&lt;/font&gt;&lt;div&gt;[%c4Type%:&amp;nbsp;%c4Technology%]&lt;/div&gt;&lt;br&gt;&lt;div&gt;&lt;font style=&quot;font-size: 11px&quot;&gt;&lt;font color=&quot;#E6E6E6&quot;&gt;%c4Description%&lt;/font&gt;&lt;/div&gt;" id="Nmjd6AE87QZ0u4Xm10M--16">
          <mxCell style="shape=cylinder3;size=15;whiteSpace=wrap;html=1;boundedLbl=1;rounded=0;labelBackgroundColor=none;fillColor=#23A2D9;fontSize=12;fontColor=#ffffff;align=center;strokeColor=#0E7DAD;metaEdit=1;points=[[0.5,0,0],[1,0.25,0],[1,0.5,0],[1,0.75,0],[0.5,1,0],[0,0.75,0],[0,0.5,0],[0,0.25,0]];resizable=1;" parent="Nmjd6AE87QZ0u4Xm10M--15" vertex="1">
            <mxGeometry x="230" y="70" width="240" height="110" as="geometry" />
          </mxCell>
        </object>
        <object placeholders="1" c4Name="shard1-1" c4Type="Database" c4Technology="MongoDB" c4Description="Slave" label="&lt;font style=&quot;font-size: 16px&quot;&gt;&lt;b&gt;%c4Name%&lt;/b&gt;&lt;/font&gt;&lt;div&gt;[%c4Type%:&amp;nbsp;%c4Technology%]&lt;/div&gt;&lt;br&gt;&lt;div&gt;&lt;font style=&quot;font-size: 11px&quot;&gt;&lt;font color=&quot;#E6E6E6&quot;&gt;%c4Description%&lt;/font&gt;&lt;/div&gt;" id="Nmjd6AE87QZ0u4Xm10M--17">
          <mxCell style="shape=cylinder3;size=15;whiteSpace=wrap;html=1;boundedLbl=1;rounded=0;labelBackgroundColor=none;fillColor=#23A2D9;fontSize=12;fontColor=#ffffff;align=center;strokeColor=#0E7DAD;metaEdit=1;points=[[0.5,0,0],[1,0.25,0],[1,0.5,0],[1,0.75,0],[0.5,1,0],[0,0.75,0],[0,0.5,0],[0,0.25,0]];resizable=1;" parent="Nmjd6AE87QZ0u4Xm10M--15" vertex="1">
            <mxGeometry y="70" width="240" height="110" as="geometry" />
          </mxCell>
        </object>
        <object placeholders="1" c4Name="shard1-1" c4Type="Database" c4Technology="MongoDB" c4Description="Master" label="&lt;font style=&quot;font-size: 16px&quot;&gt;&lt;b&gt;%c4Name%&lt;/b&gt;&lt;/font&gt;&lt;div&gt;[%c4Type%:&amp;nbsp;%c4Technology%]&lt;/div&gt;&lt;br&gt;&lt;div&gt;&lt;font style=&quot;font-size: 11px&quot;&gt;&lt;font color=&quot;#E6E6E6&quot;&gt;%c4Description%&lt;/font&gt;&lt;/div&gt;" id="Nmjd6AE87QZ0u4Xm10M--18">
          <mxCell style="shape=cylinder3;size=15;whiteSpace=wrap;html=1;boundedLbl=1;rounded=0;labelBackgroundColor=none;fillColor=#23A2D9;fontSize=12;fontColor=#ffffff;align=center;strokeColor=#0E7DAD;metaEdit=1;points=[[0.5,0,0],[1,0.25,0],[1,0.5,0],[1,0.75,0],[0.5,1,0],[0,0.75,0],[0,0.5,0],[0,0.25,0]];resizable=1;" parent="Nmjd6AE87QZ0u4Xm10M--15" vertex="1">
            <mxGeometry x="130" width="220" height="110" as="geometry" />
          </mxCell>
        </object>
        <mxCell id="Nmjd6AE87QZ0u4Xm10M--19" value="" style="edgeStyle=orthogonalEdgeStyle;rounded=1;orthogonalLoop=1;jettySize=auto;html=1;curved=0;strokeColor=#828282;endArrow=blockThin;endFill=1;startSize=14;endSize=14;jumpStyle=gap;" parent="Nmjd6AE87QZ0u4Xm10M--1" source="Nmjd6AE87QZ0u4Xm10M--6" target="Nmjd6AE87QZ0u4Xm10M--22" edge="1">
          <mxGeometry relative="1" as="geometry">
            <mxPoint x="670" y="1430" as="sourcePoint" />
            <mxPoint x="935" y="1615" as="targetPoint" />
            <Array as="points">
              <mxPoint x="820" y="1275" />
              <mxPoint x="820" y="1275" />
            </Array>
          </mxGeometry>
        </mxCell>
        <mxCell id="Nmjd6AE87QZ0u4Xm10M--20" value="" style="edgeStyle=orthogonalEdgeStyle;rounded=1;orthogonalLoop=1;jettySize=auto;html=1;curved=0;strokeColor=#828282;endArrow=blockThin;endFill=1;startSize=14;endSize=14;jumpStyle=gap;" parent="Nmjd6AE87QZ0u4Xm10M--1" source="Nmjd6AE87QZ0u4Xm10M--17" target="Nmjd6AE87QZ0u4Xm10M--22" edge="1">
          <mxGeometry relative="1" as="geometry">
            <mxPoint x="525" y="1400" as="sourcePoint" />
            <mxPoint x="480" y="1810" as="targetPoint" />
            <Array as="points">
              <mxPoint x="170" y="1770" />
              <mxPoint x="1000" y="1770" />
            </Array>
          </mxGeometry>
        </mxCell>
        <mxCell id="Nmjd6AE87QZ0u4Xm10M--21" value="" style="edgeStyle=orthogonalEdgeStyle;rounded=1;orthogonalLoop=1;jettySize=auto;html=1;curved=0;strokeColor=#828282;endArrow=blockThin;endFill=1;startSize=14;endSize=14;jumpStyle=gap;" parent="Nmjd6AE87QZ0u4Xm10M--1" source="Nmjd6AE87QZ0u4Xm10M--13" target="Nmjd6AE87QZ0u4Xm10M--22" edge="1">
          <mxGeometry relative="1" as="geometry">
            <mxPoint x="570" y="1790" as="sourcePoint" />
            <mxPoint x="880" y="1900" as="targetPoint" />
            <Array as="points">
              <mxPoint x="700" y="1770" />
              <mxPoint x="1000" y="1770" />
            </Array>
          </mxGeometry>
        </mxCell>
        <object placeholders="1" c4Name="configSrv" c4Type="Component" c4Technology="MongoDB" c4Description="MongoDB Configuration" label="&lt;font style=&quot;font-size: 16px&quot;&gt;&lt;b&gt;%c4Name%&lt;/b&gt;&lt;/font&gt;&lt;div&gt;[%c4Type%: %c4Technology%]&lt;/div&gt;&lt;br&gt;&lt;div&gt;&lt;font style=&quot;font-size: 11px&quot;&gt;%c4Description%&lt;/font&gt;&lt;/div&gt;" id="Nmjd6AE87QZ0u4Xm10M--22">
          <mxCell style="rounded=1;whiteSpace=wrap;html=1;labelBackgroundColor=none;fillColor=#63BEF2;fontColor=#ffffff;align=center;arcSize=6;strokeColor=#2086C9;metaEdit=1;resizable=0;points=[[0.25,0,0],[0.5,0,0],[0.75,0,0],[1,0.25,0],[1,0.5,0],[1,0.75,0],[0.75,1,0],[0.5,1,0],[0.25,1,0],[0,0.75,0],[0,0.5,0],[0,0.25,0]];" parent="Nmjd6AE87QZ0u4Xm10M--1" vertex="1">
            <mxGeometry x="880" y="1215" width="240" height="120" as="geometry" />
          </mxCell>
        </object>
        <object placeholders="1" c4Type="Relationship" c4Technology="{ &quot;name&quot; : &quot;hashed&quot; }" c4Description="ShardCollection" label="&lt;div style=&quot;text-align: left&quot;&gt;&lt;div style=&quot;text-align: center&quot;&gt;&lt;b&gt;%c4Description%&lt;/b&gt;&lt;/div&gt;&lt;div style=&quot;text-align: center&quot;&gt;[%c4Technology%]&lt;/div&gt;&lt;/div&gt;" id="Nmjd6AE87QZ0u4Xm10M--31">
          <mxCell style="endArrow=blockThin;html=1;fontSize=10;fontColor=#404040;strokeWidth=1;endFill=1;strokeColor=#828282;elbow=vertical;metaEdit=1;endSize=14;startSize=14;jumpStyle=gap;jumpSize=16;rounded=1;edgeStyle=orthogonalEdgeStyle;curved=0;" parent="Nmjd6AE87QZ0u4Xm10M--1" source="Nmjd6AE87QZ0u4Xm10M--6" target="Nmjd6AE87QZ0u4Xm10M--14" edge="1">
            <mxGeometry x="-0.8486" width="240" relative="1" as="geometry">
              <mxPoint x="560" y="1460" as="sourcePoint" />
              <mxPoint x="825" y="1645" as="targetPoint" />
              <Array as="points">
                <mxPoint x="425" y="1400" />
                <mxPoint x="690" y="1400" />
              </Array>
              <mxPoint as="offset" />
            </mxGeometry>
          </mxCell>
        </object>
        <object placeholders="1" c4Name="redis_1" c4Type="Cache" c4Technology="Redis" c4Description="Master&#xa;Mobile World Cache" label="&lt;font style=&quot;font-size: 16px&quot;&gt;&lt;b&gt;%c4Name%&lt;/b&gt;&lt;/font&gt;&lt;div&gt;[%c4Type%:&amp;nbsp;%c4Technology%]&lt;/div&gt;&lt;br&gt;&lt;div&gt;&lt;font style=&quot;font-size: 11px&quot;&gt;&lt;font color=&quot;#E6E6E6&quot;&gt;%c4Description%&lt;/font&gt;&lt;/div&gt;" id="IH-JOsoSIxaufJes8Dz5-3">
          <mxCell style="shape=cylinder3;size=15;whiteSpace=wrap;html=1;boundedLbl=1;rounded=0;labelBackgroundColor=none;fillColor=#23A2D9;fontSize=12;fontColor=#ffffff;align=center;strokeColor=#0E7DAD;metaEdit=1;points=[[0.5,0,0],[1,0.25,0],[1,0.5,0],[1,0.75,0],[0.5,1,0],[0,0.75,0],[0,0.5,0],[0,0.25,0]];resizable=1;" parent="Nmjd6AE87QZ0u4Xm10M--1" vertex="1">
            <mxGeometry x="-330" y="1005" width="120" height="120" as="geometry" />
          </mxCell>
        </object>
        <object placeholders="1" c4Name="Группа репликации" c4Type="ContainerScopeBoundary" c4Application="Container" label="&lt;font style=&quot;font-size: 16px&quot;&gt;&lt;b&gt;&lt;div style=&quot;text-align: left&quot;&gt;%c4Name%&lt;/div&gt;&lt;/b&gt;&lt;/font&gt;&lt;div style=&quot;text-align: left&quot;&gt;[%c4Application%]&lt;/div&gt;" id="FlgHDFKKXKezVDJSp8W5-0">
          <mxCell style="rounded=1;fontSize=11;whiteSpace=wrap;html=1;dashed=1;arcSize=20;fillColor=none;strokeColor=#666666;fontColor=#333333;labelBackgroundColor=none;align=left;verticalAlign=bottom;labelBorderColor=none;spacingTop=0;spacing=10;dashPattern=8 4;metaEdit=1;rotatable=0;perimeter=rectanglePerimeter;noLabel=0;labelPadding=0;allowArrows=0;connectable=0;expand=0;recursiveResize=0;editable=1;pointerEvents=0;absoluteArcSize=1;points=[[0.25,0,0],[0.5,0,0],[0.75,0,0],[1,0.25,0],[1,0.5,0],[1,0.75,0],[0.75,1,0],[0.5,1,0],[0.25,1,0],[0,0.75,0],[0,0.5,0],[0,0.25,0]];" parent="Nmjd6AE87QZ0u4Xm10M--1" vertex="1">
            <mxGeometry x="-80" y="1490" width="490" height="260" as="geometry" />
          </mxCell>
        </object>
        <object placeholders="1" c4Name="Группа репликации" c4Type="ContainerScopeBoundary" c4Application="Container" label="&lt;font style=&quot;font-size: 16px&quot;&gt;&lt;b&gt;&lt;div style=&quot;text-align: left&quot;&gt;%c4Name%&lt;/div&gt;&lt;/b&gt;&lt;/font&gt;&lt;div style=&quot;text-align: left&quot;&gt;[%c4Application%]&lt;/div&gt;" id="FlgHDFKKXKezVDJSp8W5-1">
          <mxCell style="rounded=1;fontSize=11;whiteSpace=wrap;html=1;dashed=1;arcSize=20;fillColor=none;strokeColor=#666666;fontColor=#333333;labelBackgroundColor=none;align=left;verticalAlign=bottom;labelBorderColor=none;spacingTop=0;spacing=10;dashPattern=8 4;metaEdit=1;rotatable=0;perimeter=rectanglePerimeter;noLabel=0;labelPadding=0;allowArrows=0;connectable=0;expand=0;recursiveResize=0;editable=1;pointerEvents=0;absoluteArcSize=1;points=[[0.25,0,0],[0.5,0,0],[0.75,0,0],[1,0.25,0],[1,0.5,0],[1,0.75,0],[0.75,1,0],[0.5,1,0],[0.25,1,0],[0,0.75,0],[0,0.5,0],[0,0.25,0]];" parent="Nmjd6AE87QZ0u4Xm10M--1" vertex="1">
            <mxGeometry x="450" y="1490" width="490" height="260" as="geometry" />
          </mxCell>
        </object>
        <mxCell id="4eOHi-oXRqpa3tTuLXpV-0" value="" style="edgeStyle=orthogonalEdgeStyle;rounded=1;orthogonalLoop=1;jettySize=auto;html=1;curved=0;strokeColor=#828282;endArrow=blockThin;endFill=1;startSize=14;endSize=14;jumpStyle=gap;startArrow=blockThin;startFill=1;dashed=1;" parent="Nmjd6AE87QZ0u4Xm10M--1" source="Nmjd6AE87QZ0u4Xm10M--18" target="Nmjd6AE87QZ0u4Xm10M--14" edge="1">
          <mxGeometry relative="1" as="geometry">
            <mxPoint x="350" y="1590" as="sourcePoint" />
            <mxPoint x="640" y="1590" as="targetPoint" />
            <Array as="points" />
          </mxGeometry>
        </mxCell>
        <object placeholders="1" c4Name="redis_3" c4Type="Cache" c4Technology="Redis" c4Description="Master&#xa;Mobile World Cache" label="&lt;font style=&quot;font-size: 16px&quot;&gt;&lt;b&gt;%c4Name%&lt;/b&gt;&lt;/font&gt;&lt;div&gt;[%c4Type%:&amp;nbsp;%c4Technology%]&lt;/div&gt;&lt;br&gt;&lt;div&gt;&lt;font style=&quot;font-size: 11px&quot;&gt;&lt;font color=&quot;#E6E6E6&quot;&gt;%c4Description%&lt;/font&gt;&lt;/div&gt;" id="tssQp03vwp5AT1Jx-BMZ-0">
          <mxCell style="shape=cylinder3;size=15;whiteSpace=wrap;html=1;boundedLbl=1;rounded=0;labelBackgroundColor=none;fillColor=#23A2D9;fontSize=12;fontColor=#ffffff;align=center;strokeColor=#0E7DAD;metaEdit=1;points=[[0.5,0,0],[1,0.25,0],[1,0.5,0],[1,0.75,0],[0.5,1,0],[0,0.75,0],[0,0.5,0],[0,0.25,0]];resizable=1;" vertex="1" parent="Nmjd6AE87QZ0u4Xm10M--1">
            <mxGeometry x="14" y="1005" width="120" height="120" as="geometry" />
          </mxCell>
        </object>
        <object placeholders="1" c4Name="redis_2" c4Type="Cache" c4Technology="Redis" c4Description="Master&#xa;Mobile World Cache" label="&lt;font style=&quot;font-size: 16px&quot;&gt;&lt;b&gt;%c4Name%&lt;/b&gt;&lt;/font&gt;&lt;div&gt;[%c4Type%:&amp;nbsp;%c4Technology%]&lt;/div&gt;&lt;br&gt;&lt;div&gt;&lt;font style=&quot;font-size: 11px&quot;&gt;&lt;font color=&quot;#E6E6E6&quot;&gt;%c4Description%&lt;/font&gt;&lt;/div&gt;" id="tssQp03vwp5AT1Jx-BMZ-1">
          <mxCell style="shape=cylinder3;size=15;whiteSpace=wrap;html=1;boundedLbl=1;rounded=0;labelBackgroundColor=none;fillColor=#23A2D9;fontSize=12;fontColor=#ffffff;align=center;strokeColor=#0E7DAD;metaEdit=1;points=[[0.5,0,0],[1,0.25,0],[1,0.5,0],[1,0.75,0],[0.5,1,0],[0,0.75,0],[0,0.5,0],[0,0.25,0]];resizable=1;" vertex="1" parent="Nmjd6AE87QZ0u4Xm10M--1">
            <mxGeometry x="-158" y="1005" width="120" height="120" as="geometry" />
          </mxCell>
        </object>
        <object placeholders="1" c4Type="Relationship" c4Technology="Redis cache cluster aside" c4Description="Mobile world cache" label="&lt;div style=&quot;text-align: left&quot;&gt;&lt;div style=&quot;text-align: center&quot;&gt;&lt;b&gt;%c4Description%&lt;/b&gt;&lt;/div&gt;&lt;div style=&quot;text-align: center&quot;&gt;[%c4Technology%]&lt;/div&gt;&lt;/div&gt;" id="tssQp03vwp5AT1Jx-BMZ-2">
          <mxCell style="endArrow=blockThin;html=1;fontSize=10;fontColor=#404040;strokeWidth=1;endFill=1;strokeColor=#828282;elbow=vertical;metaEdit=1;endSize=14;startSize=14;jumpStyle=arc;jumpSize=16;rounded=0;edgeStyle=orthogonalEdgeStyle;" edge="1" parent="Nmjd6AE87QZ0u4Xm10M--1" source="Nmjd6AE87QZ0u4Xm10M--5" target="tssQp03vwp5AT1Jx-BMZ-1">
            <mxGeometry x="0.7134" width="240" relative="1" as="geometry">
              <mxPoint x="478" y="820" as="sourcePoint" />
              <mxPoint x="-100" y="960" as="targetPoint" />
              <Array as="points">
                <mxPoint x="-100" y="810" />
              </Array>
              <mxPoint y="-1" as="offset" />
            </mxGeometry>
          </mxCell>
        </object>
        <object placeholders="1" c4Name="redis_5" c4Type="Cache" c4Technology="Redis" c4Description="Slave&#xa;Mobile World Cache" label="&lt;font style=&quot;font-size: 16px&quot;&gt;&lt;b&gt;%c4Name%&lt;/b&gt;&lt;/font&gt;&lt;div&gt;[%c4Type%:&amp;nbsp;%c4Technology%]&lt;/div&gt;&lt;br&gt;&lt;div&gt;&lt;font style=&quot;font-size: 11px&quot;&gt;&lt;font color=&quot;#E6E6E6&quot;&gt;%c4Description%&lt;/font&gt;&lt;/div&gt;" id="tssQp03vwp5AT1Jx-BMZ-4">
          <mxCell style="shape=cylinder3;size=15;whiteSpace=wrap;html=1;boundedLbl=1;rounded=0;labelBackgroundColor=none;fillColor=#23A2D9;fontSize=12;fontColor=#ffffff;align=center;strokeColor=#0E7DAD;metaEdit=1;points=[[0.5,0,0],[1,0.25,0],[1,0.5,0],[1,0.75,0],[0.5,1,0],[0,0.75,0],[0,0.5,0],[0,0.25,0]];resizable=1;" vertex="1" parent="Nmjd6AE87QZ0u4Xm10M--1">
            <mxGeometry x="-330" y="1215" width="120" height="120" as="geometry" />
          </mxCell>
        </object>
        <object placeholders="1" c4Name="redis_6" c4Type="Cache" c4Technology="Redis" c4Description="Slave&#xa;Mobile World Cache" label="&lt;font style=&quot;font-size: 16px&quot;&gt;&lt;b&gt;%c4Name%&lt;/b&gt;&lt;/font&gt;&lt;div&gt;[%c4Type%:&amp;nbsp;%c4Technology%]&lt;/div&gt;&lt;br&gt;&lt;div&gt;&lt;font style=&quot;font-size: 11px&quot;&gt;&lt;font color=&quot;#E6E6E6&quot;&gt;%c4Description%&lt;/font&gt;&lt;/div&gt;" id="tssQp03vwp5AT1Jx-BMZ-5">
          <mxCell style="shape=cylinder3;size=15;whiteSpace=wrap;html=1;boundedLbl=1;rounded=0;labelBackgroundColor=none;fillColor=#23A2D9;fontSize=12;fontColor=#ffffff;align=center;strokeColor=#0E7DAD;metaEdit=1;points=[[0.5,0,0],[1,0.25,0],[1,0.5,0],[1,0.75,0],[0.5,1,0],[0,0.75,0],[0,0.5,0],[0,0.25,0]];resizable=1;" vertex="1" parent="Nmjd6AE87QZ0u4Xm10M--1">
            <mxGeometry x="-158" y="1215" width="120" height="120" as="geometry" />
          </mxCell>
        </object>
        <object placeholders="1" c4Name="redis_4" c4Type="Cache" c4Technology="Redis" c4Description="Slave&#xa;Mobile World Cache" label="&lt;font style=&quot;font-size: 16px&quot;&gt;&lt;b&gt;%c4Name%&lt;/b&gt;&lt;/font&gt;&lt;div&gt;[%c4Type%:&amp;nbsp;%c4Technology%]&lt;/div&gt;&lt;br&gt;&lt;div&gt;&lt;font style=&quot;font-size: 11px&quot;&gt;&lt;font color=&quot;#E6E6E6&quot;&gt;%c4Description%&lt;/font&gt;&lt;/div&gt;" id="tssQp03vwp5AT1Jx-BMZ-6">
          <mxCell style="shape=cylinder3;size=15;whiteSpace=wrap;html=1;boundedLbl=1;rounded=0;labelBackgroundColor=none;fillColor=#23A2D9;fontSize=12;fontColor=#ffffff;align=center;strokeColor=#0E7DAD;metaEdit=1;points=[[0.5,0,0],[1,0.25,0],[1,0.5,0],[1,0.75,0],[0.5,1,0],[0,0.75,0],[0,0.5,0],[0,0.25,0]];resizable=1;" vertex="1" parent="Nmjd6AE87QZ0u4Xm10M--1">
            <mxGeometry x="14" y="1215" width="120" height="120" as="geometry" />
          </mxCell>
        </object>
        <mxCell id="tssQp03vwp5AT1Jx-BMZ-7" value="" style="edgeStyle=orthogonalEdgeStyle;rounded=1;orthogonalLoop=1;jettySize=auto;html=1;curved=0;strokeColor=#828282;endArrow=blockThin;endFill=1;startSize=14;endSize=14;jumpStyle=gap;" edge="1" parent="Nmjd6AE87QZ0u4Xm10M--1" source="IH-JOsoSIxaufJes8Dz5-3" target="tssQp03vwp5AT1Jx-BMZ-4">
          <mxGeometry relative="1" as="geometry">
            <mxPoint x="-200" y="1465" as="sourcePoint" />
            <mxPoint x="-200" y="1530" as="targetPoint" />
          </mxGeometry>
        </mxCell>
        <mxCell id="tssQp03vwp5AT1Jx-BMZ-8" value="" style="edgeStyle=orthogonalEdgeStyle;rounded=1;orthogonalLoop=1;jettySize=auto;html=1;curved=0;strokeColor=#828282;endArrow=blockThin;endFill=1;startSize=14;endSize=14;jumpStyle=gap;" edge="1" parent="Nmjd6AE87QZ0u4Xm10M--1" source="tssQp03vwp5AT1Jx-BMZ-1" target="tssQp03vwp5AT1Jx-BMZ-5">
          <mxGeometry relative="1" as="geometry">
            <mxPoint x="-170" y="1185" as="sourcePoint" />
            <mxPoint x="-170" y="1275" as="targetPoint" />
          </mxGeometry>
        </mxCell>
        <mxCell id="tssQp03vwp5AT1Jx-BMZ-9" value="" style="edgeStyle=orthogonalEdgeStyle;rounded=1;orthogonalLoop=1;jettySize=auto;html=1;curved=0;strokeColor=#828282;endArrow=blockThin;endFill=1;startSize=14;endSize=14;jumpStyle=gap;" edge="1" parent="Nmjd6AE87QZ0u4Xm10M--1" source="tssQp03vwp5AT1Jx-BMZ-0" target="tssQp03vwp5AT1Jx-BMZ-6">
          <mxGeometry relative="1" as="geometry">
            <mxPoint y="1155" as="sourcePoint" />
            <mxPoint y="1245" as="targetPoint" />
          </mxGeometry>
        </mxCell>
        <mxCell id="tssQp03vwp5AT1Jx-BMZ-16" value="" style="edgeStyle=orthogonalEdgeStyle;rounded=1;orthogonalLoop=1;jettySize=auto;html=1;strokeColor=#828282;endArrow=none;endFill=0;startSize=14;endSize=14;jumpStyle=gap;dashed=1;" edge="1" parent="Nmjd6AE87QZ0u4Xm10M--1" source="IH-JOsoSIxaufJes8Dz5-3" target="tssQp03vwp5AT1Jx-BMZ-5">
          <mxGeometry relative="1" as="geometry">
            <mxPoint x="-230" y="1144.9956410256411" as="sourcePoint" />
            <mxPoint x="-117.97435897435889" y="1294.97" as="targetPoint" />
            <Array as="points">
              <mxPoint x="-250" y="1185" />
              <mxPoint x="-120" y="1185" />
            </Array>
          </mxGeometry>
        </mxCell>
        <mxCell id="tssQp03vwp5AT1Jx-BMZ-18" value="" style="edgeStyle=orthogonalEdgeStyle;rounded=1;orthogonalLoop=1;jettySize=auto;html=1;strokeColor=#828282;endArrow=none;endFill=0;startSize=14;endSize=14;jumpStyle=gap;dashed=1;" edge="1" parent="Nmjd6AE87QZ0u4Xm10M--1" source="IH-JOsoSIxaufJes8Dz5-3" target="tssQp03vwp5AT1Jx-BMZ-6">
          <mxGeometry relative="1" as="geometry">
            <mxPoint x="-140" y="1165" as="sourcePoint" />
            <mxPoint x="20" y="1255" as="targetPoint" />
            <Array as="points">
              <mxPoint x="-250" y="1185" />
              <mxPoint x="50" y="1185" />
            </Array>
          </mxGeometry>
        </mxCell>
        <mxCell id="tssQp03vwp5AT1Jx-BMZ-19" value="" style="edgeStyle=orthogonalEdgeStyle;rounded=1;orthogonalLoop=1;jettySize=auto;html=1;strokeColor=#828282;endArrow=none;endFill=0;startSize=14;endSize=14;jumpStyle=gap;dashed=1;" edge="1" parent="Nmjd6AE87QZ0u4Xm10M--1" source="tssQp03vwp5AT1Jx-BMZ-1" target="tssQp03vwp5AT1Jx-BMZ-6">
          <mxGeometry relative="1" as="geometry">
            <mxPoint x="-60" y="1165" as="sourcePoint" />
            <mxPoint x="240" y="1255" as="targetPoint" />
            <Array as="points">
              <mxPoint x="-60" y="1155" />
              <mxPoint x="100" y="1155" />
            </Array>
          </mxGeometry>
        </mxCell>
        <mxCell id="tssQp03vwp5AT1Jx-BMZ-20" value="" style="edgeStyle=orthogonalEdgeStyle;rounded=1;orthogonalLoop=1;jettySize=auto;html=1;strokeColor=#828282;endArrow=none;endFill=0;startSize=14;endSize=14;jumpStyle=gap;dashed=1;" edge="1" parent="Nmjd6AE87QZ0u4Xm10M--1" source="tssQp03vwp5AT1Jx-BMZ-1" target="tssQp03vwp5AT1Jx-BMZ-4">
          <mxGeometry relative="1" as="geometry">
            <mxPoint x="-10" y="1155" as="sourcePoint" />
            <mxPoint x="150" y="1245" as="targetPoint" />
            <Array as="points">
              <mxPoint x="-140" y="1155" />
              <mxPoint x="-300" y="1155" />
            </Array>
          </mxGeometry>
        </mxCell>
        <mxCell id="tssQp03vwp5AT1Jx-BMZ-21" value="" style="edgeStyle=orthogonalEdgeStyle;rounded=1;orthogonalLoop=1;jettySize=auto;html=1;strokeColor=#828282;endArrow=none;endFill=0;startSize=14;endSize=14;jumpStyle=gap;dashed=1;" edge="1" parent="Nmjd6AE87QZ0u4Xm10M--1" source="tssQp03vwp5AT1Jx-BMZ-0" target="tssQp03vwp5AT1Jx-BMZ-4">
          <mxGeometry relative="1" as="geometry">
            <mxPoint x="-120" y="1185" as="sourcePoint" />
            <mxPoint x="10" y="1275" as="targetPoint" />
            <Array as="points">
              <mxPoint x="50" y="1175" />
              <mxPoint x="-250" y="1175" />
            </Array>
          </mxGeometry>
        </mxCell>
        <mxCell id="tssQp03vwp5AT1Jx-BMZ-22" value="" style="edgeStyle=orthogonalEdgeStyle;rounded=1;orthogonalLoop=1;jettySize=auto;html=1;strokeColor=#828282;endArrow=none;endFill=0;startSize=14;endSize=14;jumpStyle=gap;dashed=1;" edge="1" parent="Nmjd6AE87QZ0u4Xm10M--1" source="tssQp03vwp5AT1Jx-BMZ-0" target="tssQp03vwp5AT1Jx-BMZ-5">
          <mxGeometry relative="1" as="geometry">
            <mxPoint x="310" y="1165" as="sourcePoint" />
            <mxPoint x="10" y="1255" as="targetPoint" />
            <Array as="points">
              <mxPoint x="50" y="1175" />
              <mxPoint x="-76" y="1175" />
            </Array>
          </mxGeometry>
        </mxCell>
        <object placeholders="1" c4Name="Redis cluster" c4Type="ContainerScopeBoundary" c4Application="Container" label="&lt;font style=&quot;font-size: 16px&quot;&gt;&lt;b&gt;&lt;div style=&quot;text-align: left&quot;&gt;%c4Name%&lt;/div&gt;&lt;/b&gt;&lt;/font&gt;&lt;div style=&quot;text-align: left&quot;&gt;[%c4Application%]&lt;/div&gt;" id="tssQp03vwp5AT1Jx-BMZ-23">
          <mxCell style="rounded=1;fontSize=11;whiteSpace=wrap;html=1;dashed=1;arcSize=20;fillColor=none;strokeColor=#666666;fontColor=#333333;labelBackgroundColor=none;align=left;verticalAlign=bottom;labelBorderColor=none;spacingTop=0;spacing=10;dashPattern=8 4;metaEdit=1;rotatable=0;perimeter=rectanglePerimeter;noLabel=0;labelPadding=0;allowArrows=0;connectable=0;expand=0;recursiveResize=0;editable=1;pointerEvents=0;absoluteArcSize=1;points=[[0.25,0,0],[0.5,0,0],[0.75,0,0],[1,0.25,0],[1,0.5,0],[1,0.75,0],[0.75,1,0],[0.5,1,0],[0.25,1,0],[0,0.75,0],[0,0.5,0],[0,0.25,0]];" vertex="1" parent="Nmjd6AE87QZ0u4Xm10M--1">
            <mxGeometry x="-360" y="960" width="520" height="420" as="geometry" />
          </mxCell>
        </object>
      </root>
    </mxGraphModel>
  </diagram>
  <diagram name="[2] Replication + Sharding" id="WMEkwmqckpmWxoplSn4z">
    <mxGraphModel dx="1152" dy="790" grid="1" gridSize="10" guides="1" tooltips="1" connect="1" arrows="1" fold="1" page="1" pageScale="1" pageWidth="827" pageHeight="1169" math="0" shadow="0">
      <root>
        <mxCell id="r_LgoGgmvubWq0d6DuWu-0" />
        <mxCell id="r_LgoGgmvubWq0d6DuWu-1" parent="r_LgoGgmvubWq0d6DuWu-0" />
        <object placeholders="1" c4Name="Мобильный мир" c4Type="ContainerScopeBoundary" c4Application="Информационная система" label="&lt;font style=&quot;font-size: 16px&quot;&gt;&lt;b&gt;&lt;div style=&quot;text-align: left&quot;&gt;%c4Name%&lt;/div&gt;&lt;/b&gt;&lt;/font&gt;&lt;div style=&quot;text-align: left&quot;&gt;[%c4Application%]&lt;/div&gt;" id="r_LgoGgmvubWq0d6DuWu-2">
          <mxCell style="rounded=1;fontSize=11;whiteSpace=wrap;html=1;dashed=1;arcSize=20;fillColor=none;strokeColor=#666666;fontColor=#333333;labelBackgroundColor=none;align=left;verticalAlign=bottom;labelBorderColor=none;spacingTop=0;spacing=10;dashPattern=8 4;metaEdit=1;rotatable=0;perimeter=rectanglePerimeter;noLabel=0;labelPadding=0;allowArrows=0;connectable=0;expand=0;recursiveResize=0;editable=1;pointerEvents=0;absoluteArcSize=1;points=[[0.25,0,0],[0.5,0,0],[0.75,0,0],[1,0.25,0],[1,0.5,0],[1,0.75,0],[0.75,1,0],[0.5,1,0],[0.25,1,0],[0,0.75,0],[0,0.5,0],[0,0.25,0]];" parent="r_LgoGgmvubWq0d6DuWu-1" vertex="1">
            <mxGeometry x="130" y="480" width="1440" height="1190" as="geometry" />
          </mxCell>
        </object>
        <object placeholders="1" c4Name="pymongo-api" c4Type="Service" c4Technology="Python" c4Description="Mobile World API" label="&lt;font style=&quot;font-size: 16px&quot;&gt;&lt;b&gt;%c4Name%&lt;/b&gt;&lt;/font&gt;&lt;div&gt;[%c4Type%:&amp;nbsp;%c4Technology%]&lt;/div&gt;&lt;br&gt;&lt;div&gt;&lt;font style=&quot;font-size: 11px&quot;&gt;&lt;font color=&quot;#E6E6E6&quot;&gt;%c4Description%&lt;/font&gt;&lt;/div&gt;" id="r_LgoGgmvubWq0d6DuWu-9">
          <mxCell style="shape=hexagon;size=50;perimeter=hexagonPerimeter2;whiteSpace=wrap;html=1;fixedSize=1;rounded=1;labelBackgroundColor=none;fillColor=#23A2D9;fontSize=12;fontColor=#ffffff;align=center;strokeColor=#0E7DAD;metaEdit=1;points=[[0.5,0,0],[1,0.25,0],[1,0.5,0],[1,0.75,0],[0.5,1,0],[0,0.75,0],[0,0.5,0],[0,0.25,0]];resizable=1;" parent="r_LgoGgmvubWq0d6DuWu-1" vertex="1">
            <mxGeometry x="715" y="530" width="200" height="170" as="geometry" />
          </mxCell>
        </object>
        <object placeholders="1" c4Name="mongos_router" c4Type="Component" c4Technology="MongoDB" c4Description="MongoDB Router" label="&lt;font style=&quot;font-size: 16px&quot;&gt;&lt;b&gt;%c4Name%&lt;/b&gt;&lt;/font&gt;&lt;div&gt;[%c4Type%: %c4Technology%]&lt;/div&gt;&lt;br&gt;&lt;div&gt;&lt;font style=&quot;font-size: 11px&quot;&gt;%c4Description%&lt;/font&gt;&lt;/div&gt;" id="r_LgoGgmvubWq0d6DuWu-10">
          <mxCell style="rounded=1;whiteSpace=wrap;html=1;labelBackgroundColor=none;fillColor=#63BEF2;fontColor=#ffffff;align=center;arcSize=6;strokeColor=#2086C9;metaEdit=1;resizable=0;points=[[0.25,0,0],[0.5,0,0],[0.75,0,0],[1,0.25,0],[1,0.5,0],[1,0.75,0],[0.75,1,0],[0.5,1,0],[0.25,1,0],[0,0.75,0],[0,0.5,0],[0,0.25,0]];" parent="r_LgoGgmvubWq0d6DuWu-1" vertex="1">
            <mxGeometry x="695" y="1015" width="240" height="120" as="geometry" />
          </mxCell>
        </object>
        <object placeholders="1" c4Type="Relationship" c4Technology="PyMongo" c4Description="CRUD operations" label="&lt;div style=&quot;text-align: left&quot;&gt;&lt;div style=&quot;text-align: center&quot;&gt;&lt;b&gt;%c4Description%&lt;/b&gt;&lt;/div&gt;&lt;div style=&quot;text-align: center&quot;&gt;[%c4Technology%]&lt;/div&gt;&lt;/div&gt;" id="r_LgoGgmvubWq0d6DuWu-11">
          <mxCell style="endArrow=blockThin;html=1;fontSize=10;fontColor=#404040;strokeWidth=1;endFill=1;strokeColor=#828282;elbow=vertical;metaEdit=1;endSize=14;startSize=14;jumpStyle=arc;jumpSize=16;rounded=1;edgeStyle=orthogonalEdgeStyle;curved=0;" parent="r_LgoGgmvubWq0d6DuWu-1" source="r_LgoGgmvubWq0d6DuWu-9" target="r_LgoGgmvubWq0d6DuWu-13" edge="1">
            <mxGeometry x="-0.0909" width="240" relative="1" as="geometry">
              <mxPoint x="810" y="840" as="sourcePoint" />
              <mxPoint x="550" y="1030" as="targetPoint" />
              <Array as="points" />
              <mxPoint as="offset" />
            </mxGeometry>
          </mxCell>
        </object>
        <mxCell id="r_LgoGgmvubWq0d6DuWu-12" value="" style="edgeStyle=orthogonalEdgeStyle;rounded=1;orthogonalLoop=1;jettySize=auto;html=1;curved=0;strokeColor=#828282;endArrow=blockThin;endFill=1;startSize=14;endSize=14;jumpStyle=gap;" parent="r_LgoGgmvubWq0d6DuWu-1" source="r_LgoGgmvubWq0d6DuWu-13" target="r_LgoGgmvubWq0d6DuWu-10" edge="1">
          <mxGeometry relative="1" as="geometry" />
        </mxCell>
        <object placeholders="1" c4Name="MongoDB Driver" c4Type="Component" c4Technology="MongoDB" c4Description="MongoDB Driver" label="&lt;font style=&quot;font-size: 16px&quot;&gt;&lt;b&gt;%c4Name%&lt;/b&gt;&lt;/font&gt;&lt;div&gt;[%c4Type%: %c4Technology%]&lt;/div&gt;&lt;br&gt;&lt;div&gt;&lt;font style=&quot;font-size: 11px&quot;&gt;%c4Description%&lt;/font&gt;&lt;/div&gt;" id="r_LgoGgmvubWq0d6DuWu-13">
          <mxCell style="rounded=1;whiteSpace=wrap;html=1;labelBackgroundColor=none;fillColor=#63BEF2;fontColor=#ffffff;align=center;arcSize=6;strokeColor=#2086C9;metaEdit=1;resizable=0;points=[[0.25,0,0],[0.5,0,0],[0.75,0,0],[1,0.25,0],[1,0.5,0],[1,0.75,0],[0.75,1,0],[0.5,1,0],[0.25,1,0],[0,0.75,0],[0,0.5,0],[0,0.25,0]];" parent="r_LgoGgmvubWq0d6DuWu-1" vertex="1">
            <mxGeometry x="695" y="830" width="240" height="120" as="geometry" />
          </mxCell>
        </object>
        <mxCell id="r_LgoGgmvubWq0d6DuWu-14" value="" style="edgeStyle=orthogonalEdgeStyle;rounded=1;orthogonalLoop=1;jettySize=auto;html=1;curved=0;strokeColor=#828282;endArrow=blockThin;endFill=1;startSize=14;endSize=14;jumpStyle=gap;" parent="r_LgoGgmvubWq0d6DuWu-1" source="r_LgoGgmvubWq0d6DuWu-10" target="r_LgoGgmvubWq0d6DuWu-22" edge="1">
          <mxGeometry relative="1" as="geometry">
            <mxPoint x="810" y="970" as="sourcePoint" />
            <mxPoint x="810" y="1035" as="targetPoint" />
            <Array as="points">
              <mxPoint x="815" y="1200" />
              <mxPoint x="560" y="1200" />
            </Array>
          </mxGeometry>
        </mxCell>
        <mxCell id="r_LgoGgmvubWq0d6DuWu-15" value="" style="group" parent="r_LgoGgmvubWq0d6DuWu-1" vertex="1" connectable="0">
          <mxGeometry x="850" y="1320" width="470" height="180" as="geometry" />
        </mxCell>
        <object placeholders="1" c4Name="shard1-2" c4Type="Database" c4Technology="MongoDB" c4Description="Slave" label="&lt;font style=&quot;font-size: 16px&quot;&gt;&lt;b&gt;%c4Name%&lt;/b&gt;&lt;/font&gt;&lt;div&gt;[%c4Type%:&amp;nbsp;%c4Technology%]&lt;/div&gt;&lt;br&gt;&lt;div&gt;&lt;font style=&quot;font-size: 11px&quot;&gt;&lt;font color=&quot;#E6E6E6&quot;&gt;%c4Description%&lt;/font&gt;&lt;/div&gt;" id="r_LgoGgmvubWq0d6DuWu-16">
          <mxCell style="shape=cylinder3;size=15;whiteSpace=wrap;html=1;boundedLbl=1;rounded=0;labelBackgroundColor=none;fillColor=#23A2D9;fontSize=12;fontColor=#ffffff;align=center;strokeColor=#0E7DAD;metaEdit=1;points=[[0.5,0,0],[1,0.25,0],[1,0.5,0],[1,0.75,0],[0.5,1,0],[0,0.75,0],[0,0.5,0],[0,0.25,0]];resizable=1;" parent="r_LgoGgmvubWq0d6DuWu-15" vertex="1">
            <mxGeometry x="230" y="70" width="240" height="110" as="geometry" />
          </mxCell>
        </object>
        <object placeholders="1" c4Name="shard1-2" c4Type="Database" c4Technology="MongoDB" c4Description="Slave" label="&lt;font style=&quot;font-size: 16px&quot;&gt;&lt;b&gt;%c4Name%&lt;/b&gt;&lt;/font&gt;&lt;div&gt;[%c4Type%:&amp;nbsp;%c4Technology%]&lt;/div&gt;&lt;br&gt;&lt;div&gt;&lt;font style=&quot;font-size: 11px&quot;&gt;&lt;font color=&quot;#E6E6E6&quot;&gt;%c4Description%&lt;/font&gt;&lt;/div&gt;" id="r_LgoGgmvubWq0d6DuWu-17">
          <mxCell style="shape=cylinder3;size=15;whiteSpace=wrap;html=1;boundedLbl=1;rounded=0;labelBackgroundColor=none;fillColor=#23A2D9;fontSize=12;fontColor=#ffffff;align=center;strokeColor=#0E7DAD;metaEdit=1;points=[[0.5,0,0],[1,0.25,0],[1,0.5,0],[1,0.75,0],[0.5,1,0],[0,0.75,0],[0,0.5,0],[0,0.25,0]];resizable=1;" parent="r_LgoGgmvubWq0d6DuWu-15" vertex="1">
            <mxGeometry y="70" width="240" height="110" as="geometry" />
          </mxCell>
        </object>
        <object placeholders="1" c4Name="shard1-2" c4Type="Database" c4Technology="MongoDB" c4Description="Master" label="&lt;font style=&quot;font-size: 16px&quot;&gt;&lt;b&gt;%c4Name%&lt;/b&gt;&lt;/font&gt;&lt;div&gt;[%c4Type%:&amp;nbsp;%c4Technology%]&lt;/div&gt;&lt;br&gt;&lt;div&gt;&lt;font style=&quot;font-size: 11px&quot;&gt;&lt;font color=&quot;#E6E6E6&quot;&gt;%c4Description%&lt;/font&gt;&lt;/div&gt;" id="r_LgoGgmvubWq0d6DuWu-18">
          <mxCell style="shape=cylinder3;size=15;whiteSpace=wrap;html=1;boundedLbl=1;rounded=0;labelBackgroundColor=none;fillColor=#23A2D9;fontSize=12;fontColor=#ffffff;align=center;strokeColor=#0E7DAD;metaEdit=1;points=[[0.5,0,0],[1,0.25,0],[1,0.5,0],[1,0.75,0],[0.5,1,0],[0,0.75,0],[0,0.5,0],[0,0.25,0]];resizable=1;" parent="r_LgoGgmvubWq0d6DuWu-15" vertex="1">
            <mxGeometry x="110" width="240" height="110" as="geometry" />
          </mxCell>
        </object>
        <mxCell id="r_LgoGgmvubWq0d6DuWu-19" value="" style="group" parent="r_LgoGgmvubWq0d6DuWu-1" vertex="1" connectable="0">
          <mxGeometry x="320" y="1320" width="470" height="180" as="geometry" />
        </mxCell>
        <object placeholders="1" c4Name="shard1-1" c4Type="Database" c4Technology="MongoDB" c4Description="Slave" label="&lt;font style=&quot;font-size: 16px&quot;&gt;&lt;b&gt;%c4Name%&lt;/b&gt;&lt;/font&gt;&lt;div&gt;[%c4Type%:&amp;nbsp;%c4Technology%]&lt;/div&gt;&lt;br&gt;&lt;div&gt;&lt;font style=&quot;font-size: 11px&quot;&gt;&lt;font color=&quot;#E6E6E6&quot;&gt;%c4Description%&lt;/font&gt;&lt;/div&gt;" id="r_LgoGgmvubWq0d6DuWu-20">
          <mxCell style="shape=cylinder3;size=15;whiteSpace=wrap;html=1;boundedLbl=1;rounded=0;labelBackgroundColor=none;fillColor=#23A2D9;fontSize=12;fontColor=#ffffff;align=center;strokeColor=#0E7DAD;metaEdit=1;points=[[0.5,0,0],[1,0.25,0],[1,0.5,0],[1,0.75,0],[0.5,1,0],[0,0.75,0],[0,0.5,0],[0,0.25,0]];resizable=1;" parent="r_LgoGgmvubWq0d6DuWu-19" vertex="1">
            <mxGeometry x="230" y="70" width="240" height="110" as="geometry" />
          </mxCell>
        </object>
        <object placeholders="1" c4Name="shard1-1" c4Type="Database" c4Technology="MongoDB" c4Description="Slave" label="&lt;font style=&quot;font-size: 16px&quot;&gt;&lt;b&gt;%c4Name%&lt;/b&gt;&lt;/font&gt;&lt;div&gt;[%c4Type%:&amp;nbsp;%c4Technology%]&lt;/div&gt;&lt;br&gt;&lt;div&gt;&lt;font style=&quot;font-size: 11px&quot;&gt;&lt;font color=&quot;#E6E6E6&quot;&gt;%c4Description%&lt;/font&gt;&lt;/div&gt;" id="r_LgoGgmvubWq0d6DuWu-21">
          <mxCell style="shape=cylinder3;size=15;whiteSpace=wrap;html=1;boundedLbl=1;rounded=0;labelBackgroundColor=none;fillColor=#23A2D9;fontSize=12;fontColor=#ffffff;align=center;strokeColor=#0E7DAD;metaEdit=1;points=[[0.5,0,0],[1,0.25,0],[1,0.5,0],[1,0.75,0],[0.5,1,0],[0,0.75,0],[0,0.5,0],[0,0.25,0]];resizable=1;" parent="r_LgoGgmvubWq0d6DuWu-19" vertex="1">
            <mxGeometry y="70" width="240" height="110" as="geometry" />
          </mxCell>
        </object>
        <object placeholders="1" c4Name="shard1-1" c4Type="Database" c4Technology="MongoDB" c4Description="Master" label="&lt;font style=&quot;font-size: 16px&quot;&gt;&lt;b&gt;%c4Name%&lt;/b&gt;&lt;/font&gt;&lt;div&gt;[%c4Type%:&amp;nbsp;%c4Technology%]&lt;/div&gt;&lt;br&gt;&lt;div&gt;&lt;font style=&quot;font-size: 11px&quot;&gt;&lt;font color=&quot;#E6E6E6&quot;&gt;%c4Description%&lt;/font&gt;&lt;/div&gt;" id="r_LgoGgmvubWq0d6DuWu-22">
          <mxCell style="shape=cylinder3;size=15;whiteSpace=wrap;html=1;boundedLbl=1;rounded=0;labelBackgroundColor=none;fillColor=#23A2D9;fontSize=12;fontColor=#ffffff;align=center;strokeColor=#0E7DAD;metaEdit=1;points=[[0.5,0,0],[1,0.25,0],[1,0.5,0],[1,0.75,0],[0.5,1,0],[0,0.75,0],[0,0.5,0],[0,0.25,0]];resizable=1;" parent="r_LgoGgmvubWq0d6DuWu-19" vertex="1">
            <mxGeometry x="130" width="220" height="110" as="geometry" />
          </mxCell>
        </object>
        <mxCell id="r_LgoGgmvubWq0d6DuWu-24" value="" style="edgeStyle=orthogonalEdgeStyle;rounded=1;orthogonalLoop=1;jettySize=auto;html=1;curved=0;strokeColor=#828282;endArrow=blockThin;endFill=1;startSize=14;endSize=14;jumpStyle=gap;" parent="r_LgoGgmvubWq0d6DuWu-1" source="r_LgoGgmvubWq0d6DuWu-10" target="r_LgoGgmvubWq0d6DuWu-27" edge="1">
          <mxGeometry relative="1" as="geometry">
            <mxPoint x="1060" y="1230" as="sourcePoint" />
            <mxPoint x="1325" y="1415" as="targetPoint" />
            <Array as="points">
              <mxPoint x="1210" y="1075" />
              <mxPoint x="1210" y="1075" />
            </Array>
          </mxGeometry>
        </mxCell>
        <mxCell id="r_LgoGgmvubWq0d6DuWu-25" value="" style="edgeStyle=orthogonalEdgeStyle;rounded=1;orthogonalLoop=1;jettySize=auto;html=1;curved=0;strokeColor=#828282;endArrow=blockThin;endFill=1;startSize=14;endSize=14;jumpStyle=gap;" parent="r_LgoGgmvubWq0d6DuWu-1" source="r_LgoGgmvubWq0d6DuWu-21" target="r_LgoGgmvubWq0d6DuWu-27" edge="1">
          <mxGeometry relative="1" as="geometry">
            <mxPoint x="915" y="1200" as="sourcePoint" />
            <mxPoint x="870" y="1610" as="targetPoint" />
            <Array as="points">
              <mxPoint x="560" y="1570" />
              <mxPoint x="1390" y="1570" />
            </Array>
          </mxGeometry>
        </mxCell>
        <mxCell id="r_LgoGgmvubWq0d6DuWu-26" value="" style="edgeStyle=orthogonalEdgeStyle;rounded=1;orthogonalLoop=1;jettySize=auto;html=1;curved=0;strokeColor=#828282;endArrow=blockThin;endFill=1;startSize=14;endSize=14;jumpStyle=gap;" parent="r_LgoGgmvubWq0d6DuWu-1" source="r_LgoGgmvubWq0d6DuWu-17" target="r_LgoGgmvubWq0d6DuWu-27" edge="1">
          <mxGeometry relative="1" as="geometry">
            <mxPoint x="960" y="1590" as="sourcePoint" />
            <mxPoint x="1270" y="1700" as="targetPoint" />
            <Array as="points">
              <mxPoint x="1090" y="1570" />
              <mxPoint x="1390" y="1570" />
            </Array>
          </mxGeometry>
        </mxCell>
        <object placeholders="1" c4Name="configSrv" c4Type="Component" c4Technology="MongoDB" c4Description="MongoDB Configuration" label="&lt;font style=&quot;font-size: 16px&quot;&gt;&lt;b&gt;%c4Name%&lt;/b&gt;&lt;/font&gt;&lt;div&gt;[%c4Type%: %c4Technology%]&lt;/div&gt;&lt;br&gt;&lt;div&gt;&lt;font style=&quot;font-size: 11px&quot;&gt;%c4Description%&lt;/font&gt;&lt;/div&gt;" id="r_LgoGgmvubWq0d6DuWu-27">
          <mxCell style="rounded=1;whiteSpace=wrap;html=1;labelBackgroundColor=none;fillColor=#63BEF2;fontColor=#ffffff;align=center;arcSize=6;strokeColor=#2086C9;metaEdit=1;resizable=0;points=[[0.25,0,0],[0.5,0,0],[0.75,0,0],[1,0.25,0],[1,0.5,0],[1,0.75,0],[0.75,1,0],[0.5,1,0],[0.25,1,0],[0,0.75,0],[0,0.5,0],[0,0.25,0]];" parent="r_LgoGgmvubWq0d6DuWu-1" vertex="1">
            <mxGeometry x="1270" y="1015" width="240" height="120" as="geometry" />
          </mxCell>
        </object>
        <object placeholders="1" c4Type="Relationship" c4Technology="{ &quot;name&quot; : &quot;hashed&quot; }" c4Description="ShardCollection" label="&lt;div style=&quot;text-align: left&quot;&gt;&lt;div style=&quot;text-align: center&quot;&gt;&lt;b&gt;%c4Description%&lt;/b&gt;&lt;/div&gt;&lt;div style=&quot;text-align: center&quot;&gt;[%c4Technology%]&lt;/div&gt;&lt;/div&gt;" id="H9zB-VRIpQJ09DbpROWs-0">
          <mxCell style="endArrow=blockThin;html=1;fontSize=10;fontColor=#404040;strokeWidth=1;endFill=1;strokeColor=#828282;elbow=vertical;metaEdit=1;endSize=14;startSize=14;jumpStyle=gap;jumpSize=16;rounded=1;edgeStyle=orthogonalEdgeStyle;curved=0;" parent="r_LgoGgmvubWq0d6DuWu-1" source="r_LgoGgmvubWq0d6DuWu-10" target="r_LgoGgmvubWq0d6DuWu-18" edge="1">
            <mxGeometry x="-0.8486" width="240" relative="1" as="geometry">
              <mxPoint x="950" y="1260" as="sourcePoint" />
              <mxPoint x="1215" y="1445" as="targetPoint" />
              <Array as="points">
                <mxPoint x="815" y="1200" />
                <mxPoint x="1080" y="1200" />
              </Array>
              <mxPoint as="offset" />
            </mxGeometry>
          </mxCell>
        </object>
        <object placeholders="1" c4Name="Группа репликации" c4Type="ContainerScopeBoundary" c4Application="Container" label="&lt;font style=&quot;font-size: 16px&quot;&gt;&lt;b&gt;&lt;div style=&quot;text-align: left&quot;&gt;%c4Name%&lt;/div&gt;&lt;/b&gt;&lt;/font&gt;&lt;div style=&quot;text-align: left&quot;&gt;[%c4Application%]&lt;/div&gt;" id="PeO_GoL0PeJXLmugabdG-0">
          <mxCell style="rounded=1;fontSize=11;whiteSpace=wrap;html=1;dashed=1;arcSize=20;fillColor=none;strokeColor=#666666;fontColor=#333333;labelBackgroundColor=none;align=left;verticalAlign=bottom;labelBorderColor=none;spacingTop=0;spacing=10;dashPattern=8 4;metaEdit=1;rotatable=0;perimeter=rectanglePerimeter;noLabel=0;labelPadding=0;allowArrows=0;connectable=0;expand=0;recursiveResize=0;editable=1;pointerEvents=0;absoluteArcSize=1;points=[[0.25,0,0],[0.5,0,0],[0.75,0,0],[1,0.25,0],[1,0.5,0],[1,0.75,0],[0.75,1,0],[0.5,1,0],[0.25,1,0],[0,0.75,0],[0,0.5,0],[0,0.25,0]];" parent="r_LgoGgmvubWq0d6DuWu-1" vertex="1">
            <mxGeometry x="310" y="1290" width="490" height="260" as="geometry" />
          </mxCell>
        </object>
        <object placeholders="1" c4Name="Группа репликации" c4Type="ContainerScopeBoundary" c4Application="Container" label="&lt;font style=&quot;font-size: 16px&quot;&gt;&lt;b&gt;&lt;div style=&quot;text-align: left&quot;&gt;%c4Name%&lt;/div&gt;&lt;/b&gt;&lt;/font&gt;&lt;div style=&quot;text-align: left&quot;&gt;[%c4Application%]&lt;/div&gt;" id="PeO_GoL0PeJXLmugabdG-1">
          <mxCell style="rounded=1;fontSize=11;whiteSpace=wrap;html=1;dashed=1;arcSize=20;fillColor=none;strokeColor=#666666;fontColor=#333333;labelBackgroundColor=none;align=left;verticalAlign=bottom;labelBorderColor=none;spacingTop=0;spacing=10;dashPattern=8 4;metaEdit=1;rotatable=0;perimeter=rectanglePerimeter;noLabel=0;labelPadding=0;allowArrows=0;connectable=0;expand=0;recursiveResize=0;editable=1;pointerEvents=0;absoluteArcSize=1;points=[[0.25,0,0],[0.5,0,0],[0.75,0,0],[1,0.25,0],[1,0.5,0],[1,0.75,0],[0.75,1,0],[0.5,1,0],[0.25,1,0],[0,0.75,0],[0,0.5,0],[0,0.25,0]];" parent="r_LgoGgmvubWq0d6DuWu-1" vertex="1">
            <mxGeometry x="840" y="1290" width="490" height="260" as="geometry" />
          </mxCell>
        </object>
        <mxCell id="BJjd2a3bRJORaQ5PR6AO-0" value="" style="edgeStyle=orthogonalEdgeStyle;rounded=1;orthogonalLoop=1;jettySize=auto;html=1;curved=0;strokeColor=#828282;endArrow=blockThin;endFill=1;startSize=14;endSize=14;jumpStyle=gap;startArrow=blockThin;startFill=1;dashed=1;" parent="r_LgoGgmvubWq0d6DuWu-1" source="r_LgoGgmvubWq0d6DuWu-22" target="r_LgoGgmvubWq0d6DuWu-18" edge="1">
          <mxGeometry relative="1" as="geometry">
            <mxPoint x="750" y="1340" as="sourcePoint" />
            <mxPoint x="1040" y="1340" as="targetPoint" />
            <Array as="points" />
          </mxGeometry>
        </mxCell>
      </root>
    </mxGraphModel>
  </diagram>
  <diagram id="wpL2Mo5xJt6Kts1gx4Gw" name="[1] Sharding">
    <mxGraphModel dx="-502" dy="-1548" grid="1" gridSize="10" guides="1" tooltips="1" connect="1" arrows="1" fold="1" page="1" pageScale="1" pageWidth="827" pageHeight="1169" math="0" shadow="0">
      <root>
        <mxCell id="0" />
        <mxCell id="1" parent="0" />
        <object placeholders="1" c4Name="Мобильный мир" c4Type="ContainerScopeBoundary" c4Application="Информационная система" label="&lt;font style=&quot;font-size: 16px&quot;&gt;&lt;b&gt;&lt;div style=&quot;text-align: left&quot;&gt;%c4Name%&lt;/div&gt;&lt;/b&gt;&lt;/font&gt;&lt;div style=&quot;text-align: left&quot;&gt;[%c4Application%]&lt;/div&gt;" id="jp3icXbDyPYiqD3aHj-N-1">
          <mxCell style="rounded=1;fontSize=11;whiteSpace=wrap;html=1;dashed=1;arcSize=20;fillColor=none;strokeColor=#666666;fontColor=#333333;labelBackgroundColor=none;align=left;verticalAlign=bottom;labelBorderColor=none;spacingTop=0;spacing=10;dashPattern=8 4;metaEdit=1;rotatable=0;perimeter=rectanglePerimeter;noLabel=0;labelPadding=0;allowArrows=0;connectable=0;expand=0;recursiveResize=0;editable=1;pointerEvents=0;absoluteArcSize=1;points=[[0.25,0,0],[0.5,0,0],[0.75,0,0],[1,0.25,0],[1,0.5,0],[1,0.75,0],[0.75,1,0],[0.5,1,0],[0.25,1,0],[0,0.75,0],[0,0.5,0],[0,0.25,0]];" parent="1" vertex="1">
            <mxGeometry x="1800" y="2790" width="1430" height="1190" as="geometry" />
          </mxCell>
        </object>
        <object placeholders="1" c4Name="pymongo-api" c4Type="Service" c4Technology="Python" c4Description="Mobile World API" label="&lt;font style=&quot;font-size: 16px&quot;&gt;&lt;b&gt;%c4Name%&lt;/b&gt;&lt;/font&gt;&lt;div&gt;[%c4Type%:&amp;nbsp;%c4Technology%]&lt;/div&gt;&lt;br&gt;&lt;div&gt;&lt;font style=&quot;font-size: 11px&quot;&gt;&lt;font color=&quot;#E6E6E6&quot;&gt;%c4Description%&lt;/font&gt;&lt;/div&gt;" id="jp3icXbDyPYiqD3aHj-N-8">
          <mxCell style="shape=hexagon;size=50;perimeter=hexagonPerimeter2;whiteSpace=wrap;html=1;fixedSize=1;rounded=1;labelBackgroundColor=none;fillColor=#23A2D9;fontSize=12;fontColor=#ffffff;align=center;strokeColor=#0E7DAD;metaEdit=1;points=[[0.5,0,0],[1,0.25,0],[1,0.5,0],[1,0.75,0],[0.5,1,0],[0,0.75,0],[0,0.5,0],[0,0.25,0]];resizable=1;" parent="1" vertex="1">
            <mxGeometry x="2375" y="2838" width="200" height="170" as="geometry" />
          </mxCell>
        </object>
        <object placeholders="1" c4Name="mongos_router" c4Type="Component" c4Technology="MongoDB" c4Description="MongoDB Router" label="&lt;font style=&quot;font-size: 16px&quot;&gt;&lt;b&gt;%c4Name%&lt;/b&gt;&lt;/font&gt;&lt;div&gt;[%c4Type%: %c4Technology%]&lt;/div&gt;&lt;br&gt;&lt;div&gt;&lt;font style=&quot;font-size: 11px&quot;&gt;%c4Description%&lt;/font&gt;&lt;/div&gt;" id="jp3icXbDyPYiqD3aHj-N-9">
          <mxCell style="rounded=1;whiteSpace=wrap;html=1;labelBackgroundColor=none;fillColor=#63BEF2;fontColor=#ffffff;align=center;arcSize=6;strokeColor=#2086C9;metaEdit=1;resizable=0;points=[[0.25,0,0],[0.5,0,0],[0.75,0,0],[1,0.25,0],[1,0.5,0],[1,0.75,0],[0.75,1,0],[0.5,1,0],[0.25,1,0],[0,0.75,0],[0,0.5,0],[0,0.25,0]];" parent="1" vertex="1">
            <mxGeometry x="2355" y="3325" width="240" height="120" as="geometry" />
          </mxCell>
        </object>
        <object placeholders="1" c4Type="Relationship" c4Technology="PyMongo" c4Description="CRUD operations" label="&lt;div style=&quot;text-align: left&quot;&gt;&lt;div style=&quot;text-align: center&quot;&gt;&lt;b&gt;%c4Description%&lt;/b&gt;&lt;/div&gt;&lt;div style=&quot;text-align: center&quot;&gt;[%c4Technology%]&lt;/div&gt;&lt;/div&gt;" id="jp3icXbDyPYiqD3aHj-N-10">
          <mxCell style="endArrow=blockThin;html=1;fontSize=10;fontColor=#404040;strokeWidth=1;endFill=1;strokeColor=#828282;elbow=vertical;metaEdit=1;endSize=14;startSize=14;jumpStyle=arc;jumpSize=16;rounded=1;edgeStyle=orthogonalEdgeStyle;curved=0;" parent="1" source="jp3icXbDyPYiqD3aHj-N-8" target="jp3icXbDyPYiqD3aHj-N-12" edge="1">
            <mxGeometry x="-0.0909" width="240" relative="1" as="geometry">
              <mxPoint x="2470" y="3150" as="sourcePoint" />
              <mxPoint x="2210" y="3340" as="targetPoint" />
              <Array as="points" />
              <mxPoint as="offset" />
            </mxGeometry>
          </mxCell>
        </object>
        <mxCell id="jp3icXbDyPYiqD3aHj-N-11" value="" style="edgeStyle=orthogonalEdgeStyle;rounded=1;orthogonalLoop=1;jettySize=auto;html=1;curved=0;strokeColor=#828282;endArrow=blockThin;endFill=1;startSize=14;endSize=14;jumpStyle=gap;" parent="1" source="jp3icXbDyPYiqD3aHj-N-12" target="jp3icXbDyPYiqD3aHj-N-9" edge="1">
          <mxGeometry relative="1" as="geometry" />
        </mxCell>
        <object placeholders="1" c4Name="MongoDB Driver" c4Type="Component" c4Technology="MongoDB" c4Description="MongoDB Driver" label="&lt;font style=&quot;font-size: 16px&quot;&gt;&lt;b&gt;%c4Name%&lt;/b&gt;&lt;/font&gt;&lt;div&gt;[%c4Type%: %c4Technology%]&lt;/div&gt;&lt;br&gt;&lt;div&gt;&lt;font style=&quot;font-size: 11px&quot;&gt;%c4Description%&lt;/font&gt;&lt;/div&gt;" id="jp3icXbDyPYiqD3aHj-N-12">
          <mxCell style="rounded=1;whiteSpace=wrap;html=1;labelBackgroundColor=none;fillColor=#63BEF2;fontColor=#ffffff;align=center;arcSize=6;strokeColor=#2086C9;metaEdit=1;resizable=0;points=[[0.25,0,0],[0.5,0,0],[0.75,0,0],[1,0.25,0],[1,0.5,0],[1,0.75,0],[0.75,1,0],[0.5,1,0],[0.25,1,0],[0,0.75,0],[0,0.5,0],[0,0.25,0]];" parent="1" vertex="1">
            <mxGeometry x="2355" y="3140" width="240" height="120" as="geometry" />
          </mxCell>
        </object>
        <mxCell id="jp3icXbDyPYiqD3aHj-N-13" value="" style="edgeStyle=orthogonalEdgeStyle;rounded=1;orthogonalLoop=1;jettySize=auto;html=1;curved=0;strokeColor=#828282;endArrow=blockThin;endFill=1;startSize=14;endSize=14;jumpStyle=gap;" parent="1" source="jp3icXbDyPYiqD3aHj-N-9" target="jp3icXbDyPYiqD3aHj-N-21" edge="1">
          <mxGeometry relative="1" as="geometry">
            <mxPoint x="2470" y="3280" as="sourcePoint" />
            <mxPoint x="2470" y="3345" as="targetPoint" />
            <Array as="points">
              <mxPoint x="2475" y="3510" />
              <mxPoint x="2220" y="3510" />
            </Array>
          </mxGeometry>
        </mxCell>
        <mxCell id="jp3icXbDyPYiqD3aHj-N-23" value="" style="edgeStyle=orthogonalEdgeStyle;rounded=1;orthogonalLoop=1;jettySize=auto;html=1;curved=0;strokeColor=#828282;endArrow=blockThin;endFill=1;startSize=14;endSize=14;jumpStyle=gap;" parent="1" source="jp3icXbDyPYiqD3aHj-N-9" target="jp3icXbDyPYiqD3aHj-N-26" edge="1">
          <mxGeometry relative="1" as="geometry">
            <mxPoint x="2720" y="3540" as="sourcePoint" />
            <mxPoint x="2985" y="3725" as="targetPoint" />
            <Array as="points">
              <mxPoint x="2870" y="3385" />
              <mxPoint x="2870" y="3385" />
            </Array>
          </mxGeometry>
        </mxCell>
        <mxCell id="jp3icXbDyPYiqD3aHj-N-24" value="" style="edgeStyle=orthogonalEdgeStyle;rounded=1;orthogonalLoop=1;jettySize=auto;html=1;curved=0;strokeColor=#828282;endArrow=blockThin;endFill=1;startSize=14;endSize=14;jumpStyle=gap;" parent="1" source="jp3icXbDyPYiqD3aHj-N-21" target="jp3icXbDyPYiqD3aHj-N-26" edge="1">
          <mxGeometry relative="1" as="geometry">
            <mxPoint x="2220" y="3810" as="sourcePoint" />
            <mxPoint x="2530" y="3920" as="targetPoint" />
            <Array as="points">
              <mxPoint x="2220" y="3880" />
              <mxPoint x="3050" y="3880" />
            </Array>
          </mxGeometry>
        </mxCell>
        <mxCell id="jp3icXbDyPYiqD3aHj-N-25" value="" style="edgeStyle=orthogonalEdgeStyle;rounded=1;orthogonalLoop=1;jettySize=auto;html=1;curved=0;strokeColor=#828282;endArrow=blockThin;endFill=1;startSize=14;endSize=14;jumpStyle=gap;" parent="1" source="jp3icXbDyPYiqD3aHj-N-17" target="jp3icXbDyPYiqD3aHj-N-26" edge="1">
          <mxGeometry relative="1" as="geometry">
            <mxPoint x="2750" y="3810" as="sourcePoint" />
            <mxPoint x="2930" y="4010" as="targetPoint" />
            <Array as="points">
              <mxPoint x="2740" y="3880" />
              <mxPoint x="3050" y="3880" />
            </Array>
          </mxGeometry>
        </mxCell>
        <object placeholders="1" c4Name="configSrv" c4Type="Component" c4Technology="MongoDB" c4Description="MongoDB Configuration" label="&lt;font style=&quot;font-size: 16px&quot;&gt;&lt;b&gt;%c4Name%&lt;/b&gt;&lt;/font&gt;&lt;div&gt;[%c4Type%: %c4Technology%]&lt;/div&gt;&lt;br&gt;&lt;div&gt;&lt;font style=&quot;font-size: 11px&quot;&gt;%c4Description%&lt;/font&gt;&lt;/div&gt;" id="jp3icXbDyPYiqD3aHj-N-26">
          <mxCell style="rounded=1;whiteSpace=wrap;html=1;labelBackgroundColor=none;fillColor=#63BEF2;fontColor=#ffffff;align=center;arcSize=6;strokeColor=#2086C9;metaEdit=1;resizable=0;points=[[0.25,0,0],[0.5,0,0],[0.75,0,0],[1,0.25,0],[1,0.5,0],[1,0.75,0],[0.75,1,0],[0.5,1,0],[0.25,1,0],[0,0.75,0],[0,0.5,0],[0,0.25,0]];" parent="1" vertex="1">
            <mxGeometry x="2930" y="3325" width="240" height="120" as="geometry" />
          </mxCell>
        </object>
        <object placeholders="1" c4Name="shard1-1" c4Type="Database" c4Technology="MongoDB" c4Description="Master" label="&lt;font style=&quot;font-size: 16px&quot;&gt;&lt;b&gt;%c4Name%&lt;/b&gt;&lt;/font&gt;&lt;div&gt;[%c4Type%:&amp;nbsp;%c4Technology%]&lt;/div&gt;&lt;br&gt;&lt;div&gt;&lt;font style=&quot;font-size: 11px&quot;&gt;&lt;font color=&quot;#E6E6E6&quot;&gt;%c4Description%&lt;/font&gt;&lt;/div&gt;" id="jp3icXbDyPYiqD3aHj-N-21">
          <mxCell style="shape=cylinder3;size=15;whiteSpace=wrap;html=1;boundedLbl=1;rounded=0;labelBackgroundColor=none;fillColor=#23A2D9;fontSize=12;fontColor=#ffffff;align=center;strokeColor=#0E7DAD;metaEdit=1;points=[[0.5,0,0],[1,0.25,0],[1,0.5,0],[1,0.75,0],[0.5,1,0],[0,0.75,0],[0,0.5,0],[0,0.25,0]];resizable=1;" parent="1" vertex="1">
            <mxGeometry x="2110" y="3630" width="220" height="110" as="geometry" />
          </mxCell>
        </object>
        <object placeholders="1" c4Name="shard1-2" c4Type="Database" c4Technology="MongoDB" c4Description="Master" label="&lt;font style=&quot;font-size: 16px&quot;&gt;&lt;b&gt;%c4Name%&lt;/b&gt;&lt;/font&gt;&lt;div&gt;[%c4Type%:&amp;nbsp;%c4Technology%]&lt;/div&gt;&lt;br&gt;&lt;div&gt;&lt;font style=&quot;font-size: 11px&quot;&gt;&lt;font color=&quot;#E6E6E6&quot;&gt;%c4Description%&lt;/font&gt;&lt;/div&gt;" id="jp3icXbDyPYiqD3aHj-N-17">
          <mxCell style="shape=cylinder3;size=15;whiteSpace=wrap;html=1;boundedLbl=1;rounded=0;labelBackgroundColor=none;fillColor=#23A2D9;fontSize=12;fontColor=#ffffff;align=center;strokeColor=#0E7DAD;metaEdit=1;points=[[0.5,0,0],[1,0.25,0],[1,0.5,0],[1,0.75,0],[0.5,1,0],[0,0.75,0],[0,0.5,0],[0,0.25,0]];resizable=1;" parent="1" vertex="1">
            <mxGeometry x="2620" y="3630" width="240" height="110" as="geometry" />
          </mxCell>
        </object>
        <object placeholders="1" c4Type="Relationship" c4Technology="{ &quot;name&quot; : &quot;hashed&quot; }" c4Description="ShardCollection" label="&lt;div style=&quot;text-align: left&quot;&gt;&lt;div style=&quot;text-align: center&quot;&gt;&lt;b&gt;%c4Description%&lt;/b&gt;&lt;/div&gt;&lt;div style=&quot;text-align: center&quot;&gt;[%c4Technology%]&lt;/div&gt;&lt;/div&gt;" id="ymqx_hOUHnr85weWENCA-2">
          <mxCell style="endArrow=blockThin;html=1;fontSize=10;fontColor=#404040;strokeWidth=1;endFill=1;strokeColor=#828282;elbow=vertical;metaEdit=1;endSize=14;startSize=14;jumpStyle=gap;jumpSize=16;rounded=1;edgeStyle=orthogonalEdgeStyle;curved=0;" parent="1" source="jp3icXbDyPYiqD3aHj-N-9" target="jp3icXbDyPYiqD3aHj-N-17" edge="1">
            <mxGeometry x="-0.8486" width="240" relative="1" as="geometry">
              <mxPoint x="2620" y="3429" as="sourcePoint" />
              <mxPoint x="2620" y="3539" as="targetPoint" />
              <Array as="points">
                <mxPoint x="2475" y="3509" />
                <mxPoint x="2740" y="3509" />
              </Array>
              <mxPoint as="offset" />
            </mxGeometry>
          </mxCell>
        </object>
        <mxCell id="iP8I8kDDXhssysVJJXrg-1" value="" style="edgeStyle=orthogonalEdgeStyle;rounded=1;orthogonalLoop=1;jettySize=auto;html=1;curved=0;strokeColor=#828282;endArrow=blockThin;endFill=1;startSize=14;endSize=14;jumpStyle=gap;startArrow=blockThin;startFill=1;dashed=1;" parent="1" source="jp3icXbDyPYiqD3aHj-N-21" target="jp3icXbDyPYiqD3aHj-N-17" edge="1">
          <mxGeometry relative="1" as="geometry">
            <mxPoint x="2440" y="4165" as="sourcePoint" />
            <mxPoint x="3270" y="3870" as="targetPoint" />
            <Array as="points">
              <mxPoint x="2440" y="3685" />
              <mxPoint x="2440" y="3685" />
            </Array>
          </mxGeometry>
        </mxCell>
      </root>
    </mxGraphModel>
  </diagram>
  <diagram name="AS-IS" id="-H_mtQnk-PTXWXPvYvuk">
    <mxGraphModel dx="1646" dy="1129" grid="1" gridSize="10" guides="1" tooltips="1" connect="1" arrows="1" fold="1" page="1" pageScale="1" pageWidth="1169" pageHeight="827" math="0" shadow="0">
      <root>
        <mxCell id="0" />
        <mxCell id="1" parent="0" />
        <mxCell id="zA23MoTUsTF4_91t8viU-2" value="MongoDB" style="shape=cylinder3;whiteSpace=wrap;html=1;boundedLbl=1;backgroundOutline=1;size=15;" parent="1" vertex="1">
          <mxGeometry x="640" y="334" width="60" height="80" as="geometry" />
        </mxCell>
        <mxCell id="zA23MoTUsTF4_91t8viU-3" value="pymongo-api" style="rounded=1;whiteSpace=wrap;html=1;" parent="1" vertex="1">
          <mxGeometry x="440" y="344" width="120" height="60" as="geometry" />
        </mxCell>
        <mxCell id="zA23MoTUsTF4_91t8viU-4" style="edgeStyle=orthogonalEdgeStyle;rounded=0;orthogonalLoop=1;jettySize=auto;html=1;exitX=1;exitY=0.5;exitDx=0;exitDy=0;entryX=0;entryY=0.5;entryDx=0;entryDy=0;entryPerimeter=0;" parent="1" source="zA23MoTUsTF4_91t8viU-3" target="zA23MoTUsTF4_91t8viU-2" edge="1">
          <mxGeometry relative="1" as="geometry" />
        </mxCell>
      </root>
    </mxGraphModel>
  </diagram>
</mxfile>
